<svg xmlns="http://www.w3.org/2000/svg" width="24" height="25" viewBox="0 0 24 25">
    <path fill="#FFF" fill-rule="evenodd" d="M13.995 22.5c1.036 0 1.875-.84 1.875-1.875V18.75h3.125c1.035 0 1.875-.84 1.875-1.875V6.402c0-.429-.246-1.023-.55-1.326l-2.026-2.027c-.303-.303-.897-.549-1.326-.549h-6.723c-1.036 0-1.875.84-1.875 1.875V6.25H5.245c-1.036 0-1.875.84-1.875 1.875v12.5c0 1.036.84 1.875 1.875 1.875h8.75zm4.766-5.625h-8.282c-.129 0-.234-.105-.234-.234V4.609c0-.129.105-.234.234-.234h4.141v3.438c0 .517.42.937.937.937h3.438v7.89c0 .13-.105.235-.234.235zm.234-10h-2.5v-2.5h.376c.062 0 .122.025.166.069l1.89 1.889c.025.025.047.067.059.107l.009.059v.376zm-5.234 13.75H5.479c-.129 0-.234-.105-.234-.234V8.359c0-.129.105-.234.234-.234H8.37v8.75c0 1.036.84 1.875 1.875 1.875h3.75v1.64c0 .13-.105.235-.234.235z"/>
</svg>
