<svg xmlns="http://www.w3.org/2000/svg" width="24" height="25" viewBox="0 0 24 25">
    <path fill="#191927" fill-rule="evenodd" d="M17.245 21.52c1.035 0 1.875-.839 1.875-1.874V5.896c0-1.035-.84-1.875-1.875-1.875H14.12c0-1.379-1.121-2.5-2.5-2.5s-2.5 1.121-2.5 2.5H5.995c-1.035 0-1.875.84-1.875 1.875v13.75c0 1.035.84 1.875 1.875 1.875h11.25zM11.62 4.959c-.52 0-.938-.418-.938-.937 0-.52.418-.938.938-.938s.937.418.937.938-.417.937-.937.937zm5.39 14.688H6.23c-.13 0-.235-.106-.235-.235V6.131c0-.13.105-.235.234-.235H7.87v1.406c0 .258.21.469.469.469H14.9c.258 0 .469-.211.469-.469V5.896h1.64c.13 0 .235.105.235.234v13.281c0 .13-.106.235-.234.235z"/>
</svg>
