<svg xmlns="http://www.w3.org/2000/svg" width="24" height="24" viewBox="0 0 24 24">
    <path fill="#FFF" fill-rule="evenodd" d="M12.481 19.7l1.478-2.96 3.138 1.048c.425.14.828-.263.684-.685l-1.047-3.137 2.96-1.478c.406-.204.406-.772.006-.972l-2.96-1.478L17.788 6.9c.141-.425-.262-.828-.684-.684l-3.137 1.047L12.484 4.3c-.2-.4-.768-.4-.968 0l-1.479 2.96-3.14-1.047c-.425-.141-.828.262-.685.684l1.047 3.137L4.3 11.516c-.4.2-.4.768 0 .968l2.96 1.479-1.048 3.14c-.14.425.263.828.685.685l3.137-1.047 1.478 2.959c.2.4.77.4.97 0zm-3.31-4.872c-1.559-1.56-1.559-4.097 0-5.656 1.56-1.56 4.098-1.56 5.657 0 1.56 1.56 1.56 4.097 0 5.656-1.56 1.56-4.097 1.56-5.656 0zM12 15c1.653 0 3-1.347 3-3s-1.347-3-3-3-3 1.347-3 3 1.347 3 3 3z"/>
</svg>
