<svg xmlns="http://www.w3.org/2000/svg" width="24" height="24" viewBox="0 0 24 24">
    <path fill="#191927" fill-rule="evenodd" d="M12.723 20c2.461 0 4.718-1.119 6.214-2.962.883-1.088-.08-2.679-1.445-2.418-2.574.49-4.946-1.478-4.946-4.088 0-1.513.814-2.884 2.107-3.62 1.21-.689.906-2.524-.47-2.778-.4-.074-1.054-.134-1.46-.134-4.418 0-8 3.58-8 8 0 4.418 3.58 8 8 8zm0-1.5c-3.59 0-6.5-2.91-6.5-6.5s2.91-6.5 6.5-6.5c.406 0 .803.038 1.188.109-1.711.974-2.865 2.814-2.865 4.923 0 3.558 3.238 6.225 6.726 5.561-1.192 1.468-3.01 2.407-5.05 2.407z" opacity=".6"/>
</svg>
