<svg xmlns="http://www.w3.org/2000/svg" width="25" height="25" viewBox="0 0 25 25">
    <path fill="#ffffff" fill-rule="ffffff" d="M12.813 13.786c2.839 0 5.142-2.304 5.142-5.143 0-2.84-2.303-5.143-5.142-5.143-2.84 0-5.143 2.304-5.143 5.143 0 2.84 2.303 5.143 5.143 5.143zm0-1.715c-1.89 0-3.43-1.539-3.43-3.428 0-1.89 1.54-3.429 3.43-3.429 1.889 0 3.428 1.54 3.428 3.429 0 1.89-1.54 3.428-3.428 3.428zM19.098 22.5c.947 0 1.715-1.054 1.715-2v-1.343c0-2.65-2.15-4.8-4.8-4.8-1.025 0-1.518.572-3.2.572-1.683 0-2.172-.572-3.2-.572-2.65 0-4.8 2.15-4.8 4.8V20.5c0 .946.767 2 1.714 2h12.571zm0-2H6.527v-1.343c0-1.7 1.385-3.086 3.086-3.086.52 0 1.367.572 3.2.572 1.846 0 2.675-.572 3.2-.572 1.7 0 3.085 1.386 3.085 3.086V20.5z"/>
</svg>
