<svg xmlns="http://www.w3.org/2000/svg" width="24" height="25" viewBox="0 0 24 25">
    <path fill="#191927" fill-rule="evenodd" d="M20.75 21c.276 0 .5-.224.5-.5v-15c0-.276-.224-.5-.5-.5h-1.5c-.276 0-.5.224-.5.5v15c0 .276.224.5.5.5h1.5zm-4 0c.276 0 .5-.224.5-.5v-12c0-.276-.224-.5-.5-.5h-1.5c-.276 0-.5.224-.5.5v12c0 .276.224.5.5.5h1.5zm-4 0c.276 0 .5-.224.5-.5v-9c0-.276-.224-.5-.5-.5h-1.5c-.276 0-.5.224-.5.5v9c0 .276.224.5.5.5h1.5zm-4 0c.276 0 .5-.224.5-.5v-6c0-.276-.224-.5-.5-.5h-1.5c-.276 0-.5.224-.5.5v6c0 .276.224.5.5.5h1.5zm-4 0c.276 0 .5-.224.5-.5v-3c0-.276-.224-.5-.5-.5h-1.5c-.276 0-.5.224-.5.5v3c0 .276.224.5.5.5h1.5z" opacity=".6"/>
</svg>
