<svg width="24" height="24" viewBox="0 0 24 24" stroke="currentColor" fill="currentColor" xmlns="http://www.w3.org/2000/svg">
<path d="M18.125 5H12.875C12.3918 5 12 5.39175 12 5.875C12 6.35825 12.3918 6.75 12.875 6.75H16.025L11.125 11.65C10.7867 11.9883 10.7867 12.5367 11.125 12.875C11.4633 13.2133 12.0117 13.2133 12.35 12.875L17.25 7.975V11.125C17.25 11.6082 17.6418 12 18.125 12C18.6083 12 19 11.6082 19 11.125V5.875C19 5.35 18.65 5 18.125 5Z"/>
<path d="M17.125 19H5.875C5.35 19 5 18.65 5 18.125V6.75C5 6.225 5.35 5.875 5.875 5.875H8.59997C9.02801 5.875 9.375 6.22199 9.375 6.65003C9.375 7.07806 9.02801 7.42505 8.59997 7.42505H6.5V17.5H16.5204V15.3648C16.5204 14.9562 16.8516 14.625 17.2602 14.625C17.6688 14.625 18 14.9562 18 15.3648V18.125C18 18.65 17.65 19 17.125 19Z"/>
</svg>
