<svg width="40" height="40" viewBox="0 0 40 40" fill="none" xmlns="http://www.w3.org/2000/svg">
<path d="M40 20C40 17.0547 38.1484 14.5391 35.5391 13.5625C36.6875 11.0312 36.2266 7.94531 34.1406 5.85938C32.0547 3.77344 28.9688 3.3125 26.4375 4.46094C25.4609 1.85156 22.9453 0 20 0C17.0547 0 14.5391 1.85156 13.5625 4.46094C11.0312 3.3125 7.9375 3.77344 5.85938 5.85938C3.77344 7.94531 3.3125 11.0312 4.46094 13.5625C1.85156 14.5391 0 17.0547 0 20C0 22.9453 1.85156 25.4609 4.46094 26.4375C3.3125 28.9688 3.77344 32.0625 5.85938 34.1406C7.9375 36.2188 11.0234 36.6953 13.5625 35.5391C14.5391 38.1406 17.0547 40 20 40C22.9453 40 25.4609 38.1484 26.4375 35.5391C28.9844 36.6953 32.0625 36.2188 34.1406 34.1406C36.2266 32.0547 36.6875 28.9688 35.5391 26.4375C38.1484 25.4609 40 22.9453 40 20ZM28.6875 16.543L18.45 26.6984C18.1133 27.0328 17.5688 27.0305 17.2352 26.6937L11.3195 20.7305C10.9852 20.3938 10.9875 19.8492 11.3242 19.5148L13.3578 17.4977C13.6945 17.1633 14.2391 17.1656 14.5734 17.5023L17.8664 20.8219L25.4602 13.2891C25.7969 12.9547 26.3414 12.957 26.675 13.2938L28.6922 15.3273C29.0266 15.6648 29.025 16.2094 28.6875 16.543Z" fill="#26C496"/>
</svg>
