<svg width="40" height="40" viewBox="0 0 40 40" fill="none" xmlns="http://www.w3.org/2000/svg">
<path d="M32.287 10.3571V9.28571C32.287 6.91853 30.3265 5 27.9075 5H9.9026C6.2744 5 3.33325 7.87813 3.33325 11.4286V28.5714C3.33325 32.1219 6.2744 35 9.9026 35H32.287C34.706 35 36.6666 33.0815 36.6666 30.7143V14.6429C36.6666 12.2757 34.706 10.3571 32.287 10.3571ZM33.3819 30.7143C33.3819 31.3049 32.8906 31.7857 32.287 31.7857H9.9026C8.09124 31.7857 6.61792 30.344 6.61792 28.5714V11.4286C6.61792 9.65603 8.09124 8.21429 9.9026 8.21429H27.9075C28.511 8.21429 29.0024 8.69509 29.0024 9.28571V11.4286H10.9975C10.3926 11.4286 9.9026 11.908 9.9026 12.5C9.9026 13.092 10.3926 13.5714 10.9975 13.5714H32.287C32.8906 13.5714 33.3819 14.0522 33.3819 14.6429V30.7143ZM27.9075 20C26.6983 20 25.7177 20.9596 25.7177 22.1429C25.7177 23.3261 26.6983 24.2857 27.9075 24.2857C29.1166 24.2857 30.0972 23.3261 30.0972 22.1429C30.0972 20.9596 29.1166 20 27.9075 20Z" fill="url(#paint0_linear_173:6434)"/>
<defs>
<linearGradient id="paint0_linear_173:6434" x1="9.06242" y1="5" x2="38.192" y2="24.6111" gradientUnits="userSpaceOnUse">
<stop stop-color="#A600FB"/>
<stop offset="0.260417" stop-color="#6F06FC"/>
<stop offset="0.625" stop-color="#4959F5"/>
<stop offset="0.828125" stop-color="#2E8DDF"/>
<stop offset="1" stop-color="#12C1C9"/>
</linearGradient>
</defs>
</svg>
