<svg xmlns="http://www.w3.org/2000/svg" xmlns:xlink="http://www.w3.org/1999/xlink" width="51.6" height="51.6" viewBox="0 0 51.6 51.6">
  <defs>
    <linearGradient id="linear-gradient" x1="0.866" y1="0.782" x2="0.115" y2="0.19" gradientUnits="objectBoundingBox">
      <stop offset="0.04" stop-color="#11ced0"/>
      <stop offset="0.43" stop-color="#4053c1"/>
      <stop offset="0.69" stop-color="#7d33d6"/>
      <stop offset="0.95" stop-color="#cf61dc"/>
    </linearGradient>
  </defs>
  <g id="zig-token" transform="translate(-26.4 -24.8)">
    <circle id="Ellipse_2_copy" cx="25.8" cy="25.8" r="25.8" transform="translate(26.4 24.8)" fill="#f3f4f6"/>
    <path id="New_bars_logo" d="M68.6,43.3h0a3.159,3.159,0,0,1,3.2,3.2h0v6.6a3.159,3.159,0,0,1-3.2,3.2h0a3.159,3.159,0,0,1-3.2-3.2h0V46.5a3.159,3.159,0,0,1,3.2-3.2Zm-8,4.3a3.159,3.159,0,0,1,3.2,3.2V62.1a3.2,3.2,0,0,1-6.4,0h0V50.8A3.159,3.159,0,0,1,60.6,47.6Zm-8.4-13h0a3.159,3.159,0,0,1,3.2,3.2V66.1a3.159,3.159,0,0,1-3.2,3.2h0A3.159,3.159,0,0,1,49,66.1V37.8A3.159,3.159,0,0,1,52.2,34.6Zm-8-2.7h0a3.159,3.159,0,0,1,3.2,3.2V50.7a3.159,3.159,0,0,1-3.2,3.2h0A3.159,3.159,0,0,1,41,50.7V35.1A3.222,3.222,0,0,1,44.2,31.9ZM35.8,43A3.159,3.159,0,0,1,39,46.2v8a3.15,3.15,0,0,1-6.3.1V46.2A3.019,3.019,0,0,1,35.8,43Z" fill-rule="evenodd" fill="url(#linear-gradient)"/>
  </g>
</svg>
