<svg id="Layer_1" data-name="Layer 1" xmlns="http://www.w3.org/2000/svg" viewBox="0 0 116.14 122.88"><defs><style>.cls-1{fill-rule:evenodd;}</style></defs><title>investment</title><path class="cls-1" d="M72.25,66a22.51,22.51,0,0,1,5.4-5.2c3.7-2.54,8.14-4,13.4-4.93a1.56,1.56,0,0,1,1.8,1.27,1.54,1.54,0,0,1-1.26,1.79c-4.85.86-8.9,2.17-12.2,4.43A20.85,20.85,0,0,0,72.74,71c12.62,1.26,20.09,0,25.52-3.92s9-10.69,13.76-20.43c-1.39.09-2.84.16-4.32.22-9.57.45-20,.93-26.59,6.69a36.82,36.82,0,0,0-4.9,5.31,58.25,58.25,0,0,0-4,5.91V66Zm-4.47-32c-.56,0-1.12-.1-1.67-.17s-1.23-.18-1.8-.28a16.77,16.77,0,0,1-1.66-.37V28.38c.7.06,1.45.11,2.26.15s1.63.07,2.46.09l2.32,0a8,8,0,0,0,1.69-.15,2,2,0,0,0,1-.49,1.4,1.4,0,0,0-.13-2,1.89,1.89,0,0,0-1.13-.34H69.5a8.14,8.14,0,0,1-5.41-1.57c-2.66-2.26-2.47-8.83.19-11a7.33,7.33,0,0,1,3.5-1.49V9.1h4.37v2.38l.69.06c.85.09,1.65.21,2.4.34s1.42.27,2,.41V17c-.94-.08-2-.15-3.18-.2s-2.25-.08-3.21-.08a8.84,8.84,0,0,0-1.54.12,1.92,1.92,0,0,0-1,.5,1.64,1.64,0,0,0,.12,2.24,2.34,2.34,0,0,0,1.5.4h2a7.16,7.16,0,0,1,3.58.82A5.28,5.28,0,0,1,77.67,23c1.11,2.15,1,6.4-.3,8.35a5,5,0,0,1-2.89,2.08,13.82,13.82,0,0,1-2.33.43v2.69H67.78V33.93ZM2.77,77.8H18.24A2.78,2.78,0,0,1,21,80.58v31.83a2.78,2.78,0,0,1-2.77,2.77H2.77A2.78,2.78,0,0,1,0,112.41V80.58A2.78,2.78,0,0,1,2.77,77.8ZM25.24,112V80.8H39.29c6,1.07,11.91,4.3,17.87,8H68.07c4.94.3,7.52,5.31,2.73,8.6-3.83,2.8-8.88,2.64-14,2.18-3.57-.18-3.73,4.62,0,4.64,1.29.1,2.69-.21,3.92-.21,6.46,0,11.78-1.24,15-6.34l1.63-3.82,16.24-8.05c8.12-2.67,13.89,5.82,7.91,11.73a212.13,212.13,0,0,1-36.15,21.28c-9,5.45-17.91,5.27-26.87,0L25.24,112ZM70.32,0a23.47,23.47,0,0,1,1.93,46.87V59c.5-.71,1-1.39,1.5-2a41.17,41.17,0,0,1,5.3-5.76c7.36-6.47,18.42-7,28.51-7.45,2.33-.11,4.61-.22,6.9-.41h0a1.63,1.63,0,0,1,.8.15,1.55,1.55,0,0,1,.72,2.07c-5.55,11.46-9.47,19.31-15.9,24C94,74,85.82,75.44,72.25,74.07v2.36c7.85.77,15.12,1.75,19.17,5h0L76.84,88.7a9.59,9.59,0,0,0-2-2.26,11.17,11.17,0,0,0-6-2.43,5.84,5.84,0,0,0-.73-.05H58.53a75.18,75.18,0,0,0-10.41-5.52c5.08-1.75,11.82-2.2,18.6-2.26V69.8A32.59,32.59,0,0,1,55.26,69a17.06,17.06,0,0,1-10.59-8.62.41.41,0,0,0-.05-.09h0l-4.37-9a1.89,1.89,0,0,1,.88-2.53,1.83,1.83,0,0,1,.94-.19h0l14.64.9.24,0h0c2.73.34,5.73.72,8.44,3.11a16.92,16.92,0,0,1,1.28,1.26c0-2.82.18-4.71.21-7.11A23.48,23.48,0,0,1,70.32,0Zm0,3.78A19.7,19.7,0,1,1,56.4,9.55,19.64,19.64,0,0,1,70.32,3.78ZM66.72,66V65.7a7.41,7.41,0,0,0-1.57-1.46,13.16,13.16,0,0,0-4.76-1.84,1.55,1.55,0,1,1,.66-3,16.32,16.32,0,0,1,5.67,2.18v-.4c-.07-.2-.15-.41-.23-.6a13.57,13.57,0,0,0-3.56-5.14c-1.85-1.63-4.23-1.93-6.41-2.2h-.05l-11.4-.7,3,6.09a13.4,13.4,0,0,0,8.29,6.75A29.38,29.38,0,0,0,66.72,66Z"/></svg>