<svg width="63" height="63" viewBox="0 0 63 63" fill="none" xmlns="http://www.w3.org/2000/svg">
<path fill-rule="evenodd" clip-rule="evenodd" d="M60.5935 1.11917L60.6209 1.1231C61.2734 1.20632 61.8055 1.71062 61.9113 2.375L60.43 2.611C61.9113 2.375 61.9115 2.37597 61.9116 2.377L61.912 2.37933L61.9129 2.385L61.9152 2.40032L61.9219 2.44675C61.9271 2.48467 61.9339 2.53648 61.9416 2.60179C61.9569 2.7324 61.9759 2.91703 61.9931 3.15256C62.0277 3.62358 62.0558 4.29847 62.0361 5.15205C61.9966 6.85937 61.7655 9.28211 61.0112 12.2171C59.4994 18.0994 55.8993 25.9855 47.6237 34.2616L47.6237 34.2617C45.0836 36.8017 42.2594 39.2258 39.4644 41.4265C39.4889 41.613 39.5135 41.7992 39.5382 41.9851C39.8659 44.457 40.1859 46.8701 39.7402 49.1304C39.1756 51.9938 37.4545 54.4888 33.8259 57.0452L33.8258 57.0453C30.2818 59.5417 27.0438 61.0193 24.676 61.8754C23.492 62.3035 22.5245 62.5765 21.8436 62.7439C21.503 62.8277 21.2339 62.8851 21.045 62.9223C20.9505 62.941 20.876 62.9545 20.8226 62.9639C20.7959 62.9685 20.7745 62.9721 20.7585 62.9747L20.7386 62.9779L20.7317 62.979L20.729 62.9794L20.7279 62.9796C20.7273 62.9797 20.7268 62.9798 20.5 61.497L20.7268 62.9798C20.2428 63.0538 19.753 62.8869 19.4149 62.5327C19.0768 62.1784 18.9329 61.6814 19.0294 61.2014L20.958 51.6084L11.4276 42.0779L1.78895 43.9699C1.30738 44.0644 0.810023 43.9174 0.457248 43.5763C0.104472 43.2351 -0.0591015 42.7429 0.0192701 42.2585L1.50002 42.498C0.0192701 42.2585 0.0193495 42.258 0.0194324 42.2575L0.0196164 42.2563L0.0200496 42.2537L0.0211812 42.2469L0.0245361 42.2271C0.0272695 42.2112 0.0310124 42.19 0.0358582 42.1635C0.0455494 42.1106 0.0596544 42.0367 0.0789213 41.9429C0.117452 41.7554 0.176649 41.4882 0.262508 41.1499C0.434197 40.4734 0.712706 39.5119 1.14616 38.3338C2.01297 35.9779 3.50086 32.7524 5.99567 29.2103L5.996 29.2098C8.55205 25.5837 11.0465 23.8637 13.909 23.299C16.1687 22.8532 18.5812 23.1723 21.0528 23.4992L21.0532 23.4993C21.2394 23.5239 21.4258 23.5486 21.6126 23.573C23.8129 20.7784 26.2367 17.9547 28.7764 15.4153L28.7764 15.4153C37.0535 7.13915 44.9402 3.53958 50.8228 2.02842C53.758 1.27442 56.1808 1.04369 57.8882 1.00446C58.7418 0.984846 59.4167 1.01309 59.8877 1.04775C60.1232 1.06508 60.3079 1.08402 60.4385 1.0994C60.5038 1.10709 60.5556 1.1139 60.5935 1.11917ZM13.8584 40.266L23.2612 26.3377C25.5879 23.3235 28.1823 20.2518 30.8976 17.5367C38.7884 9.64685 46.1978 6.31392 51.5692 4.93408C54.261 4.24259 56.4547 4.03819 57.9571 4.00367C58.3694 3.99419 58.7296 3.99752 59.0337 4.00708C59.0432 4.31094 59.0464 4.6708 59.0369 5.08264C59.0021 6.58501 58.7974 8.77864 58.1056 11.4704C56.7251 16.8416 53.3917 24.2505 45.5023 32.1403C40.707 36.9357 34.7997 41.354 30.0616 44.5874C27.6983 46.2002 25.638 47.51 24.1701 48.4157C23.6399 48.7428 23.1873 49.0171 22.8259 49.2336L13.8584 40.266ZM19.5044 26.3278C17.5296 26.0816 15.9733 25.9496 14.4896 26.2423C12.6062 26.6138 10.7102 27.7292 8.44837 30.9378L3.55031 40.5669L8.44804 30.9382C6.12405 34.2379 4.75103 37.2242 3.96163 39.3697C3.80146 39.805 3.66538 40.2056 3.55031 40.5669L10.9702 39.1104C10.9804 39.0933 10.9907 39.0757 11.0013 39.0579C11.2469 38.6437 11.6074 38.0434 12.07 37.2935C12.995 35.7941 14.3299 33.6942 15.9731 31.286C17.0286 29.7392 18.2148 28.0601 19.5044 26.3278ZM23.9251 52.0708L22.4388 59.4637C22.8057 59.3497 23.213 59.2143 23.656 59.0541C25.8092 58.2757 28.8023 56.9143 32.0982 54.5927C35.3095 52.3302 36.4254 50.4337 36.7969 48.5501C37.0895 47.0661 36.957 45.5095 36.7101 43.5344C34.9781 44.8239 33.2993 46.0099 31.7526 47.0654C29.3446 48.7087 27.2448 50.0437 25.7454 50.9688C24.9956 51.4315 24.3953 51.792 23.9812 52.0376C23.9621 52.0489 23.9434 52.06 23.9251 52.0708ZM45 15.497C45 14.1163 46.1193 12.997 47.5 12.997C48.8807 12.997 50 14.1163 50 15.497C50 16.8777 48.8807 17.997 47.5 17.997C46.1193 17.997 45 16.8777 45 15.497ZM47.5 9.99699C44.4625 9.99699 42 12.4594 42 15.497C42 18.5346 44.4625 20.997 47.5 20.997C50.5376 20.997 53 18.5346 53 15.497C53 12.4594 50.5376 9.99699 47.5 9.99699ZM37.5 22.998C36.1193 22.998 35 24.1173 35 25.498C35 26.8787 36.1193 27.998 37.5 27.998C38.8807 27.998 40 26.8787 40 25.498C40 24.1173 38.8807 22.998 37.5 22.998ZM32 25.498C32 22.4604 34.4625 19.998 37.5 19.998C40.5376 19.998 43 22.4604 43 25.498C43 28.5356 40.5376 30.998 37.5 30.998C34.4625 30.998 32 28.5356 32 25.498Z" fill="url(#paint0_linear_807_233)"/>
<defs>
<linearGradient id="paint0_linear_807_233" x1="10.6636" y1="0.998016" x2="68.2754" y2="35.9303" gradientUnits="userSpaceOnUse">
<stop stop-color="#A600FB"/>
<stop offset="0.260417" stop-color="#6F06FC"/>
<stop offset="0.625" stop-color="#4959F5"/>
<stop offset="0.828125" stop-color="#2E8DDF"/>
<stop offset="1" stop-color="#12C1C9"/>
</linearGradient>
</defs>
</svg>
