<svg xmlns="http://www.w3.org/2000/svg" width="39" height="40" viewBox="0 0 39 40">
    <path fill="currentColor" fill-rule="evenodd" d="M19.375 39.375c10.703 0 19.375-8.672 19.375-19.375S30.078.625 19.375.625 0 9.297 0 20s8.672 19.375 19.375 19.375zm4.586-9.672l-4.844-3.57-2.336 2.25c-.258.258-.476.476-.976.476l.343-4.93 8.977-8.109c.39-.343-.086-.539-.602-.195L13.43 22.609l-4.782-1.492c-1.039-.328-1.062-1.039.22-1.539l18.679-7.203c.867-.312 1.625.211 1.344 1.524l-3.18 14.984c-.235 1.062-.867 1.32-1.75.82z"/>
</svg>
