<svg xmlns="http://www.w3.org/2000/svg" width="40" height="34" viewBox="0 0 40 34">
    <path fill="currentColor" fill-rule="evenodd" d="M12.589 33.244c15.076 0 23.325-12.488 23.325-23.325 0-.355 0-.71-.026-1.066 1.6-1.168 2.995-2.614 4.112-4.239-1.472.635-3.071 1.092-4.721 1.27 1.7-1.016 2.995-2.615 3.604-4.518-1.574.939-3.35 1.624-5.203 1.98-1.498-1.6-3.63-2.59-5.99-2.59-4.543 0-8.198 3.68-8.198 8.198 0 .635.076 1.27.203 1.879-6.802-.356-12.868-3.605-16.903-8.58-.71 1.22-1.117 2.615-1.117 4.138 0 2.843 1.447 5.355 3.655 6.827-1.345-.05-2.614-.431-3.706-1.04v.101c0 3.985 2.818 7.284 6.574 8.046-.685.178-1.421.28-2.157.28-.533 0-1.041-.052-1.549-.128 1.041 3.249 4.061 5.61 7.665 5.686C9.34 28.37 5.812 29.665 1.98 29.665c-.686 0-1.32-.025-1.98-.101 3.63 2.334 7.944 3.68 12.589 3.68z"/>
</svg>
