<svg width="14" height="4" viewBox="0 0 14 4" fill="none" xmlns="http://www.w3.org/2000/svg">
<path d="M6.99998 3.66658C7.92045 3.66658 8.66665 2.92039 8.66665 1.99992C8.66665 1.07944 7.92045 0.333252 6.99998 0.333252C6.0795 0.333252 5.33331 1.07944 5.33331 1.99992C5.33331 2.92039 6.0795 3.66658 6.99998 3.66658Z" fill="#89899A"/>
<path d="M1.99998 3.66658C2.92045 3.66658 3.66665 2.92039 3.66665 1.99992C3.66665 1.07944 2.92045 0.333252 1.99998 0.333252C1.0795 0.333252 0.333313 1.07944 0.333313 1.99992C0.333313 2.92039 1.0795 3.66658 1.99998 3.66658Z" fill="#89899A"/>
<path d="M12 3.66658C12.9205 3.66658 13.6666 2.92039 13.6666 1.99992C13.6666 1.07944 12.9205 0.333252 12 0.333252C11.0795 0.333252 10.3333 1.07944 10.3333 1.99992C10.3333 2.92039 11.0795 3.66658 12 3.66658Z" fill="#89899A"/>
</svg>
