<svg width="20" height="20" viewBox="0 0 20 20" fill="none" xmlns="http://www.w3.org/2000/svg">
<path d="M15 13.125C13.4141 13.125 13.1406 13.0664 12.1797 13.3906C11.4961 13.6211 10.7617 13.75 10 13.75C9.23828 13.75 8.50391 13.6211 7.82031 13.3906C6.85938 13.0664 6.58984 13.125 5 13.125C2.23828 13.125 0 15.3633 0 18.125V18.75C0 19.4414 0.558594 20 1.25 20H18.75C19.4414 20 20 19.4414 20 18.75V18.125C20 15.3633 17.7617 13.125 15 13.125ZM18.125 18.125H1.875C1.875 17.2891 2.19922 16.5039 2.78906 15.9141C3.37891 15.3242 4.16406 15 5 15C6.60547 15 6.60156 14.957 7.21875 15.1641C8.11719 15.4688 9.05469 15.625 10 15.625C10.9453 15.625 11.8828 15.4688 12.7812 15.1641C13.3984 14.9531 13.3945 15 15 15C16.7227 15 18.125 16.4023 18.125 18.125ZM10 12.5C13.4531 12.5 16.25 9.70312 16.25 6.25C16.25 2.79688 13.4531 0 10 0C6.54688 0 3.75 2.79688 3.75 6.25C3.75 9.70312 6.54688 12.5 10 12.5ZM10 1.875C12.4141 1.875 14.375 3.83594 14.375 6.25C14.375 8.66406 12.4141 10.625 10 10.625C7.58594 10.625 5.625 8.66406 5.625 6.25C5.625 3.83594 7.58594 1.875 10 1.875Z" fill="#706F82"/>
</svg>
