<svg xmlns="http://www.w3.org/2000/svg" width="48" height="48" viewBox="0 0 48 48">
    <defs>
        <linearGradient id="prefix__a" x1="15.146%" x2="85.139%" y1="10.683%" y2="100%">
            <stop offset="0%" stop-color="#770FC8"/>
            <stop offset="100%" stop-color="#A25CD9"/>
        </linearGradient>
    </defs>
    <path fill="url(#prefix__a)" fill-rule="evenodd" d="M35 40c1.656 0 3-1.344 3-3V15c0-1.656-1.344-3-3-3h-3V8.75c0-.412-.338-.75-.75-.75h-2.5c-.413 0-.75.338-.75.75V12h-8V8.75c0-.412-.338-.75-.75-.75h-2.5c-.412 0-.75.338-.75.75V12h-3c-1.656 0-3 1.344-3 3v22c0 1.656 1.344 3 3 3h22zm-.375-3h-21.25c-.206 0-.375-.169-.375-.375V18h22v18.625c0 .206-.169.375-.375.375zM19.25 26c.412 0 .75-.337.75-.75v-2.5c0-.412-.338-.75-.75-.75h-2.5c-.412 0-.75.338-.75.75v2.5c0 .413.338.75.75.75h2.5zm6 0c.412 0 .75-.337.75-.75v-2.5c0-.412-.338-.75-.75-.75h-2.5c-.413 0-.75.338-.75.75v2.5c0 .413.337.75.75.75h2.5zm6 0c.412 0 .75-.337.75-.75v-2.5c0-.412-.338-.75-.75-.75h-2.5c-.413 0-.75.338-.75.75v2.5c0 .413.337.75.75.75h2.5zm-6 6c.412 0 .75-.338.75-.75v-2.5c0-.412-.338-.75-.75-.75h-2.5c-.413 0-.75.338-.75.75v2.5c0 .412.337.75.75.75h2.5zm-6 0c.412 0 .75-.338.75-.75v-2.5c0-.412-.338-.75-.75-.75h-2.5c-.412 0-.75.338-.75.75v2.5c0 .412.338.75.75.75h2.5zm12 0c.412 0 .75-.338.75-.75v-2.5c0-.412-.338-.75-.75-.75h-2.5c-.413 0-.75.338-.75.75v2.5c0 .412.337.75.75.75h2.5z"/>
</svg>
