<svg xmlns="http://www.w3.org/2000/svg" width="25" height="25" viewBox="0 0 25 25">
    <path fill="#770FC8" fill-rule="evenodd" d="M5.748 21c.028 0 .056-.002.084-.005l3.567-.394L20.414 9.587c.781-.782.781-2.048 0-2.829l-1.172-1.172c-.39-.39-.902-.586-1.414-.586-.512 0-1.024.195-1.414.586L5.402 16.598l-.397 3.569c-.05.45.304.833.743.833zM17.97 9.91l-1.88-1.88 1.384-1.384c.128-.127.277-.146.354-.146.077 0 .226.019.353.146l1.172 1.172c.195.196.195.513 0 .708L17.97 9.909zM6.6 19.401l.234-2.116 7.227-7.226.969-.97 1.88 1.88-.97.97-7.23 7.228-2.11.234z"/>
</svg>
