<svg xmlns="http://www.w3.org/2000/svg" width="48" height="48" viewBox="0 0 48 48">
    <defs>
        <linearGradient id="prefix__a" x1="4.476%" x2="95.896%" y1="24.044%" y2="83.008%">
            <stop offset="0%" stop-color="#770FC8"/>
            <stop offset="100%" stop-color="#A25CD9"/>
        </linearGradient>
    </defs>
    <path fill="url(#prefix__a)" fill-rule="evenodd" d="M34.238 23.56l5.176-5.146c.781-.78.781-2.047 0-2.828l-5.176-5.147c-.586-.585-1.535-.585-2.121 0l-.678.678c-.597.597-.584 1.57.03 2.15L33.373 15H9.5c-.828 0-1.5.672-1.5 1.5v1c0 .828.672 1.5 1.5 1.5h23.873l-1.904 1.733c-.614.58-.627 1.553-.03 2.15l.678.678c.586.585 1.535.585 2.121 0zm-18.355 12l.678-.677c.597-.597.583-1.57-.03-2.15L14.627 31H38.5c.828 0 1.5-.672 1.5-1.5v-1c0-.829-.672-1.5-1.5-1.5H14.627l1.904-1.733c.613-.58.627-1.553.03-2.15l-.678-.678c-.586-.585-1.535-.585-2.121 0l-5.176 5.147c-.781.78-.781 2.047 0 2.828l5.176 5.147c.586.585 1.535.585 2.121 0z"/>
</svg>
