<svg xmlns="http://www.w3.org/2000/svg" width="35" height="36" viewBox="0 0 35 36">
    <path fill="#770fc8" fill-rule="evenodd" d="M32.5 35.5c1.375 0 2.5-1.133 2.5-2.523V3.023C35 1.633 33.875.5 32.5.5H2.492C1.117.5 0 1.633 0 3.023v29.954c0 1.39 1.117 2.523 2.492 2.523H32.5zM7.984 11.516c-1.664 0-3.007-1.352-3.007-3.008S6.32 5.5 7.984 5.5c1.657 0 3.008 1.352 3.008 3.008 0 1.664-1.344 3.008-3.008 3.008zM19.024 30.5h-5.188V13.797h4.976v2.281h.07c.696-1.312 2.391-2.695 4.915-2.695 5.25 0 6.226 3.46 6.226 7.96V30.5h-5.187v-8.444c-.012-1.88-.183-4.11-2.695-4.11-2.704 0-3.118 2.109-3.118 4.288V30.5zm-8.438 0H5.39V13.797h5.195V30.5z"/>
</svg>
