<svg xmlns="http://www.w3.org/2000/svg" enable-background="new 0 0 103 103" viewBox="0 0 103 103"><path fill="#f6ad3f" d="M5.1474609 97.9580078H3.5332031c-.5527344 0-1 .4472656-1 1s.4472656 1 1 1h1.6142578c.5527344 0 1-.4472656 1-1S5.7001953 97.9580078 5.1474609 97.9580078zM99.4667969 97.9580078h-2.5791016c-.5527344 0-1 .4472656-1 1s.4472656 1 1 1h2.5791016c.5527344 0 1-.4472656 1-1S100.0195313 97.9580078 99.4667969 97.9580078zM31.9487305 81.5975342c-2.6900024 0-5.25-.9500732-7.6999512-2.8599854l-1.710022 3.6398926c1.1099854 1 2.5299683 1.7900391 4.2399902 2.3601074 1.710022.5600586 3.5.8499756 5.3599854.8499756 2.9899902 0 5.3699951-.7000732 7.1400146-2.0899658 1.7700195-1.3900146 2.6500244-3.2900391 2.6500244-5.6900635 0-1.6999512-.4299927-3.1300049-1.3000488-4.2999268-.8599854-1.1500244-2.1099854-1.9500732-3.7299805-2.3900146 1.3699951-.5200195 2.4299927-1.3399658 3.1900024-2.460083.7600098-1.119873 1.1600342-2.4499512 1.1799927-3.9699707 0-2.2199707-.8099976-3.9899902-2.4099731-5.3199463-1.6199951-1.3299561-3.7800293-1.9901123-6.4899902-1.9901123-1.7800293 0-3.5100098.2900391-5.2000122.8701172-1.6900024.5799561-3.0900269 1.3599854-4.2000122 2.3399658l1.6599731 3.6400146c2.4800415-1.9100342 4.960022-2.8699951 7.4300537-2.8699951 1.3899536 0 2.4799805.3399658 3.25 1.0100098.7799683.6700439 1.1599731 1.6400146 1.1599731 2.9000244 0 2.7099609-1.7700195 4.0699463-5.3400269 4.0699463h-2.9799805v3.9799805h3.6400146c1.8300171 0 3.1900024.3299561 4.0599976.9899902.8800049.6600342 1.3200073 1.6800537 1.3200073 3.0699463 0 1.420166-.4299927 2.4801025-1.2999878 3.1800537C35.008728 81.2575684 33.6987305 81.5975342 31.9487305 81.5975342zM55.8587646 85.6274414c3.2799683 0 5.7699585-1.2099609 7.4899902-3.6398926 1.7199707-2.4200439 2.5700073-5.9300537 2.5700073-10.5300293 0-4.5600586-.8500366-8.0400391-2.5700073-10.4199219-1.7200317-2.3901367-4.210022-3.5800781-7.4899902-3.5800781-3.2700195 0-5.7700195 1.1999512-7.4800415 3.5999756-1.7199707 2.4000244-2.5799561 5.8599854-2.5799561 10.4000244 0 4.6199951.8599854 8.1400146 2.5799561 10.5500488C50.0887451 84.4174805 52.5887451 85.6274414 55.8587646 85.6274414zM51.96875 63.7775879c.8200073-1.6101074 2.1099854-2.4200439 3.8900146-2.4200439 1.7799683 0 3.0799561.8099365 3.8900146 2.4200439.8099976 1.619873 1.2199707 4.1799316 1.2199707 7.6799316 0 3.5700684-.4099731 6.1600342-1.2199707 7.8000488-.8100586 1.6398926-2.1100464 2.4599609-3.8900146 2.4599609-1.7800293 0-3.0700073-.8200684-3.8900146-2.4599609-.8099976-1.6400146-1.2199707-4.2299805-1.2199707-7.8000488C50.7487793 67.9575195 51.1587524 65.3974609 51.96875 63.7775879z"/><path fill="#f6ad3f" d="M99.508728,83.5775146c0-9.0299072-7.3399658-16.3699951-16.3699951-16.3699951
			c-0.8399658,0-1.6599731,0.0600586-2.4599609,0.1899414c-0.0013428,0.0002441-0.0026245,0.0004883-0.0039673,0.0007324V44.0671387
			c0.0001221-0.0068359,0.0039673-0.0126953,0.0039673-0.0195313v-9.4077148
			c1.0513916,0.21875,2.1395264,0.3356934,3.2548218,0.3356934c8.8037109,0,15.9667969-7.1630859,15.9667969-15.9667969
			c0-0.5527344-0.4472656-1-1-1s-1,0.4472656-1,1c0,7.7011719-6.265625,13.9667969-13.9667969,13.9667969
			s-13.9667969-6.265625-13.9667969-13.9667969s6.265625-13.9667969,13.9667969-13.9667969
			c6.3837891,0,11.9472656,4.3125,13.5292969,10.4863281c0.1376953,0.5351563,0.6835938,0.8603516,1.2167969,0.7207031
			c0.5351563-0.1367188,0.8574219-0.6816406,0.7207031-1.2167969C97.5908203,7.9726563,91.2304688,3.0419922,83.9335938,3.0419922
			c-8.8037109,0-15.9667969,7.1630859-15.9667969,15.9667969c0,3.3586426,1.0479736,6.4743652,2.826416,9.0487061h-2.694458
			v-2.9399414c0-2.7000732-2.2000122-4.9000244-4.9000244-4.9000244c-2.6999512,0-4.8999634,2.1999512-4.8999634,4.9000244
			v2.9399414h-9.1700439v-2.9399414c0-2.7000732-2.1999512-4.9000244-4.8999634-4.9000244s-4.9000244,2.1999512-4.9000244,4.9000244
			v2.9399414h-9.1699829v-2.9399414c0-2.7000732-2.1900024-4.9000244-4.9000244-4.9000244
			c-2.6999512,0-4.8999634,2.1999512-4.8999634,4.9000244v2.9399414h-6.6900024
			c-3.2399902,0-5.8800049,2.6400146-5.8800049,5.8800049v10.1030273c0,0.0012207-0.0006714,0.0021973-0.0006714,0.003418
			v34.9140625c0,0.5527344,0.4472656,1,1,1s1-0.4472656,1-1V45.0476074h68.8867188v22.7912598
			C71.8068848,69.7702637,66.758728,76.098999,66.758728,83.5775146c0,6.1695557,3.4293823,11.55896,8.4887695,14.3492432
			c-0.1488647,0.019043-0.2999878,0.03125-0.4545288,0.03125H13.6708984c-2.140625,0-3.8828125-1.7412109-3.8828125-3.8818359
			v-9.7861328c0-0.5527344-0.4472656-1-1-1s-1,0.4472656-1,1v9.7861328c0,1.4931641,0.5639648,2.8540039,1.4842529,3.8924561
			c-0.5267334,0.0289307-0.9471436,0.4554443-0.9471436,0.9893799c0,0.5527344,0.4472656,1,1,1h4.3457031
			c16.0499763,0,62.7457199,0,79.2900391,0c0.5527344,0,1-0.4472656,1-1s-0.4472656-1-1-1h-1.9931641
			c0.0003052-0.0002441,0.0006714-0.0002441,0.0009766-0.0004883C96.0487671,95.1774902,99.508728,89.7775879,99.508728,83.5775146z
			 M60.2987671,25.1175537c0-1.5999756,1.2999878-2.9000244,2.8999634-2.9000244
			c1.6000366,0,2.9000244,1.3000488,2.9000244,2.9000244v7.8800049c0,1.5899658-1.2999878,2.8898926-2.9000244,2.8898926
			c-1.5999756,0-2.8999634-1.2999268-2.8999634-2.8898926V25.1175537z M41.3287354,25.1175537
			c0-1.5999756,1.2999878-2.9000244,2.9000244-2.9000244c1.5999756,0,2.8999634,1.3000488,2.8999634,2.9000244v7.8800049
			c0,1.5899658-1.2999878,2.8898926-2.8999634,2.8898926c-1.6000366,0-2.9000244-1.2999268-2.9000244-2.8898926V25.1175537z
			 M22.3587646,25.1175537c0-1.5999756,1.3099976-2.9000244,2.8999634-2.9000244
			c1.6000366,0,2.9000244,1.3000488,2.9000244,2.9000244v7.8800049c0,1.5899658-1.2999878,2.8898926-2.9000244,2.8898926
			c-1.5899658,0-2.8999634-1.2999268-2.8999634-2.8898926V25.1175537z M13.6687622,30.0574951h6.6900024v2.9400635
			c0,2.6999512,2.2000122,4.8898926,4.8999634,4.8898926c2.710022,0,4.9000244-2.1899414,4.9000244-4.8898926v-2.9400635h9.1699829
			v2.9400635c0,2.6999512,2.2000122,4.8898926,4.9000244,4.8898926s4.8999634-2.1899414,4.8999634-4.8898926v-2.9400635h9.1700439
			v2.9400635c0,2.6999512,2.2000122,4.8898926,4.8999634,4.8898926c2.7000122,0,4.9000244-2.1899414,4.9000244-4.8898926v-2.9400635
			h4.3354492c1.7209473,1.7904053,3.8531494,3.1739502,6.2445679,4.0112305v8.9752197H9.7887573V33.9375
			C9.7887573,31.7976074,11.5287476,30.0574951,13.6687622,30.0574951z M68.758728,83.5775146
			c0-7.75354,6.2887115-14.3699951,14.3800049-14.3699951c7.9200439,0,14.3699951,6.4499512,14.3699951,14.3699951
			c0,7.9300537-6.4499512,14.3800049-14.3699951,14.3800049C75.1812286,97.9575195,68.758728,91.4839401,68.758728,83.5775146z"/><path fill="#f6ad3f" d="M83.1387329,95.2175293c6.4100342,0,11.6300049-5.2199707,11.6300049-11.6400146
			c0-6.4100342-5.2199707-11.6400146-11.6300049-11.6400146c-6.4191818,0-11.6399536,5.2305069-11.6399536,11.6400146
			C71.4987793,90.1128159,76.8426056,95.2175293,83.1387329,95.2175293z M73.4987793,83.5775146
			c0-5.3013992,4.3169098-9.6400146,9.6399536-9.6400146c5.3099976,0,9.6300049,4.3300781,9.6300049,9.6400146
			c0,5.3199463-4.3200073,9.6400146-9.6300049,9.6400146C77.8580093,93.2175293,73.4987793,88.9249115,73.4987793,83.5775146z"/><path fill="#f6ad3f" d="M83.1357422 84.5810547c.9677734 0 1.7558594.7871094 1.7558594 1.7548828s-.7871094 1.7548828-1.7548828 1.7548828-1.7548828-.7871094-1.7548828-1.7548828c0-.5527344-.4472656-1-1-1s-1 .4472656-1 1c0 1.7255859 1.1766357 3.1679688 2.7650146 3.6055908l.010376.7830811c.0078125.546875.4541016.9863281 1 .9863281.0039063 0 .0087891 0 .0136719 0 .5517578-.0078125.9931641-.4609375.9863281-1.0136719l-.0101318-.762085c1.5777588-.4445801 2.7445068-1.8812256 2.7445068-3.5992432 0-2.0703125-1.6845703-3.7548828-3.7558594-3.7548828-.96875 0-1.7568359-.7871094-1.7568359-1.7548828s.7871094-1.7548828 1.7548828-1.7548828 1.7548828.7871094 1.7548828 1.7548828c0 .5527344.4472656 1 1 1s1-.4472656 1-1c0-1.7258301-1.177124-3.1687012-2.7659912-3.605957L84.1123047 76.4375c-.0078125-.546875-.4541016-.9863281-1-.9863281-.0039063 0-.0087891 0-.0136719 0-.5517578.0078125-.9931641.4609375-.9863281 1.0136719l.0101318.7624512c-1.5772705.4448242-2.7435303 1.8813477-2.7435303 3.598877C79.3789063 82.8964844 81.0644531 84.5810547 83.1357422 84.5810547zM83.928772 7.6574707c-6.2600098 0-11.3500366 5.0900879-11.3500366 11.3500977s5.0900269 11.3499756 11.3500366 11.3499756c6.2699585 0 11.3599854-5.0899658 11.3599854-11.3499756S90.1987305 7.6574707 83.928772 7.6574707zM83.928772 28.3575439c-5.1500244 0-9.3500366-4.1900635-9.3500366-9.3499756 0-5.1600342 4.2000122-9.3500977 9.3500366-9.3500977 5.1599731 0 9.3599854 4.1900635 9.3599854 9.3500977C93.2887573 24.1674805 89.0887451 28.3575439 83.928772 28.3575439z"/><path fill="#f6ad3f" d="M83.9335938,18.0087891c-0.9277344,0-1.6826172-0.7539063-1.6826172-1.6816406s0.7539063-1.6816406,1.6816406-1.6816406
			c0.9267578,0,1.6806641,0.7539063,1.6806641,1.6816406c0,0.5527344,0.4472656,1,1,1s1-0.4472656,1-1
			c0-1.6853027-1.1445313-3.0943604-2.6920166-3.529541l-0.0101318-0.7419434c-0.0078125-0.5478516-0.4541016-0.9863281-1-0.9863281
			c-0.0039063,0-0.0087891,0-0.0136719,0c-0.5517578,0.0078125-0.9941406,0.4609375-0.9863281,1.0136719l0.0098267,0.7216797
			c-1.536377,0.442749-2.6699829,1.845459-2.6699829,3.5224609c0,2.0302734,1.6523438,3.6816406,3.6826172,3.6816406
			c0.9277344,0,1.6826172,0.7539063,1.6826172,1.6806641c0,0.9277344-0.7539063,1.6816406-1.6816406,1.6816406
			c-0.9267578,0-1.6806641-0.7539063-1.6806641-1.6816406c0-0.5527344-0.4472656-1-1-1s-1,0.4472656-1,1
			c0,1.6850586,1.144104,3.09375,2.69104,3.5292969l0.0101318,0.7431641c0.0078125,0.5478516,0.4541016,0.9863281,1,0.9863281
			c0.0039063,0,0.0087891,0,0.0136719,0c0.5517578-0.0078125,0.9941406-0.4609375,0.9863281-1.0136719l-0.0098267-0.72229
			c1.5368652-0.4425049,2.6709595-1.8453369,2.6709595-3.5228271
			C87.6162109,19.6601563,85.9638672,18.0087891,83.9335938,18.0087891z"/></svg>