<svg xmlns="http://www.w3.org/2000/svg" data-name="Layer 1" viewBox="0 0 100 125" x="0px" y="0px"><defs><style>.cls-1{stroke:#000;stroke-miterlimit:10;stroke-width:0.01px;}</style></defs><title>collections_08</title><path class="cls-1" d="M49.43,50.31H46V47.82a1.66,1.66,0,0,0-3.31,0v2.49H21.1V47.82a1.65,1.65,0,0,0-3.31,0v2.49H14.33A3.31,3.31,0,0,0,11,53.63V81.81a3.31,3.31,0,0,0,3.31,3.31h35.1a3.31,3.31,0,0,0,3.31-3.31V53.63A3.31,3.31,0,0,0,49.43,50.31ZM48.32,79.74a1.65,1.65,0,0,1-1.66,1.65H17.1a1.65,1.65,0,0,1-1.66-1.65V60.39a1.66,1.66,0,0,1,1.66-1.66H46.66a1.66,1.66,0,0,1,1.66,1.66V79.74Zm-23-15.58V66a1.66,1.66,0,0,1-1.66,1.66H21.83A1.66,1.66,0,0,1,20.17,66V64.17a1.66,1.66,0,0,1,1.66-1.66h1.86A1.66,1.66,0,0,1,25.35,64.17Zm0,9.95V76a1.66,1.66,0,0,1-1.66,1.66H21.83A1.66,1.66,0,0,1,20.17,76V74.11a1.66,1.66,0,0,1,1.66-1.66h1.86A1.66,1.66,0,0,1,25.35,74.11Zm9.13-9.95V66a1.66,1.66,0,0,1-1.67,1.66H30.94A1.65,1.65,0,0,1,29.29,66V64.17a1.65,1.65,0,0,1,1.65-1.66h1.87A1.66,1.66,0,0,1,34.48,64.17Zm0,9.95V76a1.66,1.66,0,0,1-1.67,1.66H30.94A1.65,1.65,0,0,1,29.29,76V74.11a1.65,1.65,0,0,1,1.65-1.66h1.87A1.66,1.66,0,0,1,34.48,74.11Zm9.11-9.95V66a1.65,1.65,0,0,1-1.65,1.66H40.07A1.66,1.66,0,0,1,38.41,66V64.17a1.66,1.66,0,0,1,1.66-1.66h1.87A1.65,1.65,0,0,1,43.59,64.17Zm0,9.95V76a1.65,1.65,0,0,1-1.65,1.66H40.07A1.66,1.66,0,0,1,38.41,76V74.11a1.66,1.66,0,0,1,1.66-1.66h1.87A1.65,1.65,0,0,1,43.59,74.11ZM62.47,55a11.4,11.4,0,0,0,0-1.17c-0.05-.33.09-0.43,0.42-0.52a7.09,7.09,0,0,0,4-2.18,4.87,4.87,0,0,0-.7-7.51,10.75,10.75,0,0,0-1.6-.87c-0.7-.28-1.43-0.49-2.08-0.72V36l0.21,0a3.22,3.22,0,0,0,.33.12,3.29,3.29,0,0,1,2.41,2.63A1.38,1.38,0,0,0,67.14,40a1.5,1.5,0,0,0,1.19-1.73,5.79,5.79,0,0,0-3.52-4.48c-0.75-.33-1.54-0.54-2.34-0.8V31.52a1.48,1.48,0,1,0-3,0V33a3,3,0,0,1-.35.09,17.77,17.77,0,0,0-2.72,1.15,5.07,5.07,0,0,0-2.77,4.18,4.71,4.71,0,0,0,2.84,4.85,32.37,32.37,0,0,0,3,1.22v5.87a3.36,3.36,0,0,1-3-2.7,1.43,1.43,0,0,0-1.72-1.17,1.45,1.45,0,0,0-1.17,1.73,5.36,5.36,0,0,0,2.89,4.11,30.75,30.75,0,0,0,3,1.24c0,0.38,0,.92,0,1.43A1.46,1.46,0,0,0,61,56.46,1.49,1.49,0,0,0,62.47,55Zm0-9.92a4.89,4.89,0,0,1,2.25,1.12,1.91,1.91,0,0,1,.33,2.54,4.23,4.23,0,0,1-2.58,1.68V45.06Zm-3-3.69a5.13,5.13,0,0,1-2.37-1.22,2,2,0,0,1-.14-2.6,4.19,4.19,0,0,1,2.51-1.48v5.3ZM89,43.21A28.37,28.37,0,0,1,60.64,71.55v-4A24.34,24.34,0,1,0,36.3,43.21h-4A28.34,28.34,0,0,1,89,43.21Z"/><text x="0" y="115" fill="#000000" font-size="5px" font-weight="bold" font-family="'Helvetica Neue', Helvetica, Arial-Unicode, Arial, Sans-serif">Created by Hare Krishna</text><text x="0" y="120" fill="#000000" font-size="5px" font-weight="bold" font-family="'Helvetica Neue', Helvetica, Arial-Unicode, Arial, Sans-serif">from the Noun Project</text></svg>