<svg xmlns="http://www.w3.org/2000/svg" data-name="Layer 1" viewBox="0 0 512 512"><path fill="#f6ad3f" d="M256 304.782a17.019 17.019 0 0 1 17 17 7 7 0 0 0 14 0 31.048 31.048 0 0 0-24-30.193V284.6a7 7 0 0 0-14 0v6.994a31 31 0 0 0 7 61.193 17 17 0 0 1 .174 33.991c-.059 0-.115-.009-.174-.009s-.115.007-.174.009A17.015 17.015 0 0 1 239 369.782a7 7 0 1 0-14 0 31.048 31.048 0 0 0 24 30.193v8.086a7 7 0 0 0 14 0v-8.086a31 31 0 0 0-7-61.193 17 17 0 1 1 0-34zM253.351 125.313h2.854a40.573 40.573 0 0 0 40.527-40.527V67.95a40.573 40.573 0 0 0-40.527-40.527h-2.854A40.573 40.573 0 0 0 212.824 67.95V84.785A40.573 40.573 0 0 0 253.351 125.313zM226.823 67.95A26.557 26.557 0 0 1 253.35 41.423H256.2A26.557 26.557 0 0 1 282.731 67.95V84.785A26.557 26.557 0 0 1 256.2 111.312H253.35a26.557 26.557 0 0 1-26.527-26.527zM85.6 364.965h2.854a40.573 40.573 0 0 0 40.527-40.527V307.6a40.573 40.573 0 0 0-40.527-40.527H85.6A40.573 40.573 0 0 0 45.068 307.6v16.835A40.572 40.572 0 0 0 85.6 364.965zM59.067 307.6a26.557 26.557 0 0 1 26.527-26.527h2.854A26.557 26.557 0 0 1 114.975 307.6v16.835a26.557 26.557 0 0 1-26.527 26.527H85.594a26.557 26.557 0 0 1-26.527-26.527zM421.107 364.965h2.854a40.573 40.573 0 0 0 40.527-40.527V307.6a40.573 40.573 0 0 0-40.527-40.527h-2.854A40.573 40.573 0 0 0 380.58 307.6v16.835A40.573 40.573 0 0 0 421.107 364.965zM394.58 307.6a26.557 26.557 0 0 1 26.527-26.527h2.854A26.557 26.557 0 0 1 450.488 307.6v16.835a26.557 26.557 0 0 1-26.527 26.527h-2.854a26.557 26.557 0 0 1-26.527-26.527z"/><path fill="#f6ad3f" d="M464.684,366.275h-8.826a7,7,0,0,0-6.557,4.548l-8.694,23.252-7.118-12.712a7,7,0,0,0-6.1-3.58l-8.328,0h0a7,7,0,0,0-6.215,3.78l-5.893,11.371L399.412,371a7,7,0,0,0-6.62-4.726h-9.951a43.252,43.252,0,0,0-41.474,30.864l-9.683-7.109A87.281,87.281,0,0,0,263,259.294v-14.38l70.056-.008a7,7,0,0,0,7-7V173.938a43.316,43.316,0,0,0-43.128-47.316H288.1a7,7,0,0,0-6.557,4.548l-8.694,23.252-7.118-12.712a7,7,0,0,0-6.105-3.58l-8.327,0h0a7,7,0,0,0-6.215,3.779l-5.893,11.372-7.535-21.932a7,7,0,0,0-6.62-4.726h-9.951a43.32,43.32,0,0,0-43.138,47.315v63.987a7,7,0,0,0,7,7L249,244.916V259.3a87.425,87.425,0,0,0-68.681,130.739l-9.686,7.107a43.245,43.245,0,0,0-41.464-30.866h-8.825a7,7,0,0,0-6.557,4.548l-8.694,23.253-7.119-12.712a7,7,0,0,0-6.105-3.58l-8.327,0h0a7,7,0,0,0-6.215,3.779l-5.893,11.372L63.9,371a7,7,0,0,0-6.62-4.726H47.326A43.32,43.32,0,0,0,4.188,413.591v63.986a7,7,0,0,0,7,7l154.109-.019a7,7,0,0,0,7-7V413.591c.01-.107.012-.214.021-.321l15.95-11.7a88.233,88.233,0,0,0,5.932,6.561,87.559,87.559,0,0,0,123.6,0q3.151-3.151,5.935-6.564L339.68,413.27c.009.107.012.215.021.322v63.986a7,7,0,0,0,7,7l154.108-.019a7,7,0,0,0,7-7V413.592a43.316,43.316,0,0,0-43.125-47.317ZM185.909,172.894a29.321,29.321,0,0,1,29.174-32.271h4.954l11.225,32.669a7,7,0,0,0,12.626,1.323c.074-.125.146-.252.212-.381l11.438-22.073,12.475,22.277a7,7,0,0,0,12.664-.968l12.281-32.847h3.97a29.318,29.318,0,0,1,29.164,32.271,6.959,6.959,0,0,0-.036.707v57.307l-140.109.017V173.6C185.945,173.364,185.934,173.128,185.909,172.894ZM158.334,412.546a6.959,6.959,0,0,0-.036.707V470.56l-140.109.017V413.254a6.925,6.925,0,0,0-.036-.706,29.321,29.321,0,0,1,29.174-32.272h4.954l11.225,32.67a7,7,0,0,0,12.768,1.072c.023-.043.047-.087.069-.131l11.438-22.073,12.475,22.277a7,7,0,0,0,12.664-.968L125.2,380.276h3.969a29.316,29.316,0,0,1,29.163,32.27ZM256,419.658a73.171,73.171,0,1,1,51.9-21.431A72.881,72.881,0,0,1,256,419.658Zm237.847-7.112a6.944,6.944,0,0,0-.036.707V470.56l-140.108.017V413.254a6.959,6.959,0,0,0-.036-.707,29.321,29.321,0,0,1,29.174-32.271H387.8l11.224,32.67a7,7,0,0,0,12.285,1.838,6.89,6.89,0,0,0,.554-.9L423.3,391.814l12.475,22.278a7,7,0,0,0,12.664-.968l12.281-32.847h3.97a29.313,29.313,0,0,1,29.161,32.269Z"/></svg>