<svg xmlns="http://www.w3.org/2000/svg" width="48" height="48" viewBox="0 0 48 48">
    <defs>
        <linearGradient id="prefix__a" x1="4.476%" x2="95.896%" y1="30.735%" y2="74.499%">
            <stop offset="0%" stop-color="#770FC8"/>
            <stop offset="100%" stop-color="#A25CD9"/>
        </linearGradient>
    </defs>
    <path fill="url(#prefix__a)" fill-rule="evenodd" d="M12.453 38c7.698 0 15.396-3.897 23.094-3.897 1.931 0 3.86.245 5.791.858.217.068.434.1.647.1 1.076 0 2.016-.832 2.016-1.987V13.246c-.001-.79-.453-1.538-1.179-1.842C40.398 10.387 37.972 10 35.547 10c-7.698 0-15.396 3.896-23.094 3.896-1.93 0-3.86-.245-5.79-.857-.217-.069-.435-.101-.647-.101C4.94 12.938 4 13.77 4 14.926v19.828c0 .79.452 1.538 1.177 1.842C7.602 37.613 10.028 38 12.453 38zm0-3c-.501 0-.99-.02-1.47-.059-.088-2.14-1.83-3.85-3.982-3.85V20.043c1.941 0 3.558-1.39 3.92-3.234.51.032 1.006.087 1.533.087 4.222 0 8.32-1.037 12.282-2.04C28.508 13.902 32.071 13 35.546 13c.678 0 1.327.049 1.965.12.053 1.997 1.554 3.614 3.489 3.86v11.148c-1.68.213-3.036 1.457-3.399 3.093-.675-.058-1.347-.118-2.054-.118-4.223 0-8.32 1.037-12.283 2.04C19.49 34.098 15.928 35 12.454 35zM24 30.086c2.76 0 5-2.697 5-6.026 0-3.328-2.239-6.026-5-6.026s-5 2.698-5 6.026 2.238 6.026 5 6.026z"/>
</svg>
