<svg xmlns="http://www.w3.org/2000/svg" width="24" height="24" viewBox="0 0 24 24">
    <path fill-rule="evenodd" d="M21.187 20c.133 0 .308-.084.39-.188l.313-.39c.061-.076.11-.216.11-.313 0-.132-.084-.307-.188-.39L3.125 4.109C3.049 4.05 2.909 4 2.812 4c-.132 0-.307.084-.39.188l-.312.39c-.061.076-.11.216-.11.313 0 .132.084.307.187.39l18.688 14.61c.076.06.216.109.312.109zm-1.947-5.197c.546-.584 1.287-1.636 1.653-2.347.06-.119.109-.323.109-.456s-.05-.338-.11-.456C19.198 8.237 15.843 6 12 6c-1.147 0-2.241.219-3.27.588l1.45 1.134C10.773 7.588 11.38 7.5 12 7.5c3.083 0 5.909 1.719 7.435 4.5-.31.57-.927 1.412-1.375 1.881l1.18.922zm-3.753-2.933C15.417 9.997 13.89 8.5 12 8.5c-.202 0-.527.035-.725.077l4.212 3.293zM12 18c1.147 0 2.24-.22 3.27-.588l-1.45-1.134c-.593.135-1.198.222-1.82.222-3.083 0-5.909-1.719-7.435-4.5.311-.57.928-1.412 1.376-1.88l-1.18-.923c-.545.585-1.286 1.636-1.652 2.347-.06.119-.109.323-.109.456s.049.338.11.456C4.803 15.763 8.158 18 12 18zm0-2.5c.202 0 .527-.035.725-.077L8.513 12.13c.07 1.873 1.597 3.37 3.487 3.37z"/>
</svg>
