<svg xmlns="http://www.w3.org/2000/svg" width="24" height="24" viewBox="0 0 24 24">
    <path fill="#1D1D2B" fill-rule="evenodd" d="M12 18c3.841 0 7.197-2.239 8.891-5.544.06-.119.109-.323.109-.456s-.049-.338-.109-.456C19.196 8.237 15.841 6 12 6c-3.842 0-7.198 2.239-8.891 5.544-.06.119-.109.323-.109.456s.049.338.109.456C4.803 15.763 8.159 18 11.999 18zm0-1.5c-3.083 0-5.91-1.719-7.435-4.5C6.09 9.219 8.917 7.5 12 7.5c3.083 0 5.909 1.719 7.435 4.5-1.526 2.781-4.352 4.5-7.435 4.5zm.01-1.018c1.927 0 3.491-1.564 3.491-3.491S13.937 8.5 12.011 8.5H12c-.276.004-.713.074-.976.156.123.217.224.595.226.844 0 .966-.784 1.75-1.75 1.75-.25-.002-.627-.103-.844-.226-.075.261-.136.695-.136.967 0 1.927 1.563 3.49 3.49 3.49z"/>
</svg>
