<svg xmlns="http://www.w3.org/2000/svg" xmlns:xlink="http://www.w3.org/1999/xlink" width="32" height="33" viewBox="0 0 32 33">
    <defs>
        <linearGradient id="prefix__a" x1="4.476%" x2="95.804%" y1="10.683%" y2="99.91%">
            <stop offset="0%" stop-color="#0707B7"/>
            <stop offset="100%" stop-color="#4E07DA"/>
        </linearGradient>
        <circle id="prefix__b" cx="15" cy="15" r="15"/>
    </defs>
    <g fill="none" fill-rule="evenodd">
        <g transform="translate(0 1) translate(1 1)">
            <use fill="url(#prefix__a)" xlink:href="#prefix__b"/>
            <use fill="#FFF" fill-opacity=".2" xlink:href="#prefix__b"/>
        </g>
        <path fill="#FFF" d="M16 16c2.21 0 4-1.79 4-4s-1.79-4-4-4-4 1.79-4 4 1.79 4 4 4zm5.238 8c.789 0 1.429-.64 1.429-1.429v-1.238c0-2.208-1.792-4-4-4h-.497c-.661.304-1.396.477-2.17.477s-1.506-.173-2.17-.477h-.497c-2.208 0-4 1.792-4 4v1.238c0 .79.64 1.429 1.429 1.429h10.476z" transform="translate(0 1)"/>
    </g>
</svg>
