<svg xmlns="http://www.w3.org/2000/svg" width="24" height="24" viewBox="0 0 24 24">
    <path fill="#770FC8" fill-rule="evenodd" d="M9.625 18c.206 0 .375-.169.375-.375v-1.25c0-.206-.169-.375-.375-.375H7c-.553 0-1-.447-1-1V9c0-.553.447-1 1-1h2.625c.206 0 .375-.169.375-.375v-1.25C10 6.169 9.831 6 9.625 6H7C5.344 6 4 7.344 4 9v6c0 1.656 1.344 3 3 3h2.625zm5.403-.756l4.75-4.713c.297-.293.297-.772 0-1.065l-4.747-4.707c-.294-.29-.765-.29-1.06.004l-.684.684c-.303.3-.29.794.022 1.081l2.425 2.222H9.75c-.416 0-.75.334-.75.75v1c0 .416.334.75.75.75h5.984l-2.425 2.222c-.315.287-.325.781-.025 1.084l.685.685c.29.29.765.293 1.06.003z"/>
</svg>
