<svg xmlns="http://www.w3.org/2000/svg" width="24" height="24" viewBox="0 0 24 24">
    <path fill="#770FC8" fill-rule="evenodd" d="M12 20c4.418 0 8-3.582 8-8s-3.582-8-8-8-8 3.582-8 8 3.582 8 8 8zm3.666-10c-.404-.683-.982-1.261-1.666-1.666L16.334 6c.528.392 1.274 1.138 1.666 1.666L15.666 10zm-7.332 0L6 7.666C6.392 7.138 7.138 6.392 7.666 6L10 8.334c-.683.404-1.261.982-1.666 1.666zM12 15c-1.657 0-3-1.343-3-3s1.343-3 3-3 3 1.343 3 3-1.343 3-3 3zm-4.334 3c-.528-.392-1.274-1.138-1.666-1.666L8.334 14c.404.683.982 1.261 1.666 1.666L7.666 18zm8.668 0L14 15.666c.683-.404 1.261-.982 1.666-1.666L18 16.334c-.392.528-1.138 1.274-1.666 1.666z"/>
</svg>
