<svg width="68" height="51" viewBox="0 0 68 51" fill="none" xmlns="http://www.w3.org/2000/svg">
<path d="M13.5 50.756V45.42C10.5613 45.1493 8.08667 44.4727 6.076 43.39C4.06533 42.3073 2.32533 40.954 0.856 39.33L6.076 34.574C7.19733 35.734 8.43467 36.7007 9.788 37.474C11.1413 38.2087 12.63 38.692 14.254 38.924V28.484C9.88467 27.5947 6.75267 26.2027 4.858 24.308C2.96333 22.4133 2.016 20.0547 2.016 17.232C2.016 14.1773 2.98267 11.6833 4.916 9.75C6.888 7.81667 9.74933 6.63733 13.5 6.212V0.759998H20.112V6.212C22.432 6.48266 24.462 7.06267 26.202 7.952C27.942 8.80267 29.45 9.96267 30.726 11.432L25.448 16.188C24.752 15.4147 23.9207 14.7187 22.954 14.1C21.9873 13.4813 20.808 13.0173 19.416 12.708V22.336C23.5147 23.264 26.5307 24.598 28.464 26.338C30.436 28.078 31.422 30.4367 31.422 33.414C31.422 36.2753 30.494 38.7887 28.638 40.954C26.8207 43.1193 23.9787 44.5307 20.112 45.188V50.756H13.5ZM10.02 17C10.02 18.1213 10.3487 18.9913 11.006 19.61C11.702 20.2287 12.7847 20.7507 14.254 21.176V12.592C12.7847 12.9013 11.702 13.4427 11.006 14.216C10.3487 14.9507 10.02 15.8787 10.02 17ZM23.418 34.052C23.418 33.2013 23.1667 32.3893 22.664 31.616C22.1613 30.804 21.0787 30.1467 19.416 29.644V38.808C20.7693 38.4213 21.7747 37.822 22.432 37.01C23.0893 36.1593 23.418 35.1733 23.418 34.052ZM39.286 46V38.982H50.19V11.838H49.668L41.432 22.626L35.864 18.276L45.55 5.516H58.89V38.982H67.474V46H39.286Z" fill="#191927"/>
</svg>
