<svg width="72" height="72" viewBox="0 0 72 72" fill="none" xmlns="http://www.w3.org/2000/svg">
<g clip-path="url(#clip0)">
<path d="M5.452 59V51.982H16.356V24.838H15.834L7.598 35.626L2.03 31.276L11.716 18.516H25.056V51.982H33.64V59H5.452ZM49.2773 63.756V58.42C46.3387 58.1493 43.864 57.4727 41.8533 56.39C39.8427 55.3073 38.1027 53.954 36.6333 52.33L41.8533 47.574C42.9747 48.734 44.212 49.7007 45.5653 50.474C46.9187 51.2087 48.4073 51.692 50.0313 51.924V41.484C45.662 40.5947 42.53 39.2027 40.6353 37.308C38.7407 35.4133 37.7933 33.0547 37.7933 30.232C37.7933 27.1773 38.76 24.6833 40.6933 22.75C42.6653 20.8167 45.5267 19.6373 49.2773 19.212V13.76H55.8893V19.212C58.2093 19.4827 60.2393 20.0627 61.9793 20.952C63.7193 21.8027 65.2273 22.9627 66.5033 24.432L61.2253 29.188C60.5293 28.4147 59.698 27.7187 58.7313 27.1C57.7647 26.4813 56.5853 26.0173 55.1933 25.708V35.336C59.292 36.264 62.308 37.598 64.2413 39.338C66.2133 41.078 67.1993 43.4367 67.1993 46.414C67.1993 49.2753 66.2713 51.7887 64.4153 53.954C62.598 56.1193 59.756 57.5307 55.8893 58.188V63.756H49.2773ZM45.7973 30C45.7973 31.1213 46.126 31.9913 46.7833 32.61C47.4793 33.2287 48.562 33.7507 50.0313 34.176V25.592C48.562 25.9013 47.4793 26.4427 46.7833 27.216C46.126 27.9507 45.7973 28.8787 45.7973 30ZM59.1953 47.052C59.1953 46.2013 58.944 45.3893 58.4413 44.616C57.9387 43.804 56.856 43.1467 55.1933 42.644V51.808C56.5467 51.4213 57.552 50.822 58.2093 50.01C58.8667 49.1593 59.1953 48.1733 59.1953 47.052Z" fill="#191927"/>
</g>
<defs>
<clipPath id="clip0">
<rect width="72" height="72" fill="white"/>
</clipPath>
</defs>
</svg>
