<svg width="1152" height="535" viewBox="0 0 1152 535" fill="none" xmlns="http://www.w3.org/2000/svg">
<path opacity="0.220843" fill-rule="evenodd" clip-rule="evenodd" d="M0 535V360.388L3.49848 357.389L7.99653 358.888L11.9948 357.389L15.9931 361.887H21.4907L34.9848 409.872L38.4833 358.888L47.9792 371.384L52.4772 358.888L56.9753 378.382L65.4716 343.393L70.4694 353.39L74.4677 340.394L78.9657 345.892L88.4616 331.897L96.4581 311.903H100.456L105.454 317.401L109.952 311.903L113.951 317.401L118.948 309.404L122.947 312.902L127.445 306.405L131.943 304.905L136.441 317.401L140.939 315.902L144.937 328.898L149.435 318.901L153.933 315.902L157.931 299.407L162.929 296.408L167.927 306.405L176.423 283.412L179.922 258.419L184.92 272.415L189.418 265.917L193.916 276.914L197.914 278.913L206.91 267.917H211.408L215.407 285.411L220.404 272.415L224.403 278.913L229.4 283.412L233.898 280.413L241.895 288.91L246.893 280.413L251.391 288.91L255.889 267.917L260.387 258.419L264.885 260.919L269.383 246.423L273.381 260.919H277.38L282.377 274.414L286.376 280.413L291.374 296.408L295.372 286.911L300.37 294.908L304.368 308.904L308.866 302.906L313.364 312.403H317.862L321.86 299.407L330.856 291.909L335.854 301.406L339.853 302.906L344.85 312.403L357.345 348.891L361.843 346.392L366.341 334.896L370.839 346.392L376.337 332.896L379.335 316.401L388.331 326.898L393.329 324.399L396.828 348.891L401.826 356.889L407.323 346.392L409.822 309.404L414.32 308.904L418.818 306.405L426.815 312.403L433.312 304.905L437.31 306.405L441.308 304.905L445.807 312.902L449.805 288.91L454.303 272.415L459.8 283.412L463.299 255.42L468.297 252.921L471.795 237.426L480.791 246.423L486.289 240.425L490.287 274.414L494.285 266.417L498.284 263.418L503.781 264.917L512.278 283.412L521.274 266.417L525.272 240.425L530.27 260.919L534.268 249.922H539.266L543.264 255.42L547.762 234.427L552.26 237.426L556.758 249.922L565.754 255.42L574.251 266.417L578.249 252.921L582.747 262.418L587.245 263.418L592.243 269.916L596.241 283.412H601.239L604.738 274.414L609.236 268.416L613.734 275.414L618.232 271.415L623.23 286.411L626.728 275.414L632.226 272.915L635.724 255.42L644.72 268.416L649.218 263.418L654.716 269.916L662.712 301.406L666.711 283.412L671.209 288.91L675.707 286.411L680.205 292.409L684.703 303.405L689.201 293.409L694.199 295.408L697.697 307.404L706.693 283.412L712.191 291.909L715.19 275.414L720.187 268.416L728.184 275.414L733.182 284.911L741.678 288.91L750.674 249.422L755.172 264.418L759.67 257.42L764.668 263.418L768.666 276.414L773.164 267.917L777.662 270.916H780.161L786.659 264.418L790.657 245.923L794.655 199.938L799.153 186.942L803.651 184.443L808.149 171.946L812.647 196.939H816.646L821.144 202.437L827.141 190.441L831.139 160.95L834.638 118.463L839.136 132.959L844.134 134.958L847.632 84.9735L852.63 81.4746H857.128L861.126 154.952L866.124 160.95L870.622 188.441L875.12 163.449L878.619 102.968L883.117 97.4696L887.115 88.4724L892.113 63.9801L896.611 104.467L905.607 92.971L909.605 112.965L918.601 108.466L923.599 126.461L927.597 186.942L940.592 92.971L945.09 114.464H949.088L954.086 92.971L958.584 105.967L962.582 83.474H967.58L972.76 91.4715L976.576 88.4724L981.074 107.467L985.572 108.466L990.07 116.964L993.569 130.959L998.567 132.459L1003.56 111.965L1007.06 89.4721L1012.06 92.971L1016.56 100.969L1020.06 83.474L1025.06 71.9776L1029.05 81.4746L1034.05 91.4715L1038.05 38.488L1042.55 17.9944L1047.55 29.4908L1051.54 0L1055.54 35.9888L1065.04 40.4874L1069.54 55.9826L1073.53 83.474L1077.53 59.9813L1083.53 54.9829L1091.03 45.4858L1095.52 48.9847L1100.52 46.9854L1105.52 59.9813L1109.02 83.474L1113.02 88.9723L1117.52 89.972L1122.51 97.4696L1127.01 92.971L1131.51 100.969L1140.51 127.46L1144.5 146.954L1149 118.963H1151.5V535" fill="url(#paint0_linear)"/>
<path d="M0 360.388L3.25565 357.132C3.40194 356.986 3.62324 356.944 3.81231 357.028L7.79344 358.798C7.92273 358.856 8.07032 358.856 8.19962 358.798L12.137 357.048C12.3471 356.955 12.5937 357.016 12.7348 357.198L15.8429 361.194C15.9377 361.316 16.0833 361.388 16.2376 361.388H21.6029C21.831 361.388 22.0302 361.542 22.0871 361.763L34.2072 408.851C34.3489 409.401 35.1529 409.326 35.1903 408.759L38.39 360.301C38.4211 359.83 39.0265 359.66 39.2979 360.046L47.3844 371.539C47.625 371.881 48.154 371.794 48.2728 371.393L51.4379 360.71C51.5839 360.217 52.289 360.238 52.4045 360.739L56.018 376.4C56.1355 376.909 56.8571 376.919 56.989 376.413L65.1245 345.224C65.2424 344.772 65.8603 344.714 66.0602 345.136L69.4015 352.191C69.599 352.607 70.2075 352.557 70.3342 352.114L73.6709 340.434C73.7879 340.024 74.3313 339.94 74.5677 340.294L78.5274 346.235C78.731 346.54 79.1834 346.529 79.3722 346.214L87.9428 331.928C87.9555 331.907 87.9665 331.885 87.976 331.863L96.3122 311.755C96.3984 311.547 96.6128 311.422 96.8361 311.45L100.235 311.875C100.376 311.893 100.503 311.97 100.584 312.087L104.565 317.838C104.757 318.116 105.166 318.127 105.372 317.858L109.568 312.403C109.764 312.147 110.147 312.141 110.351 312.391L113.936 316.773C114.172 317.061 114.629 317 114.78 316.659L118.136 309.108C118.283 308.777 118.722 308.708 118.964 308.977L122.509 312.916C122.729 313.161 123.122 313.129 123.301 312.852L127.364 306.53C127.417 306.448 127.492 306.384 127.581 306.344L131.422 304.637C131.698 304.514 132.019 304.662 132.105 304.952L135.785 317.375C135.869 317.657 136.177 317.807 136.45 317.697L140.435 316.103C140.706 315.995 141.012 316.141 141.098 316.421L144.51 327.508C144.649 327.963 145.285 327.983 145.455 327.539L148.86 318.598C148.908 318.472 149.005 318.371 149.128 318.317L154.444 316.004C154.591 315.94 154.699 315.808 154.733 315.651L158.381 298.642C158.413 298.494 158.51 298.368 158.646 298.3L161.95 296.647C162.209 296.518 162.524 296.635 162.636 296.902L166.923 307.194C167.1 307.618 167.707 307.599 167.857 307.165L175.911 283.947C175.92 283.923 175.926 283.899 175.93 283.875L180.066 261.816C180.161 261.309 180.869 261.26 181.032 261.75L184.563 272.344C184.7 272.756 185.26 272.809 185.473 272.431L188.901 266.337C189.107 265.969 189.648 266.007 189.802 266.4L193.819 276.666C193.879 276.821 194.013 276.936 194.176 276.972L198.104 277.845C198.293 277.887 198.49 277.816 198.608 277.662L206.76 267.111C206.855 266.989 207.001 266.917 207.156 266.917H210.52C210.749 266.917 210.948 267.072 211.005 267.293L215.468 284.7C215.593 285.189 216.28 285.206 216.43 284.724L220.036 273.103C220.169 272.673 220.759 272.625 220.96 273.028L224.353 279.815C224.386 279.879 224.432 279.936 224.488 279.982L229.115 283.683C229.285 283.819 229.523 283.83 229.705 283.709L233.444 281.216C233.688 281.053 234.02 281.135 234.16 281.392L236.822 286.273C236.871 286.363 236.946 286.435 237.037 286.481L242.417 289.171C242.676 289.301 242.99 289.184 243.102 288.918L246.45 280.966C246.619 280.564 247.185 280.556 247.366 280.953L251.194 289.377C251.4 289.83 252.069 289.737 252.144 289.246L255.378 267.99C255.385 267.941 255.4 267.894 255.421 267.85L260.101 258.021C260.244 257.72 260.636 257.641 260.884 257.862L264.273 260.875C264.553 261.123 264.996 260.988 265.09 260.626L268.424 247.705C268.551 247.211 269.249 247.202 269.389 247.692L272.806 259.656C272.853 259.82 272.98 259.949 273.144 259.998L277.642 261.347C277.792 261.392 277.912 261.505 277.966 261.651L282.361 273.372C282.372 273.401 282.385 273.428 282.401 273.454L286.842 280.857C286.864 280.894 286.882 280.934 286.894 280.975L290.969 295.013C291.101 295.469 291.736 295.501 291.913 295.059L294.958 287.445C295.118 287.044 295.677 287.021 295.87 287.407L300.349 296.367C300.363 296.394 300.374 296.422 300.382 296.451L303.617 307.542C303.726 307.918 304.206 308.028 304.468 307.737L307.886 303.939C308.119 303.68 308.538 303.733 308.7 304.041L313.223 312.636C313.31 312.8 313.48 312.903 313.666 312.903H316.519C316.726 312.903 316.911 312.775 316.986 312.582L321.822 300.006C321.847 299.94 321.886 299.881 321.935 299.832L330.31 291.456C330.567 291.199 331.002 291.292 331.131 291.631L334.732 301.084C334.806 301.278 334.992 301.406 335.199 301.406H339.523C339.723 301.406 339.904 301.525 339.982 301.709L344.351 311.903L348.849 325.899L357.096 348.703C357.216 349.034 357.631 349.141 357.896 348.909L361.259 345.966C361.314 345.918 361.358 345.857 361.388 345.789L365.831 335.57C366.012 335.152 366.612 335.175 366.761 335.605L369.94 344.745C370.087 345.167 370.671 345.199 370.863 344.796L375.809 334.455C375.827 334.416 375.841 334.374 375.849 334.332L379.102 317.135C379.186 316.691 379.77 316.577 380.014 316.957L383.777 322.812C383.814 322.87 383.863 322.919 383.92 322.957L388.136 325.768C388.26 325.851 388.414 325.874 388.557 325.831L392.776 324.565C393.068 324.478 393.369 324.669 393.414 324.97L396.816 347.813C396.824 347.865 396.84 347.916 396.863 347.963L401.313 356.863C401.508 357.253 402.075 357.224 402.228 356.815L406.301 345.954C406.316 345.913 406.326 345.87 406.33 345.827L409.782 310.319C409.805 310.078 409.997 309.889 410.238 309.869L415.691 309.414C415.775 309.407 415.856 309.379 415.927 309.332L418.508 307.612C418.692 307.489 418.935 307.502 419.105 307.643L421.779 309.872C421.804 309.893 421.831 309.911 421.86 309.927L426.901 312.677C427.133 312.804 427.424 312.727 427.564 312.503L432.082 305.273C432.214 305.062 432.482 304.98 432.709 305.082L436.568 306.797C436.719 306.864 436.895 306.852 437.036 306.764L440.391 304.666C440.623 304.521 440.928 304.589 441.076 304.819L445.599 311.809C445.847 312.194 446.44 312.069 446.512 311.616L450.305 287.91L454.38 273.419C454.512 272.951 455.167 272.927 455.332 273.385L458.62 282.519C458.796 283.01 459.511 282.937 459.585 282.421L463.262 256.68C463.285 256.517 463.386 256.376 463.533 256.303L468.091 254.024C468.222 253.959 468.317 253.84 468.353 253.698L472.095 238.727C472.186 238.363 472.631 238.225 472.912 238.475L480.885 245.562C481.104 245.757 481.442 245.723 481.617 245.489L485.032 240.936C485.303 240.573 485.879 240.73 485.929 241.18L489.578 274.029C489.635 274.54 490.332 274.643 490.534 274.171L494.224 265.561C494.264 265.468 494.332 265.388 494.418 265.334L498.065 263.055C498.202 262.969 498.373 262.955 498.522 263.018L504.092 265.339C504.213 265.389 504.31 265.485 504.361 265.606L511.844 283.381C512.011 283.779 512.571 283.791 512.756 283.401L521.243 265.483C521.263 265.439 521.278 265.393 521.285 265.346L524.874 242.466C524.959 241.923 525.73 241.895 525.854 242.43L529.878 259.735C529.992 260.223 530.673 260.259 530.838 259.786L534.151 250.258C534.221 250.057 534.411 249.922 534.624 249.922H538.504C538.668 249.922 538.822 250.003 538.915 250.138L542.594 255.452C542.845 255.815 543.409 255.698 543.495 255.265L547.591 234.782C547.667 234.403 548.125 234.25 548.414 234.506L552.158 237.835C552.225 237.895 552.275 237.971 552.302 238.056L556.187 250.198C556.232 250.34 556.339 250.454 556.477 250.51L561.169 252.386C561.227 252.41 561.28 252.443 561.325 252.486L569.223 259.891C569.243 259.91 569.261 259.93 569.278 259.951L573.62 265.597C573.875 265.929 574.4 265.819 574.502 265.414L577.421 253.733C577.534 253.283 578.146 253.215 578.354 253.631L582.159 261.243C582.216 261.356 582.313 261.443 582.431 261.488L586.125 262.873C586.204 262.903 586.274 262.952 586.329 263.016L592.171 269.832C592.218 269.887 592.253 269.952 592.273 270.023L595.639 282.047C595.7 282.263 595.896 282.412 596.121 282.412H600.444C600.626 282.412 600.794 282.313 600.882 282.154L608.325 268.662C608.509 268.328 608.984 268.315 609.187 268.638L613.368 275.328C613.548 275.617 613.958 275.645 614.176 275.384L618.09 270.686C618.354 270.369 618.866 270.49 618.961 270.891L622.346 285.279C622.46 285.763 623.133 285.802 623.302 285.335L626.645 276.141C626.698 275.998 626.812 275.886 626.957 275.838L630.966 274.501C631.128 274.447 631.251 274.314 631.293 274.148L635.476 257.413C635.577 257.009 636.098 256.898 636.355 257.226L644.353 267.448C644.545 267.692 644.911 267.705 645.119 267.474L648.882 263.292C649.067 263.086 649.385 263.07 649.59 263.256L654.598 267.81C654.675 267.879 654.728 267.971 654.75 268.072L661.762 299.861C661.875 300.375 662.603 300.388 662.734 299.878L666.446 285.44C666.552 285.03 667.086 284.928 667.335 285.27L670.382 289.461C670.557 289.701 670.901 289.737 671.121 289.539L675.264 285.81C675.495 285.602 675.858 285.653 676.022 285.916L680.68 293.369C680.696 293.395 680.71 293.423 680.722 293.453L683.817 301.413C683.971 301.808 684.515 301.845 684.72 301.475L688.999 293.772C689.116 293.561 689.366 293.464 689.595 293.54L693.449 294.825C693.605 294.877 693.726 295.003 693.771 295.162L697.258 307.365C697.392 307.836 698.054 307.853 698.212 307.389L706.319 283.514C706.46 283.098 707.031 283.053 707.235 283.442L711.005 290.605C711.227 291.028 711.859 290.928 711.94 290.457L714.669 274.537C714.683 274.457 714.716 274.381 714.765 274.316L719.36 268.342C719.537 268.112 719.872 268.081 720.089 268.273L728.616 275.854C728.661 275.894 728.698 275.941 728.726 275.994L733.14 284.332C733.167 284.385 733.205 284.432 733.249 284.472L737.538 288.284C737.629 288.365 737.747 288.41 737.87 288.41H741.283C741.515 288.41 741.716 288.251 741.769 288.026L750.678 250.511C750.8 249.996 751.534 249.999 751.652 250.515L754.851 264.51C754.956 264.973 755.587 265.042 755.79 264.613L759.338 257.122C759.494 256.793 759.937 256.735 760.172 257.013L765.085 262.82C765.139 262.884 765.177 262.962 765.193 263.045L767.881 276.484C767.974 276.951 768.605 277.036 768.818 276.61L772.928 268.389C773.056 268.133 773.374 268.037 773.623 268.179L776.548 269.85C776.623 269.893 776.709 269.916 776.796 269.916H781.403C781.565 269.916 781.716 269.838 781.81 269.707L786.599 263.001C786.638 262.946 786.666 262.884 786.681 262.819L790.657 244.924L794.651 202.484C794.654 202.453 794.659 202.422 794.668 202.392L799.096 187.14C799.133 187.013 799.218 186.906 799.333 186.842L803.496 184.529C803.596 184.473 803.674 184.384 803.717 184.278L807.961 173.666C808.151 173.192 808.845 173.273 808.92 173.778L812.584 198.511C812.62 198.757 812.831 198.938 813.079 198.938H816.974C817.085 198.938 817.193 198.975 817.281 199.044L821.151 202.054C821.404 202.251 821.773 202.163 821.91 201.874L826.113 193C826.132 192.96 826.145 192.918 826.153 192.875L831.139 165.449L834.433 121.679C834.475 121.125 835.254 121.042 835.411 121.574L838.583 132.28C838.617 132.395 838.692 132.495 838.794 132.559L843.424 135.506C843.744 135.71 844.165 135.497 844.191 135.119L847.616 85.212C847.626 85.0613 847.704 84.9233 847.828 84.8367L852.501 81.5652C852.585 81.5063 852.685 81.4748 852.788 81.4748H857.151C857.418 81.4748 857.638 81.6845 857.65 81.9511L861.118 155.274C861.123 155.389 861.168 155.499 861.246 155.584L865.524 160.339C865.589 160.412 865.632 160.502 865.647 160.598L869.65 186.844C869.736 187.406 870.544 187.411 870.637 186.85L874.62 162.949L878.108 103.644C878.115 103.53 878.161 103.422 878.238 103.337L883.06 98.0318C883.098 97.9906 883.128 97.9435 883.15 97.8924L887.593 87.5235C887.607 87.4899 887.618 87.4547 887.625 87.4187L891.502 66.7368C891.608 66.173 892.425 66.2021 892.49 66.7719L895.611 93.9709L896.488 103.181C896.532 103.636 897.112 103.799 897.386 103.434L904.936 93.3661C905.195 93.0203 905.741 93.1442 905.826 93.568L909.474 111.807C909.539 112.135 909.902 112.308 910.198 112.151L917.556 108.255C917.837 108.106 918.184 108.254 918.271 108.56L923.085 125.412C923.095 125.444 923.101 125.478 923.103 125.512L927.254 182.253C927.298 182.851 928.165 182.879 928.248 182.286L940.225 96.5982C940.301 96.0507 941.078 96.0139 941.206 96.5516L945.498 114.58C945.552 114.805 945.753 114.964 945.985 114.964H948.693C948.925 114.964 949.126 114.805 949.18 114.58L953.73 95.4675C953.842 94.9964 954.491 94.9439 954.678 95.391L958.401 104.328C958.595 104.794 959.279 104.712 959.357 104.213L962.516 83.8973C962.554 83.6538 962.764 83.4741 963.01 83.4741H967.255C967.453 83.4741 967.632 83.5905 967.712 83.7711L971.283 91.806C971.425 92.1267 971.845 92.2046 972.093 91.9565L975.912 88.1374C976.195 87.8542 976.679 88.0021 976.756 88.3952L980.496 107.562C980.541 107.797 980.747 107.967 980.986 107.967H984.315C984.477 107.967 984.628 108.045 984.722 108.176L989.515 114.887C989.552 114.938 989.578 114.996 989.593 115.056L993.5 130.683C993.543 130.855 993.672 130.99 993.841 131.041L998.069 132.309C998.34 132.391 998.626 132.23 998.696 131.955L1002.56 116.964L1006.92 89.8393C1006.99 89.4567 1007.44 89.2864 1007.74 89.5346L1012.96 93.8862C1013.03 93.9417 1013.08 94.0136 1013.11 94.0947L1015.49 100.449C1015.66 100.91 1016.33 100.87 1016.44 100.392L1021.06 81.4748L1024.61 71.6951C1024.77 71.2654 1025.37 71.2535 1025.55 71.6767L1033.24 90.4805C1033.44 90.9705 1034.16 90.8536 1034.2 90.3254L1037.55 41.4872L1042.19 19.669C1042.3 19.1801 1042.97 19.1295 1043.15 19.5975L1046.37 28.1951C1046.55 28.6775 1047.26 28.6042 1047.33 28.095L1050.97 4.25154C1051.06 3.67363 1051.9 3.6907 1051.96 4.27172L1055.51 36.1971C1055.53 36.3772 1055.65 36.5324 1055.81 36.6027L1064.81 40.3913C1064.95 40.4519 1065.06 40.5764 1065.1 40.7276L1069.54 57.9821L1073.08 81.9254C1073.17 82.4865 1073.97 82.4976 1074.07 81.939L1078 59.6712C1078.02 59.5492 1078.09 59.4395 1078.18 59.3634L1082.46 56.0383C1082.51 56.0015 1082.55 55.9566 1082.58 55.9056L1086.49 49.5475C1086.52 49.5059 1086.55 49.4683 1086.58 49.4358L1090.69 45.7813C1090.88 45.6129 1091.17 45.6129 1091.36 45.7813L1095.26 49.2491C1095.42 49.3902 1095.65 49.4157 1095.83 49.3125L1099.53 47.2613C1099.79 47.115 1100.12 47.233 1100.23 47.5126L1105 59.4297C1105.01 59.4642 1105.02 59.5001 1105.03 59.5368L1108.5 81.3553C1108.51 81.4338 1108.54 81.5082 1108.59 81.5724L1113.92 88.8344C1113.98 88.9239 1114.07 88.989 1114.18 89.0195L1117.33 89.9179C1117.45 89.9527 1117.55 90.0326 1117.62 90.1414L1121.68 96.9206C1121.85 97.1995 1122.24 97.2469 1122.47 97.0169L1126.51 92.9731C1126.75 92.7286 1127.17 92.8001 1127.31 93.1126L1131.49 101.934C1131.5 101.957 1131.51 101.98 1131.52 102.005L1136.01 116.964L1140.48 127.911C1140.5 127.944 1140.51 127.978 1140.51 128.012L1143.48 144.56C1143.58 145.114 1144.38 145.107 1144.47 144.551L1148.43 119.884C1148.47 119.641 1148.68 119.463 1148.93 119.463H1152" stroke="#07D451" stroke-width="2"/>
<defs>
<linearGradient id="paint0_linear" x1="57.6069" y1="35.9862" x2="57.6069" y2="535" gradientUnits="userSpaceOnUse">
<stop stop-color="#07D451"/>
<stop offset="1" stop-color="#D8D8D8" stop-opacity="0.01"/>
</linearGradient>
</defs>
</svg>
