<svg width="72" height="72" viewBox="0 0 72 72" fill="none" xmlns="http://www.w3.org/2000/svg">
<path d="M13.2 12C11.628 12 11.616 14.424 13.2 14.4H66C66.6864 14.4 67.2 14.9136 67.2 15.6V46.8C67.2 48.384 69.6 48.384 69.6 46.8V15.6C69.6 13.6272 67.9728 12 66 12H13.2ZM8.4 16.8C6.8304 16.8 6.8304 19.2 8.4 19.2H61.2C61.8864 19.2 62.4 19.7136 62.4 20.4V51.6C62.4 53.196 64.824 53.184 64.8 51.6V20.4C64.8 18.4272 63.1728 16.8 61.2 16.8H8.4ZM3.6 21.6C1.6272 21.6 0 23.2272 0 25.2V54C0 55.9728 1.6272 57.6 3.6 57.6H56.4C58.3728 57.6 60 55.9728 60 54V25.2C60 23.2272 58.3728 21.6 56.4 21.6H3.6ZM3.6 24H56.4C57.0864 24 57.6 24.5136 57.6 25.2V54C57.6 54.6864 57.0864 55.2 56.4 55.2H3.6C2.9136 55.2 2.4 54.6864 2.4 54V25.2C2.4 24.5136 2.9136 24 3.6 24ZM6 26.4C5.3376 26.4 4.8 26.9376 4.8 27.6V32.4C4.8 34.0128 7.2 33.9744 7.2 32.4V28.8H10.8C12.4128 28.8 12.3744 26.4 10.8 26.4H6ZM30 26.4C22.7232 26.4 16.8 32.3232 16.8 39.6C16.8 46.8768 22.7232 52.8 30 52.8C37.2768 52.8 43.2 46.8768 43.2 39.6C43.2 32.3232 37.2768 26.4 30 26.4ZM49.2 26.4C47.6256 26.4 47.5872 28.8 49.2 28.8H52.8V32.4C52.8 33.9744 55.2 34.0128 55.2 32.4V27.6C55.2 26.9376 54.6624 26.4 54 26.4H49.2ZM30 28.8C35.976 28.8 40.8 33.624 40.8 39.6C40.8 45.576 35.976 50.4 30 50.4C24.024 50.4 19.2 45.576 19.2 39.6C19.2 33.624 24.024 28.8 30 28.8ZM30 31.2C29.3352 31.2 28.8 31.7352 28.8 32.4V33.8256C27.4128 34.3296 26.4 35.6496 26.4 37.2C26.4 39.168 28.032 40.8 30 40.8C30.672 40.8 31.2 41.3088 31.2 42C31.2 42.6912 30.672 43.2 30 43.2H27.6C26.7888 43.188 26.4 43.7952 26.4 44.4C26.4 45.0048 26.7888 45.612 27.6 45.6H28.8V46.8C28.8 47.4648 29.3352 48 30 48C30.6648 48 31.2 47.4648 31.2 46.8V45.3744C32.5872 44.8704 33.6 43.5504 33.6 42C33.6 40.032 31.968 38.4 30 38.4C29.328 38.4 28.8 37.8912 28.8 37.2C28.8 36.5088 29.328 36 30 36H32.4C33.2112 36.012 33.6 35.4048 33.6 34.8C33.6 34.1952 33.2112 33.588 32.4 33.6H31.2V32.4C31.2 31.7352 30.6648 31.2 30 31.2ZM6 45.6048C5.4 45.6 4.8 45.9936 4.8 46.8V51.6C4.8 52.2624 5.3376 52.8 6 52.8H10.8C12.3744 52.8 12.4128 50.4 10.8 50.4H7.2V46.8C7.2 46.0128 6.6 45.6096 6 45.6048ZM54 45.6048C53.4 45.6096 52.8 46.0128 52.8 46.8V50.4H49.2C47.5872 50.4 47.6256 52.8 49.2 52.8H54C54.6624 52.8 55.2 52.2624 55.2 51.6V46.8C55.2 45.9936 54.6 45.6 54 45.6048Z" fill="black"/>
</svg>
