<?xml version="1.0" standalone="no"?>
<!DOCTYPE svg PUBLIC "-//W3C//DTD SVG 20010904//EN"
 "http://www.w3.org/TR/2001/REC-SVG-20010904/DTD/svg10.dtd">
<svg version="1.0" xmlns="http://www.w3.org/2000/svg"
 width="20" height="20" viewBox="0 0 512.000000 512.000000"
 preserveAspectRatio="xMidYMid meet">

<g transform="translate(0.000000,512.000000) scale(0.100000,-0.100000)"
fill="#d4d4d4" stroke="none">
<path d="M2471 5109 c-168 -33 -313 -184 -341 -354 -6 -34 -10 -293 -10 -594
l0 -535 -397 395 c-353 352 -405 399 -463 427 -176 85 -363 57 -501 -74 -140
-135 -174 -333 -87 -514 28 -58 75 -110 427 -462 l395 -398 -535 0 c-301 0
-560 -4 -594 -10 -181 -30 -326 -178 -357 -364 -38 -229 127 -458 357 -496 34
-6 293 -10 594 -10 l535 0 -395 -397 c-352 -353 -399 -405 -427 -463 -85 -176
-57 -363 74 -501 135 -140 333 -174 514 -87 58 28 110 75 463 427 l397 395 0
-535 c0 -301 4 -560 10 -594 38 -230 267 -395 496 -357 186 31 334 176 364
357 6 34 10 293 10 594 l0 535 398 -395 c352 -352 404 -399 462 -427 181 -87
379 -53 514 87 131 138 159 325 74 501 -28 58 -75 110 -427 463 l-395 397 535
0 c301 0 560 4 594 10 230 38 395 267 357 496 -31 186 -176 334 -357 364 -34
6 -293 10 -594 10 l-535 0 395 398 c352 352 399 404 427 462 87 181 53 379
-87 514 -138 131 -325 159 -501 74 -58 -28 -110 -75 -462 -427 l-398 -395 0
535 c0 301 -4 560 -10 594 -39 240 -277 402 -519 354z"/>
</g>
</svg>
