<svg xmlns="http://www.w3.org/2000/svg" width="45" height="45" viewBox="0 0 45 45">
    <defs>
        <linearGradient id="prefix__a" x1="4.476%" x2="95.896%" y1="18.934%" y2="89.506%">
            <stop offset="0%" stop-color="#770FC8"/>
            <stop offset="100%" stop-color="#A25CD9"/>
        </linearGradient>
    </defs>
    <path fill="url(#prefix__a)" fill-rule="evenodd" d="M36.559 35.625c2.16 0 3.518-2.343 2.436-4.218L24.936 7.03c-1.08-1.872-3.79-1.875-4.872 0L6.004 31.407c-1.079 1.871.272 4.218 2.437 4.218h28.118zm-.605-2.813H9.046c-.27 0-.44-.292-.304-.527l13.453-23.32c.136-.234.474-.234.61 0l13.453 23.32c.136.235-.034.527-.304.527zm-12.242-7.968c.366 0 .68-.297.702-.662l.386-6.563c.024-.403-.298-.744-.702-.744h-3.196c-.405 0-.726.34-.702.744l.386 6.563c.022.372.33.662.702.662h2.424zM22.5 30.586c1.36 0 2.46-1.102 2.46-2.461 0-1.36-1.1-2.46-2.46-2.46-1.36 0-2.46 1.1-2.46 2.46 0 1.36 1.1 2.46 2.46 2.46z"/>
</svg>
