<svg xmlns="http://www.w3.org/2000/svg" width="37" height="37" viewBox="0 0 37 37">
    <path fill="#770FC8" fill-rule="evenodd" d="M18.5 33C26.508 33 33 26.508 33 18.5S26.508 4 18.5 4 4 10.492 4 18.5 10.492 33 18.5 33zm-.546-6.042l-1.525-.391.623-2.57c-.336-.086-.88-.231-1.215-.324l-.625 2.581-1.522-.391.63-2.61c-.356-.093-.717-.193-1.086-.288l-1.984-.51.757-1.797s1.123.307 1.108.285c.431.11.623-.18.698-.374l.997-4.117.161.041c-.06-.025-.116-.04-.158-.052l.711-2.94c.019-.333-.093-.754-.71-.912.024-.017-1.107-.284-1.107-.284l.405-1.677 2.102.54-.001.009c.316.08.641.157.973.235l.625-2.579 1.523.392-.612 2.528c.41.096.82.193 1.221.296l.608-2.512 1.525.392-.625 2.58c1.925.683 3.333 1.706 3.056 3.61-.2 1.395-.95 2.07-1.946 2.307 1.367.733 2.063 1.858 1.4 3.808-.823 2.422-2.777 2.627-5.377 2.12l-.63 2.604zm2.919-10.763c.406-1.884-2.11-2.303-2.892-2.528l-.69 3.192c.782.225 3.191 1.142 3.582-.664zm-.007 4.88c.502-1.854-2.876-2.333-3.93-2.575l-.853 3.15c1.054.24 4.303 1.2 4.783-.576z"/>
</svg>
