<svg xmlns="http://www.w3.org/2000/svg" width="32" height="32" viewBox="0 0 32 32">
    <path fill="#191927" fill-rule="evenodd" d="M26 25.333c1.104 0 2-.896 2-2V8.667c0-1.105-.896-2-2-2H6c-1.104 0-2 .895-2 2v14.666c0 1.104.896 2 2 2h20zm-6.438-5.083c-1.125 0-2.245-.338-3.187-.963 3.05-2.458 3.004-7.133 0-9.604.942-.62 2.054-.962 3.187-.962 3.184 0 5.771 2.587 5.771 5.762 0 3.188-2.587 5.771-5.77 5.767zm-7.125.004c-3.183 0-5.77-2.583-5.77-5.77 0-3.176 2.587-5.763 5.77-5.759 1.134 0 2.246.337 3.188.962-3.017 2.471-3.038 7.134 0 9.605-.942.62-2.054.962-3.188.962zM16 19.017c-2.938-2.288-2.925-6.759 0-9.063 2.925 2.304 2.937 6.771 0 9.063zm6.85 3.37c0-.791.904-1.033 1.246-.579v-.804h.329v2.154h-.33v-.191c-.308.445-1.245.229-1.245-.58zm-8.688.238v-.696h-.316v-.304h.316v-.467h.342v.467h.546v.308h-.546v.692c0 .354.35.258.508.17l.092.284c-.22.146-.942.28-.942-.454zm3.325.53h-.341v-1.53h.341v.183c.15-.258.442-.266.634-.183l-.1.317c-.138-.071-.534-.134-.534.35v.862zm-2.166-.772c0-.475.316-.804.758-.804.417 0 .725.267.725.942h-1.146c.096.446.588.47.913.204l.158.25c-.467.404-1.408.262-1.408-.592zm6.791.771h-.329v-1.529h.33v.183c.174-.304.533-.233.633-.183l-.1.317c-.159-.08-.534-.109-.534.35v.862zm-9.841-.15l.146-.262c.3.208.862.229.862-.034 0-.279-.954-.029-.954-.625 0-.591.867-.596 1.258-.341l-.137.27c-.275-.154-.771-.191-.771.046 0 .292.954.009.954.634 0 .562-.892.629-1.358.312zm-1.146.188c-.43 0-.758-.338-.758-.805 0-.462.329-.804.758-.804.217 0 .375.088.487.225v-.183h.33v1.533h-.33v-.191c-.112.145-.27.225-.487.225zm-3.15-.038h-.342v-1.529h.342v.183c.125-.166.283-.225.442-.225.237 0 .408.1.508.271.137-.212.342-.27.533-.27.375.012.613.25.613.612h.008v.958h-.342c0-.842.084-1.258-.341-1.258-.48 0-.375.496-.375 1.258h-.33c0-.833.084-1.258-.341-1.258-.48 0-.375.47-.375 1.258zm10.246-.762c0-.796.879-1.005 1.362-.625l-.158.27c-.38-.279-.863-.125-.863.35 0 .467.48.63.863.359l.158.27c-.429.367-1.362.2-1.362-.624zm1.533-.005c0-.779.9-1.037 1.246-.579v-.183h.342v1.533H21v-.191c-.313.45-1.246.22-1.246-.58zm-3.287-.137c-.038-.238-.184-.363-.4-.363-.225 0-.363.146-.396.363h.796zm7.187.625c.275 0 .467-.204.467-.488 0-.27-.192-.487-.467-.487-.283 0-.467.217-.467.487 0 .271.184.488.467.488zm-3.096 0c.284 0 .467-.204.467-.488 0-.27-.183-.487-.467-.487-.283 0-.454.217-.454.487 0 .271.17.488.454.488zm-9.387 0c.27 0 .454-.204.454-.488-.004-.27-.183-.487-.454-.487-.296 0-.467.217-.467.487 0 .271.171.488.467.488z" opacity=".601"/>
</svg>
