<svg xmlns="http://www.w3.org/2000/svg" width="32" height="32" viewBox="0 0 32 32">
    <path fill="#191927" fill-rule="evenodd" d="M26 25.333c1.104 0 2-.896 2-2V8.667c0-1.104-.896-2-2-2H6c-1.104 0-2 .896-2 2v14.666c0 1.104.896 2 2 2h20zm-8.8-6.1c-.75-.008-1.475-.166-1.867-.345l.234-1.455.22.105c.546.241.905.345 1.571.345.48 0 .996-.2 1.004-.633 0-.28-.22-.487-.866-.804-.634-.313-1.48-.83-1.467-1.758.008-1.259 1.171-2.142 2.825-2.142.646 0 1.17.146 1.5.275l-.229 1.4-.15-.071c-.3-.13-.7-.258-1.246-.246-.658 0-.954.284-.962.559 0 .304.358.504.945.8.963.462 1.413 1.025 1.405 1.762-.013 1.342-1.159 2.213-2.917 2.208zm-6.846-.1h-1.77l-1.492-5.625c-.513-.304-1.1-.545-1.759-.712l.03-.13h2.695c.367.017.663.134.759.547l.583 2.975.18.895 1.637-4.416h1.77l-2.633 6.466zm3.933.009h-1.67l1.045-6.475h1.675l-1.05 6.475zm7.463 0h-1.758l2.487-5.938c.17-.42.475-.537.875-.537h1.296L26 19.142h-1.55s-.15-.742-.2-.971H22.1c-.063.17-.35.97-.35.97zm2.225-2.296c-.07-.325-.388-1.875-.388-1.875l-.116-.558c-.084.241-.23.633-.221.62l-.667 1.813h1.392z" opacity=".601"/>
</svg>
