<svg xmlns="http://www.w3.org/2000/svg" width="24" height="24" viewBox="0 0 24 24">
    <defs>
        <linearGradient id="prefix__a" x1="4.476%" x2="95.896%" y1="10.683%" y2="100%">
            <stop offset="0%" stop-color="#770FC8"/>
            <stop offset="100%" stop-color="#A25CD9"/>
        </linearGradient>
    </defs>
    <path fill="url(#prefix__a)" fill-rule="evenodd" d="M11.078 14.69l.658-.658c.26-.261.378-.601.365-.932-.005-.138-.102-.315-.217-.394-.09-.062-.207-.152-.323-.267-.877-.878-.88-2.301 0-3.182l2.1-2.1c.883-.883 2.322-.877 3.198.016.867.884.84 2.31-.036 3.186l-.41.409c-.135.136-.18.337-.118.52.184.536.283 1.093.303 1.647.016.434.546.639.853.331l1.16-1.16c1.852-1.851 1.852-4.865 0-6.717-1.852-1.852-4.865-1.852-6.718 0l-2.1 2.1-.01.012c-1.831 1.84-1.857 4.837.01 6.706.164.163.452.404.642.537.2.14.47.118.643-.054zm1.029 3.921l2.1-2.1.01-.012c1.831-1.84 1.857-4.836-.01-6.706-.164-.163-.452-.404-.642-.537-.2-.14-.47-.118-.643.054l-.658.658c-.26.261-.378.601-.365.932.005.138.102.315.217.394.09.062.207.152.323.267.877.878.88 2.301 0 3.182l-2.1 2.1c-.883.883-2.322.877-3.198-.016-.867-.884-.84-2.31.036-3.186l.41-.409c.135-.136.18-.337.117-.52-.183-.536-.282-1.093-.302-1.647-.016-.434-.546-.639-.853-.331l-1.16 1.16c-1.852 1.851-1.852 4.865 0 6.717 1.852 1.852 4.865 1.852 6.718 0z"/>
</svg>
