<svg xmlns="http://www.w3.org/2000/svg" width="24" height="24" viewBox="0 0 24 24">
    <path fill="#770FC8" fill-rule="evenodd" d="M14.395 21.26c.394-.105.668-.461.668-.869v-1.376c.36-.164.911-.483 1.232-.712l1.19.687c.353.204.798.145 1.086-.142 1.13-1.133 1.971-2.557 2.398-4.15.106-.393-.065-.808-.418-1.012l-1.193-.688c.046-.474.046-.95 0-1.423l1.193-.689c.353-.203.524-.619.418-1.013-.427-1.592-1.267-3.016-2.398-4.148-.288-.288-.733-.346-1.086-.143l-1.19.687c-.32-.23-.873-.548-1.232-.712V4.181c0-.382-.3-.77-.668-.869-1.564-.416-3.224-.416-4.79 0-.394.105-.668.461-.668.869v1.376c-.36.164-.911.483-1.232.712l-1.19-.687c-.353-.204-.798-.145-1.086.143C4.3 6.857 3.458 8.28 3.031 9.873c-.106.394.065.81.418 1.013l1.193.689c-.02.196-.035.514-.035.711 0 .197.016.516.035.711l-1.193.689c-.353.204-.524.62-.418 1.013.427 1.592 1.267 3.016 2.398 4.148.288.288.733.347 1.086.143l1.19-.687c.32.23.873.548 1.232.712v1.376c0 .382.3.77.668.869 1.564.416 3.224.416 4.79 0zM12 19.776c-.352 0-.92-.048-1.266-.108v-1.894c-1.48-.523-1.655-.623-2.852-1.649l-1.641.948c-.454-.545-1.021-1.527-1.268-2.192l1.641-.947c-.285-1.546-.286-1.749 0-3.296l-1.64-.947c.293-.795.723-1.537 1.267-2.192l1.641.948c1.198-1.026 1.373-1.126 2.852-1.649V4.904c.347-.06.914-.107 1.266-.107s.92.048 1.266.107v1.894c1.48.523 1.655.624 2.852 1.65l1.641-.949c.454.545 1.021 1.527 1.268 2.192l-1.641.947c.285 1.546.286 1.75 0 3.296l1.64.947c-.246.665-.813 1.647-1.267 2.192l-1.641-.948c-1.198 1.026-1.373 1.126-2.852 1.649v1.894c-.347.06-.914.108-1.266.108zm0-3.895c1.982 0 3.595-1.613 3.595-3.595 0-1.982-1.613-3.595-3.595-3.595-1.982 0-3.595 1.613-3.595 3.595 0 1.982 1.613 3.595 3.595 3.595zm0-1.798c-.991 0-1.797-.806-1.797-1.797 0-.99.806-1.797 1.797-1.797.991 0 1.797.806 1.797 1.797 0 .991-.806 1.797-1.797 1.797z"/>
</svg>
