<svg xmlns="http://www.w3.org/2000/svg" xmlns:xlink="http://www.w3.org/1999/xlink" width="41" height="33" viewBox="0 0 41 33">
    <defs>
        <linearGradient id="prefix__a" x1="4.476%" x2="95.804%" y1="23.53%" y2="83.602%">
            <stop offset="0%" stop-color="#0707B7"/>
            <stop offset="100%" stop-color="#4E07DA"/>
        </linearGradient>
        <path id="prefix__b" d="M234.657 296c.569 0 1.03-.462 1.03-1.03v-.001c0-1.138-.924-2.062-2.062-2.063h-1.04c-.007-.39-.06-1.02-.12-1.406l5.285-3.109v5.546c0 1.138.924 2.062 2.062 2.063h4.125c1.138 0 2.062-.925 2.063-2.063v-9.035c4.131-1.615 7.088-5.573 7.214-10.246l.005-.312c0-6.262-5.082-11.344-11.344-11.344s-11.344 5.082-11.344 11.344c0 .085.011.167.013.252-4.29.687-7.925 2.998-10.325 6.258v-5.995c-.003-3.055-2.428-5.55-5.455-5.667l-.217-.005c-.854 0-1.547.693-1.547 1.547s.693 1.547 1.547 1.547h.044c1.44-.04 2.534 1.326 2.534 2.767v13.688c0 4.731 2.54 7.264 5.672 7.264h11.86zm-8.252-24.75c.118 0 .256-.085.308-.19l1.067-2.56 2.56-1.068c.105-.052.19-.19.19-.307 0-.117-.085-.255-.19-.308l-2.56-1.067-1.067-2.56c-.052-.105-.19-.19-.308-.19-.117 0-.255.085-.307.19l-1.067 2.56-2.56 1.067c-.105.053-.19.19-.19.308 0 .117.085.255.19.307l2.56 1.068 1.067 2.56c.052.105.19.19.307.19zm17.532-1.031h-4.125l-2.638-2.639c1.168-.82 3.274-1.486 4.7-1.486 1.428 0 3.534.666 4.702 1.486l-2.639 2.639zm-2.062 12.375c-4.549-.005-8.245-3.701-8.25-8.25 0-2.074.795-3.948 2.062-5.4v5.4c0 3.415 2.772 6.187 6.188 6.187 3.415 0 6.187-2.772 6.187-6.187v-5.4c1.268 1.452 2.063 3.326 2.063 5.4-.005 4.549-3.701 8.245-8.25 8.25zm2.578-7.219c-.57 0-1.031-.462-1.031-1.031 0-.532.402-.97.919-1.025l.113-.007c.569 0 1.03.462 1.03 1.031 0 .57-.462 1.032-1.031 1.032zm-5.156 0c-.57 0-1.031-.462-1.031-1.031 0-.57.462-1.032 1.03-1.032h.001c.57 0 1.031.462 1.031 1.031 0 .57-.462 1.032-1.031 1.032zm-9.815 17.531h-6.685c-1.422-.001-2.577-1.156-2.578-2.578 0-6.36 4.54-11.665 10.807-12.671.878 2.86 3.844 6.09 6.62 7.207l-6.12 3.6c-.657-1.371-2.2-3.193-3.444-4.068-.485-.339-1.166-.142-1.452.375l-.48.863c-.255.46-.165 1.063.262 1.372 1.657 1.207 3.033 3.85 3.07 5.9zm13.424 0h-2.062v-6.317c-.002-.288-.117-.727-.256-.98.351.044.922.079 1.275.079.289 0 .756-.024 1.043-.053v7.271z"/>
    </defs>
    <g fill="none" fill-rule="evenodd" transform="translate(-213 -263)">
        <use fill="url(#prefix__a)" xlink:href="#prefix__b"/>
        <use fill="#FFF" fill-opacity=".2" xlink:href="#prefix__b"/>
    </g>
</svg>
