<svg xmlns="http://www.w3.org/2000/svg" xmlns:xlink="http://www.w3.org/1999/xlink" width="73" height="83" viewBox="0 0 73 83">
    <defs>
        <linearGradient id="prefix__a" x1="15.146%" x2="85.139%" y1="10.683%" y2="100%">
            <stop offset="0%" stop-color="#191927"/>
            <stop offset="100%" stop-color="#5B5B68"/>
        </linearGradient>
        <path id="prefix__b" d="M265.734 116c2.156 0 3.89-1.735 3.89-3.89v-5.448c0-9.45-6.062-17.362-14.492-20.36 3.323-3.275 5.901-7.312 7.49-11.802h1.815c1.427 0 2.594-1.167 2.594-2.594V56.344c0-1.427-1.167-2.594-2.594-2.594h-1.815C258.358 41.673 246.865 33 233.312 33c-13.552 0-25.045 8.673-29.309 20.75h-1.816c-1.426 0-2.593 1.167-2.593 2.594v15.562c0 1.427 1.167 2.594 2.593 2.594h1.816c1.589 4.49 4.166 8.527 7.49 11.801-8.43 3-14.493 10.91-14.493 20.361v5.447c0 2.156 1.735 3.89 3.89 3.89 2.157 0 3.891-1.734 3.891-3.89v-5.447c0-7.716 6.29-14.006 14.007-14.006h2.107c3.81 1.654 8.008 2.594 12.417 2.594 4.41 0 8.608-.94 12.418-2.594h2.107c7.717 0 14.007 6.29 14.007 14.006v5.447c0 2.156 1.734 3.89 3.89 3.89zm-32.422-28.531c-12.871 0-23.343-10.473-23.343-23.344 0-12.872 10.472-23.344 23.343-23.344 12.872 0 23.344 10.472 23.344 23.344 0 12.871-10.472 23.344-23.344 23.344zm2.594-7.782c8.592 0 15.563-6.97 15.563-15.562V61.53c0-4.296-3.486-7.781-7.782-7.781h-20.75c-4.295 0-7.78 3.485-7.78 7.781v2.594c0 8.592 6.97 15.562 15.562 15.562h5.187zm-7.781-5.187l-1.945-5.836-5.836-1.945 5.836-1.946 1.945-5.836 1.945 5.836 5.836 1.946-5.836 1.945-1.945 5.836zm-5.188 41.5v-7.781c0-1.427 1.168-2.594 2.594-2.594 1.427 0 2.594 1.167 2.594 2.594v7.78h23.344v-10.374c0-2.87-2.319-5.188-5.188-5.188h-25.937c-2.87 0-5.188 2.318-5.188 5.188V116h7.781zm18.157-5.188c-1.427 0-2.594-1.167-2.594-2.593 0-1.427 1.167-2.594 2.594-2.594 1.426 0 2.593 1.167 2.593 2.594 0 1.426-1.167 2.593-2.593 2.593z"/>
    </defs>
    <g fill="none" fill-rule="evenodd" opacity=".502" transform="translate(-197 -33)">
        <use fill="url(#prefix__a)" xlink:href="#prefix__b"/>
        <use fill="#FFF" fill-opacity=".2" xlink:href="#prefix__b"/>
    </g>
</svg>
