<svg xmlns="http://www.w3.org/2000/svg" xmlns:xlink="http://www.w3.org/1999/xlink" width="33" height="33" viewBox="0 0 33 33">
    <defs>
        <linearGradient id="prefix__a" x1="4.476%" x2="95.896%" y1="10.683%" y2="100%">
            <stop offset="0%" stop-color="#191927"/>
            <stop offset="100%" stop-color="#5B5B68"/>
        </linearGradient>
        <path id="prefix__b" d="M292.36 28.882c1.36.566 3.658 1.025 5.13 1.025h.01c7.404 0 13.407-6.003 13.407-13.408v-.008c0-1.473-.46-3.771-1.025-5.13 3.533-5.086 5.048-9.264 3.533-10.778-1.512-1.513-5.688.008-10.768 3.536-1.361-.567-3.664-1.028-5.138-1.028h-.01c-7.405 0-13.408 6.003-13.408 13.408v.01c0 1.475.46 3.777 1.028 5.138-3.528 5.08-5.049 9.256-3.536 10.768 1.514 1.515 5.692 0 10.777-3.533zM308.218 8.47c-.636-.847-1.838-2.05-2.685-2.686 2.223-1.502 3.83-2.174 4.342-1.66.514.514-.152 2.118-1.657 4.346zm-16.095 16.79c-2.95-1.817-4.938-5.049-4.938-8.76 0-5.687 4.627-10.314 10.314-10.314 3.711 0 6.943 1.989 8.76 4.938-1.772 2.238-4.068 4.81-6.697 7.439-2.63 2.63-5.201 4.925-7.439 6.697zm5.376 1.554h-.002c-.58 0-1.512-.095-2.08-.212 1.862-1.49 4.74-4.072 6.423-5.761 1.69-1.684 4.27-4.561 5.76-6.423.118.568.213 1.5.213 2.08v.002c0 5.687-4.627 10.314-10.314 10.314zm-12.376 2.062c-.514-.513.158-2.12 1.66-4.342.636.847 1.839 2.05 2.686 2.685-2.228 1.505-3.832 2.171-4.346 1.657z"/>
    </defs>
    <g fill="none" fill-rule="evenodd" opacity=".502" transform="matrix(-1 0 0 1 314 0)">
        <use fill="url(#prefix__a)" xlink:href="#prefix__b"/>
        <use fill="#FFF" fill-opacity=".2" xlink:href="#prefix__b"/>
    </g>
</svg>
