<svg width="101" height="24" viewBox="0 0 101 24" fill="none" xmlns="http://www.w3.org/2000/svg">
<path fill-rule="evenodd" clip-rule="evenodd" d="M22.0361 7.31551C23.1408 7.31551 24 8.2139 24 9.36898V13.6043C24 14.7594 23.1408 15.6578 22.0361 15.6578C20.9313 15.6578 20.0721 14.7594 20.0721 13.6043V9.36898C20.0721 8.2139 20.9313 7.31551 22.0361 7.31551ZM17.1262 10.0749C18.2309 10.0749 19.0901 10.9733 19.0901 12.1283V19.3797C19.0901 20.5348 18.2309 21.4332 17.1262 21.4332C16.0215 21.4332 15.1623 20.5348 15.1623 19.3797V12.1283C15.1623 10.9733 16.0215 10.0749 17.1262 10.0749ZM11.9709 1.73262C13.0756 1.73262 13.9348 2.63102 13.9348 3.7861V21.9465C13.9348 23.1016 13.0756 24 11.9709 24C10.8661 24 10.0069 23.1016 10.0069 21.9465V3.7861C10.0069 2.63102 10.8661 1.73262 11.9709 1.73262ZM7.06101 0C8.16572 0 9.02495 0.898395 9.02495 2.05348V12.0642C9.02495 13.2193 8.16572 14.1176 7.06101 14.1176C5.95629 14.1176 5.09707 13.2193 5.09707 12.0642V2.05348C5.09707 0.962566 5.95629 0 7.06101 0ZM1.90566 7.12299C3.01038 7.12299 3.8696 8.02139 3.8696 9.17647V14.3102C3.8696 15.4652 3.01038 16.3636 1.96704 16.3636C0.862319 16.3636 0.00309413 15.4652 0.00309413 14.3743V14.3102V9.17647C-0.058279 8.02139 0.800944 7.12299 1.90566 7.12299Z" fill="url(#paint0_linear_905_8005)"/>
<path d="M40.9757 17.6356H32V15.5978L37.4171 9.39495H32.443V7.29796H40.9122V9.38051L35.5426 15.5386H40.9757V17.6356ZM45.3841 4.71139C45.3841 5.76133 44.6828 6.42277 43.6207 6.42277C42.5587 6.42277 41.8588 5.75555 41.8588 4.71139C41.8588 3.66722 42.5601 3 43.6207 3C44.6814 3 45.3841 3.66145 45.3841 4.71139ZM41.9209 17.6009V7.21998H45.3307V17.5981L41.9209 17.6009ZM57.5186 15.0245C57.5186 15.6715 57.5186 16.4687 57.4984 17.0464C57.383 20.4735 55.0611 22 51.5589 22C48.4636 22 46.5862 20.7277 46.3351 18.3389L46.3149 18.1425H49.6772L49.6974 18.3389C49.7753 19.0235 50.5632 19.4149 51.6512 19.4149C52.95 19.4149 53.8951 18.8473 53.9918 17.4377C54.012 17.1244 54.0308 16.6348 54.0308 16.0672V15.7784C54.0308 15.7784 53.6888 16.6189 53.2573 16.9337C52.6801 17.367 51.8648 17.5807 50.82 17.5807C48.0133 17.5807 46.0782 15.6426 46.0782 12.5477C46.0782 8.82738 48.3236 6.96724 50.9744 6.96724C51.8258 6.96724 52.8865 7.07411 53.354 7.4756C54.0005 8.03307 54.0308 8.59197 54.0308 8.59197V7.23153H57.5143L57.5186 15.0245ZM54.0308 12.2054V12.1462C54.0308 10.0506 52.9673 9.34585 51.9225 9.34585C50.5675 9.34585 49.6396 10.1488 49.6396 12.2834C49.6396 14.2417 50.6065 15.1819 51.8258 15.1819C53.1029 15.1819 54.0308 14.3977 54.0308 12.2054ZM69.2966 11.736V17.5981H65.8074V12.318C65.8074 11.9873 65.8074 11.4241 65.7684 10.8998C65.6905 9.90909 65.1479 9.32708 64.1017 9.32708C63.0555 9.32708 62.2792 10.3568 62.2792 12.7065V17.5981H58.7885V7.22864H62.2792V8.84038C62.474 8.34025 62.7946 7.89898 63.2099 7.55936C63.7871 7.08133 64.5851 6.95713 65.5361 6.95713C67.6689 6.95713 68.9287 7.96808 69.2 9.77334C69.2793 10.4244 69.3116 11.0803 69.2966 11.736ZM76.3011 16.0831C76.3011 16.0831 76.2809 16.8052 75.8769 17.1706C75.2261 17.7598 74.2766 17.8696 73.3314 17.8696C71.6358 17.8696 70.0355 16.8023 70.0355 14.8021C70.0355 12.5881 72.1178 11.2291 75.607 11.2291H76.2622V11.0731C76.2659 10.8203 76.2529 10.5675 76.2232 10.3164C76.1655 9.79211 75.7412 9.32563 74.9894 9.32563C74.1799 9.32563 73.7167 9.84988 73.6589 10.7438L70.3847 10.7626C70.4049 8.3349 72.5492 6.95713 75.1467 6.95713C78.4051 6.95713 79.5234 8.41289 79.6778 10.2961C79.7153 10.8204 79.7355 11.4226 79.7355 12.0638V14.9768C79.7329 15.8539 79.7946 16.73 79.9203 17.5981H76.5277L76.3011 16.0831ZM76.2622 13.8893V13.2091C74.7008 13.0936 73.5825 13.4979 73.5825 14.5291C73.5825 15.1516 74.0644 15.5011 74.7585 15.5011C75.4526 15.5011 76.2578 14.9768 76.2578 13.8893H76.2622ZM84.4471 13.8561C84.435 14.1748 84.448 14.494 84.486 14.8107C84.5437 15.2209 84.7169 15.3566 85.626 15.3177V17.6963C84.9882 17.754 84.3691 17.793 83.5957 17.793C81.9925 17.793 81.0833 17.1504 81.0069 15.7711C80.9679 15.2267 80.9679 14.6995 80.9679 13.9197V3.27151H84.4471V13.8561ZM92.9379 17.5518C91.6478 20.8302 90.5309 21.626 88.0864 21.626C87.5968 21.6345 87.1074 21.6021 86.6232 21.5292V19.2791C86.9361 19.3116 87.2509 19.3241 87.5654 19.3167C88.375 19.3167 88.9334 19.0452 89.261 18.3057L89.3952 18.0169L85.1397 7.18532H88.9912L91.1081 14.7717L93.2077 7.18532H97L92.9379 17.5518Z" fill="white"/>
<defs>
<linearGradient id="paint0_linear_905_8005" x1="20.7756" y1="18.7604" x2="2.17558" y2="5.35548" gradientUnits="userSpaceOnUse">
<stop offset="0.04" stop-color="#11CED0"/>
<stop offset="0.43" stop-color="#4053C1"/>
<stop offset="0.69" stop-color="#7D33D6"/>
<stop offset="0.95" stop-color="#CF61DC"/>
</linearGradient>
</defs>
</svg>
