<svg width="160" height="40" viewBox="0 0 160 40" fill="none" xmlns="http://www.w3.org/2000/svg">
    <path fill-rule="evenodd" clip-rule="evenodd" d="M35.5377 11.5353C36.3405 11.536 37.1101 11.8474 37.6776 12.4011C38.245 12.9548 38.5637 13.7055 38.5637 14.4882V20.6912C38.5756 21.0861 38.5061 21.4793 38.3593 21.8475C38.2125 22.2157 37.9914 22.5515 37.7091 22.8349C37.4268 23.1183 37.0891 23.3437 36.7159 23.4975C36.3427 23.6514 35.9416 23.7307 35.5364 23.7307C35.1312 23.7307 34.7301 23.6514 34.3569 23.4975C33.9837 23.3437 33.6459 23.1183 33.3636 22.8349C33.0813 22.5515 32.8603 22.2157 32.7135 21.8475C32.5667 21.4793 32.4972 21.0861 32.509 20.6912V14.4882C32.509 13.7051 32.8281 12.954 33.3961 12.4002C33.9641 11.8464 34.7344 11.5353 35.5377 11.5353V11.5353ZM27.8893 15.5724C28.692 15.5724 29.462 15.8832 30.0299 16.4364C30.5978 16.9896 30.9172 17.7401 30.9179 18.5228V29.0751C30.8948 29.843 30.5657 30.5718 30.0005 31.107C29.4353 31.6421 28.6784 31.9415 27.8906 31.9415C27.1027 31.9415 26.3458 31.6421 25.7806 31.107C25.2154 30.5718 24.8863 29.843 24.8632 29.0751V18.5228C24.8632 18.1354 24.9415 17.7517 25.0936 17.3937C25.2456 17.0358 25.4685 16.7105 25.7495 16.4366C26.0305 16.1626 26.3641 15.9453 26.7312 15.797C27.0984 15.6487 27.4919 15.5724 27.8893 15.5724V15.5724ZM19.9231 3.46366C20.7246 3.46366 21.4933 3.77338 22.061 4.32496C22.6287 4.87655 22.949 5.62503 22.9518 6.40643V32.8126C22.9014 33.5607 22.5611 34.262 21.9998 34.7744C21.4386 35.2869 20.6985 35.572 19.9296 35.572C19.1608 35.572 18.4206 35.2869 17.8594 34.7744C17.2982 34.262 16.9579 33.5607 16.9075 32.8126V6.40643C16.9103 5.62722 17.2288 4.88065 17.7936 4.32943C18.3585 3.77821 19.1239 3.46701 19.9231 3.46366V3.46366ZM12.2747 0.980469C12.6724 0.980469 13.0663 1.05685 13.4337 1.20525C13.8012 1.35365 14.135 1.57116 14.4163 1.84536C14.6975 2.11956 14.9206 2.44509 15.0728 2.80336C15.225 3.16162 15.3033 3.54561 15.3033 3.93339V18.5203C15.2802 19.2881 14.9512 20.0169 14.386 20.5521C13.8207 21.0873 13.0639 21.3866 12.276 21.3866C11.4881 21.3866 10.7313 21.0873 10.1661 20.5521C9.60086 20.0169 9.27178 19.2881 9.24868 18.5203V3.93339C9.24868 3.15067 9.56741 2.39996 10.1348 1.84626C10.7022 1.29255 11.4719 0.981142 12.2747 0.980469V0.980469ZM4.30859 11.2306C5.11093 11.2306 5.88049 11.541 6.44832 12.0937C7.01615 12.6464 7.33584 13.3962 7.33722 14.1785V21.623C7.3491 22.0179 7.27959 22.4111 7.1328 22.7793C6.986 23.1476 6.76492 23.4833 6.48263 23.7668C6.20034 24.0502 5.86259 24.2755 5.48938 24.4294C5.11617 24.5832 4.71509 24.6625 4.30989 24.6625C3.90469 24.6625 3.50361 24.5832 3.1304 24.4294C2.75719 24.2755 2.41944 24.0502 2.13715 23.7668C1.85486 23.4833 1.63377 23.1476 1.48698 22.7793C1.34019 22.4111 1.27067 22.0179 1.28255 21.623V14.1785C1.28393 13.3966 1.60327 12.6472 2.17054 12.0946C2.7378 11.542 3.50669 11.2313 4.30859 11.2306V11.2306Z" fill="url(#paint0_linear_117_456)"/>
    <path d="M58.8854 31.1009H42.6875V27.5183L52.4635 16.6131H43.487V12.9263H58.7708V16.5877L49.0807 27.4142H58.8854V31.1009ZM66.8411 8.3789C66.8411 10.2248 65.5755 11.3877 63.6588 11.3877C61.7421 11.3877 60.4791 10.2146 60.4791 8.3789C60.4791 6.54316 61.7447 5.37012 63.6588 5.37012C65.5729 5.37012 66.8411 6.533 66.8411 8.3789V8.3789ZM60.5911 31.04V12.7892H66.7447V31.0349L60.5911 31.04ZM88.7395 26.5103C88.7395 27.6478 88.7395 29.0493 88.703 30.065C88.4947 36.0901 84.3046 38.7739 77.9843 38.7739C72.3984 38.7739 69.0103 36.537 68.5572 32.3374L68.5208 31.9921H74.5885L74.6249 32.3374C74.7655 33.5409 76.1874 34.229 78.1509 34.229C80.4947 34.229 82.2004 33.2312 82.3749 30.7531C82.4113 30.2021 82.4452 29.3413 82.4452 28.3435V27.8357C82.4452 27.8357 81.828 29.3134 81.0494 29.8669C80.0077 30.6286 78.5364 31.0044 76.651 31.0044C71.5859 31.0044 68.0937 27.597 68.0937 22.1558C68.0937 15.6152 72.1457 12.3449 76.9296 12.3449C78.466 12.3449 80.3801 12.5328 81.2239 13.2387C82.3905 14.2187 82.4452 15.2013 82.4452 15.2013V12.8095H88.7316L88.7395 26.5103ZM82.4452 21.5541V21.45C82.4452 17.7658 80.5259 16.5267 78.6405 16.5267C76.1952 16.5267 74.5207 17.9384 74.5207 21.6912C74.5207 25.1341 76.2655 26.787 78.4661 26.787C80.7707 26.787 82.4452 25.4083 82.4452 21.5541ZM109.995 20.7289V31.0349H103.698V21.7521C103.698 21.1707 103.698 20.1804 103.627 19.2587C103.487 17.517 102.508 16.4937 100.62 16.4937C98.7316 16.4937 97.3306 18.3041 97.3306 22.4351V31.0349H91.0311V12.8045H97.3306V15.6381C97.6821 14.7588 98.2607 13.983 99.0103 13.3859C100.052 12.5455 101.492 12.3271 103.208 12.3271C107.057 12.3271 109.331 14.1045 109.82 17.2783C109.963 18.4229 110.022 19.5761 109.995 20.7289V20.7289ZM122.635 28.3714C122.635 28.3714 122.599 29.6409 121.87 30.2833C120.695 31.3193 118.982 31.5122 117.276 31.5122C114.216 31.5122 111.328 29.6359 111.328 26.1193C111.328 22.2269 115.086 19.8377 121.383 19.8377H122.565V19.5634C122.572 19.1189 122.548 18.6745 122.495 18.233C122.39 17.3113 121.625 16.4912 120.268 16.4912C118.807 16.4912 117.971 17.4129 117.867 18.9845L111.958 19.0175C111.995 14.7494 115.864 12.3271 120.552 12.3271C126.432 12.3271 128.45 14.8865 128.729 18.1974C128.797 19.1191 128.833 20.1779 128.833 21.3052V26.4265C128.828 27.9685 128.94 29.5088 129.166 31.0349H123.044L122.635 28.3714ZM122.565 24.5146V23.3187C119.747 23.1156 117.729 23.8265 117.729 25.6394C117.729 26.7337 118.599 27.3482 119.851 27.3482C121.104 27.3482 122.557 26.4265 122.557 24.5146H122.565ZM137.336 24.4562C137.314 25.0166 137.337 25.5777 137.406 26.1345C137.51 26.8556 137.823 27.0943 139.463 27.0257V31.2075C138.312 31.3091 137.195 31.3777 135.799 31.3777C132.906 31.3777 131.265 30.2478 131.127 27.823C131.057 26.8658 131.057 25.939 131.057 24.5679V5.84746H137.336V24.4562ZM152.659 30.9536C150.33 36.7173 148.315 38.1163 143.903 38.1163C143.02 38.1313 142.137 38.0744 141.263 37.9462V33.9903C141.828 34.0474 142.396 34.0694 142.963 34.0564C144.424 34.0564 145.432 33.579 146.023 32.279L146.265 31.7712L138.586 12.7283H145.536L149.356 26.066L153.146 12.7283H159.989L152.659 30.9536Z" fill="black"/>
    <defs>
    <linearGradient id="paint0_linear_117_456" x1="33.5782" y1="28.0268" x2="6.205" y2="6.76366" gradientUnits="userSpaceOnUse">
    <stop offset="0.04" stop-color="#11CED0"/>
    <stop offset="0.43" stop-color="#4053C1"/>
    <stop offset="0.69" stop-color="#7D33D6"/>
    <stop offset="0.95" stop-color="#CF61DC"/>
    </linearGradient>
    </defs>
    </svg>
    