<svg id="Layer_1" data-name="Layer 1" xmlns="http://www.w3.org/2000/svg" viewBox="0 0 1080 300"><defs><style>.cls-1{fill:#b780e2;}.cls-2{fill:#a25cd9;}.cls-3{fill:#984ad5;}.cls-4{fill:#7710c8;}.cls-5{fill:#8427cd;}</style></defs><title>zignaly_logo</title><polygon points="392.22 189.66 329.43 189.66 391.52 118.04 391.52 92.46 288.03 92.46 288.03 118.5 347.33 118.5 284.55 191.29 284.55 215.71 392.22 215.71 392.22 189.66"/><path d="M444.05,215.71V91.53H402.19V215.71ZM423.12,41.06c-13,0-21.63,7.91-21.63,20.47S410.1,82,423.12,82s21.63-7.9,21.63-20.46S436.14,41.06,423.12,41.06Z"/><path d="M521.92,185.94c-14.65,0-26.28-11.16-26.28-34.42,0-25.34,11.17-34.88,27.44-34.88,12.56,0,25.35,8.37,25.35,33.26v.69C548.43,176.64,537.27,185.94,521.92,185.94Zm68.37-94.41H548.43v16h0a40.15,40.15,0,0,0-31.14-19.08c-1.9-.14-3.78-.22-5.6-.22-31.86,0-58.84,22.09-58.84,66.28,0,36.74,23.26,59.76,57,59.76h.37a46,46,0,0,0,37.65-20.53l.58-.86v3.49c0,6.74-.23,12.55-.46,16.28-1.17,16.74-12.56,23.48-28.14,23.48-13,0-22.56-4.65-23.49-12.79l-.23-2.32H455.64l.24,2.32c3,28.37,25.58,43.49,62.79,43.49,42.09,0,70-18.14,71.39-58.84.23-6.74.23-16.27.23-23.95Z"/><path d="M731,122c-3.26-21.63-18.37-33.72-44-33.72a60.1,60.1,0,0,0-14.44,1.63,33.3,33.3,0,0,0-18.8,12.91l-5.83,8V91.53H606.09V215.71H648v-58.6c0-28.14,9.07-40.47,21.86-40.47,12.55,0,19.07,7,20,18.84.46,6.28.46,13,.46,17v63.26h41.86V145.48C732.13,135.48,731.9,128.27,731,122Z"/><path d="M797.9,190.59c-8.37,0-14.19-4.18-14.19-11.62,0-12.33,13.49-17.21,32.33-15.82v8.14C816,184.31,806.27,190.59,797.9,190.59Zm21.39,25.12h40.93a213.75,213.75,0,0,1-2.32-31.4V149.43c0-7.67-.24-14.88-.7-21.16-1.86-22.56-15.35-40-54.65-40-31.39,0-57.21,16.51-57.44,45.58l39.53-.23c.7-10.7,6.28-17,16.05-17,9.07,0,14.18,5.58,14.88,11.86a68.39,68.39,0,0,1,.47,9.07v1.86h-7.91c-42.09,0-67.21,16.28-67.21,42.79,0,23.95,19.31,36.74,39.77,36.74a61.27,61.27,0,0,0,18.17-2.63,26.33,26.33,0,0,0,16.45-15.72l1.19-3Z"/><path d="M914.6,44.78H872.75v127c0,9.3,0,15.58.46,22.09.93,16.51,11.86,24.18,31.16,24.18,9.3,0,16.75-.46,24.42-1.16V188.5c-10.93.47-13-1.16-13.72-6.05-.47-3-.47-5.58-.47-11.39Z"/><path d="M1066,91.53h-45.82l-25.34,90.92L969.25,91.53H922.74l51.39,129.76-1.63,3.49c-4,8.83-10.7,12.09-20.46,12.09a88.86,88.86,0,0,1-11.4-.46v27a107.56,107.56,0,0,0,17.68,1.16c29.53,0,43-9.53,58.6-48.83Z"/><rect class="cls-1" x="193.25" y="95.42" width="34.06" height="72" rx="11.83"/><rect class="cls-2" x="146.85" y="120.02" width="34.06" height="96.15" rx="11.83"/><rect class="cls-3" x="103.65" y="49.19" width="34.06" height="189.22" rx="11.83"/><rect class="cls-4" x="60.05" y="33.13" width="34.06" height="120.75" rx="11.83"/><rect class="cls-5" x="14.01" y="95.42" width="34.06" height="77.42" rx="11.83"/></svg>