<svg xmlns="http://www.w3.org/2000/svg" width="24" height="25" viewBox="0 0 24 25">
    <path fill="#770FC8" fill-rule="evenodd" d="M17.318 16.958l-4.209-4.208 4.208-4.207c.244-.244.244-.639 0-.883l-.977-.977c-.244-.244-.639-.244-.883 0L11.25 10.89 7.042 6.683c-.243-.243-.638-.243-.882 0l-.977.978c-.244.243-.244.638 0 .882L9.39 12.75l-4.208 4.208c-.243.243-.243.638 0 .882l.977.977c.244.244.639.244.882 0l4.208-4.207 4.208 4.207c.243.244.638.244.882 0l.978-.977c.243-.244.243-.639 0-.882z"/>
</svg>
