<svg xmlns="http://www.w3.org/2000/svg" width="24" height="24" viewBox="0 0 24 24">
    <path fill="#770FC8" fill-rule="evenodd" d="M18.25 20c.416 0 .75-.334.75-.75v-.5c0-.234-.11-.447-.278-.584-.131-.482-.131-1.853 0-2.335.169-.134.278-.347.278-.581V4.75c0-.416-.334-.75-.75-.75H8C6.344 4 5 5.344 5 7v10c0 1.656 1.344 3 3 3h10.25zM15.812 9H9.187C9.084 9 9 8.916 9 8.813v-.625C9 8.084 9.084 8 9.187 8h6.625c.104 0 .188.084.188.188v.625c0 .103-.084.187-.188.187zm0 2H9.187C9.084 11 9 10.916 9 10.813v-.625c0-.104.084-.188.187-.188h6.625c.104 0 .188.084.188.188v.625c0 .103-.084.187-.188.187zm1.107 7H8c-.553 0-1-.447-1-1 0-.55.45-1 1-1h8.919c-.06.534-.06 1.466 0 2z"/>
</svg>
