<svg xmlns="http://www.w3.org/2000/svg" data-name="Layer 1" viewBox="0 0 512 512"><path fill="#770fc8" d="M53.6,469.437a6,6,0,0,0,5.956,5.273h93.365a6,6,0,0,0,5.74-7.75l-12.225-40.1L184.5,402.8a22.8,22.8,0,0,1,16.616-2.148q.186.046.375.081l77.705,14.309a100.767,100.767,0,0,0,62.264-8.791,5.913,5.913,0,0,0,.733-.431l134.4-92.28a6,6,0,0,0,1.744-8.041,37.093,37.093,0,0,0-49.463-13.528l-2.144,1.156c-9.33-11.2-25.395-15.523-37.645-9.314-.045.023-.09.046-.134.07l-5.279,2.844a41.283,41.283,0,0,0-47.16-4.183l-29.074,15.81h-38.7a55.775,55.775,0,0,1-24.142-5.532l-5.33-2.577a91.653,91.653,0,0,0-95.392,9.315q-.2.148-.382.313l-12.869,11.458a44.439,44.439,0,0,1-16.573,9.289l-7.254-23.791a6,6,0,0,0-5.739-4.25H38.805a6,6,0,0,0-5.955,6.726Zm340.97-174.951c6.9-3.456,15.574-.692,21.2,4.553L365.051,326.4l-2.78,1.465a44.357,44.357,0,0,0-6.785-12.322Zm-52.256-1.437.142-.08a29.27,29.27,0,0,1,29.458.093l-25.482,13.731a44.214,44.214,0,0,0-15.993-7.287ZM138.594,320.294,151.276,309a79.705,79.705,0,0,1,82.758-7.954l5.33,2.577a67.829,67.829,0,0,0,29.367,6.729h51.693a32.489,32.489,0,0,1,31.817,26.128L315.035,334.8a224.4,224.4,0,0,0-40.812,1.885,6,6,0,0,0,1.646,11.886,212.426,212.426,0,0,1,38.623-1.784l44.093,2c.091,0,.181.006.272.006a6,6,0,0,0,6-6c0-.9-.034-1.788-.087-2.673l5.929-3.126,63.872-34.458a25.112,25.112,0,0,1,30.051,4.671l-128.866,88.48a88.663,88.663,0,0,1-54.407,7.555L203.84,388.965a34.757,34.757,0,0,0-25.334,3.435c-.094.053-.187.107-.278.165L142.8,414.96l-25.258-82.846A56.469,56.469,0,0,0,138.594,320.294ZM96.605,304.579,144.816,462.71H64.866L45.582,304.579Z"/><path fill="#770fc8" d="M101.344 457.391A18.449 18.449 0 1 0 82.9 438.942 18.47 18.47 0 0 0 101.344 457.391zm0-24.9a6.449 6.449 0 1 1-6.448 6.448A6.456 6.456 0 0 1 101.344 432.494zM276 237.861a84.572 84.572 0 1 0-84.571-84.571A84.667 84.667 0 0 0 276 237.861zm0-157.143a72.572 72.572 0 1 1-72.571 72.572A72.653 72.653 0 0 1 276 80.718z"/><path fill="#770fc8" d="M193.586,234.837a5.677,5.677,0,0,0,.39.477,5.816,5.816,0,0,0,.476.389,115.791,115.791,0,0,0,163.1,0,5.816,5.816,0,0,0,.476-.389,5.677,5.677,0,0,0,.39-.477,115.793,115.793,0,0,0,0-163.095,3.078,3.078,0,0,0-.866-.866,115.794,115.794,0,0,0-163.1,0,3.078,3.078,0,0,0-.866.866,115.793,115.793,0,0,0,0,163.095ZM177.429,147.29h-5.252a103.586,103.586,0,0,1,26.2-63.136l3.678,3.678a6,6,0,0,0,8.485-8.485l-3.677-3.678A103.571,103.571,0,0,1,270,49.467v5.252a6,6,0,0,0,12,0V49.467a103.571,103.571,0,0,1,63.135,26.2l-3.677,3.678a6,6,0,0,0,8.485,8.485l3.678-3.678a103.586,103.586,0,0,1,26.2,63.136h-5.252a6,6,0,0,0,0,12h5.252a103.585,103.585,0,0,1-26.2,63.135l-3.678-3.677a6,6,0,0,0-8.485,8.485l3.677,3.678A103.576,103.576,0,0,1,282,257.112v-5.251a6,6,0,0,0-12,0v5.251a103.576,103.576,0,0,1-63.135-26.2l3.677-3.678a6,6,0,0,0-8.485-8.485l-3.678,3.677a103.585,103.585,0,0,1-26.2-63.135h5.252a6,6,0,0,0,0-12Z"/><path fill="#770fc8" d="M252.429,195.835h7.417V201.8a6,6,0,0,0,12,0v-5.965h5.165V201.8a6,6,0,0,0,12,0v-7.189a24.108,24.108,0,0,0,8.326-41.04,24.108,24.108,0,0,0-8.326-41.04V104.78a6,6,0,0,0-12,0v6.528h-5.165V104.78a6,6,0,1,0-12,0v6.528h-7.417a6,6,0,0,0-6,6v72.527A6,6,0,0,0,252.429,195.835ZM293.571,171.7a12.145,12.145,0,0,1-12.132,12.132h-23.01V159.571h23.01A12.146,12.146,0,0,1,293.571,171.7Zm-35.142-48.395h23.01a12.132,12.132,0,1,1,0,24.263h-23.01Z"/></svg>