<svg width="38" height="39" viewBox="0 0 38 39" fill="none" xmlns="http://www.w3.org/2000/svg">
<g filter="url(#filter0_d_7918767)">
<g clip-path="url(#clip0_7918767)">
<path fill-rule="evenodd" clip-rule="evenodd" d="M10.5493 4.5139L5.68698 14.7271C5.66848 14.7651 5.66262 14.808 5.67025 14.8496C5.67788 14.8911 5.69861 14.9291 5.72941 14.9581L18.8612 27.5415C18.8985 27.5773 18.9482 27.5973 18.9999 27.5973C19.0516 27.5973 19.1013 27.5773 19.1386 27.5415L32.2704 14.9589C32.3012 14.9299 32.3219 14.8919 32.3295 14.8503C32.3372 14.8088 32.3313 14.7659 32.3128 14.7279L27.4505 4.51468C27.4348 4.48038 27.4096 4.45132 27.3778 4.43098C27.3461 4.41064 27.3091 4.39988 27.2714 4.39998H10.7299C10.692 4.39951 10.6548 4.41001 10.6228 4.43022C10.5907 4.45044 10.5652 4.4795 10.5493 4.5139Z" fill="#50AF95"/>
<path fill-rule="evenodd" clip-rule="evenodd" d="M20.6872 15.7759C20.5929 15.783 20.1058 15.8121 19.0193 15.8121C18.1551 15.8121 17.5415 15.7862 17.3262 15.7759C13.9865 15.629 11.4937 15.0477 11.4937 14.3516C11.4937 13.6555 13.9865 13.0749 17.3262 12.9257V15.1969C17.5446 15.2126 18.17 15.2496 19.0342 15.2496C20.0712 15.2496 20.5905 15.2064 20.684 15.1977V12.9272C24.0167 13.0757 26.504 13.6571 26.504 14.3516C26.504 15.0461 24.0174 15.6275 20.684 15.7752L20.6872 15.7759ZM20.6872 12.6923V10.6599H25.3381V7.56061H12.6753V10.6599H17.3254V12.6916C13.5458 12.8652 10.7034 13.6139 10.7034 14.5111C10.7034 15.4083 13.5458 16.1562 17.3254 16.3306V22.8435H20.6864V16.3282C24.4574 16.1546 27.2951 15.4067 27.2951 14.5103C27.2951 13.6139 24.4597 12.866 20.6864 12.6916L20.6872 12.6923Z" fill="white"/>
</g>
</g>
<defs>
<filter id="filter0_d_7918767" x="-2" y="0" width="42" height="43" filterUnits="userSpaceOnUse" color-interpolation-filters="sRGB">
<feFlood flood-opacity="0" result="BackgroundImageFix"/>
<feColorMatrix in="SourceAlpha" type="matrix" values="0 0 0 0 0 0 0 0 0 0 0 0 0 0 0 0 0 0 127 0" result="hardAlpha"/>
<feMorphology radius="3" operator="erode" in="SourceAlpha" result="effect1_dropShadow_791:8767"/>
<feOffset dy="6"/>
<feGaussianBlur stdDeviation="4"/>
<feColorMatrix type="matrix" values="0 0 0 0 0.0980392 0 0 0 0 0.0980392 0 0 0 0 0.152941 0 0 0 0.24 0"/>
<feBlend mode="normal" in2="BackgroundImageFix" result="effect1_dropShadow_791:8767"/>
<feBlend mode="normal" in="SourceGraphic" in2="effect1_dropShadow_791:8767" result="shape"/>
</filter>
<clipPath id="clip0_7918767">
<rect width="26.6667" height="23.1973" fill="white" transform="translate(5.66675 4.39999)"/>
</clipPath>
</defs>
</svg>
