<svg width="24" height="24" viewBox="0 0 24 24" fill="none" xmlns="http://www.w3.org/2000/svg">
<path fill-rule="evenodd" clip-rule="evenodd" d="M22.0361 7.31551C23.1408 7.31551 24 8.2139 24 9.36898V13.6043C24 14.7594 23.1408 15.6578 22.0361 15.6578C20.9313 15.6578 20.0721 14.7594 20.0721 13.6043V9.36898C20.0721 8.2139 20.9313 7.31551 22.0361 7.31551ZM17.1262 10.0749C18.2309 10.0749 19.0901 10.9733 19.0901 12.1283V19.3797C19.0901 20.5348 18.2309 21.4332 17.1262 21.4332C16.0215 21.4332 15.1623 20.5348 15.1623 19.3797V12.1283C15.1623 10.9733 16.0215 10.0749 17.1262 10.0749ZM11.9709 1.73262C13.0756 1.73262 13.9348 2.63102 13.9348 3.7861V21.9465C13.9348 23.1016 13.0756 24 11.9709 24C10.8661 24 10.0069 23.1016 10.0069 21.9465V3.7861C10.0069 2.63102 10.8661 1.73262 11.9709 1.73262ZM7.06101 0C8.16572 0 9.02495 0.898395 9.02495 2.05348V12.0642C9.02495 13.2193 8.16572 14.1176 7.06101 14.1176C5.95629 14.1176 5.09707 13.2193 5.09707 12.0642V2.05348C5.09707 0.962566 5.95629 0 7.06101 0ZM1.90566 7.12299C3.01038 7.12299 3.8696 8.02139 3.8696 9.17647V14.3102C3.8696 15.4652 3.01038 16.3636 1.96704 16.3636C0.862319 16.3636 0.00309413 15.4652 0.00309413 14.3743V14.3102V9.17647C-0.058279 8.02139 0.800944 7.12299 1.90566 7.12299Z" fill="url(#paint0_linear_1060_11290)"/>
<defs>
<linearGradient id="paint0_linear_1060_11290" x1="20.7756" y1="18.7604" x2="2.17558" y2="5.35548" gradientUnits="userSpaceOnUse">
<stop offset="0.04" stop-color="#11CED0"/>
<stop offset="0.43" stop-color="#4053C1"/>
<stop offset="0.69" stop-color="#7D33D6"/>
<stop offset="0.95" stop-color="#CF61DC"/>
</linearGradient>
</defs>
</svg>
