<svg width="24" height="24" viewBox="0 0 24 24" fill="none" xmlns="http://www.w3.org/2000/svg">
<path fill-rule="evenodd" clip-rule="evenodd" d="M12 0C10.9311 0 10.0645 0.866544 10.0645 1.93548V22.0645C10.0645 23.1335 10.9311 24 12 24C13.0689 24 13.9355 23.1335 13.9355 22.0645V1.93548C13.9355 0.866545 13.0689 0 12 0ZM5.03226 2.89548C5.03226 1.82654 5.8988 0.959993 6.96774 0.959993C8.03668 0.959993 8.90322 1.82654 8.90322 2.89548V10.5445C8.90322 11.6134 8.03668 12.48 6.96774 12.48C5.8988 12.48 5.03226 11.6134 5.03226 10.5445V2.89548ZM0 9.1355C0 8.06656 0.866546 7.20001 1.93548 7.20001C3.00442 7.20001 3.87097 8.06656 3.87097 9.1355V16.7845C3.87097 17.8535 3.00442 18.72 1.93548 18.72C0.866546 18.72 0 17.8535 0 16.7845V9.1355ZM20.129 9.1355C20.129 8.06656 20.9956 7.20001 22.0645 7.20001C23.1334 7.20001 24 8.06656 24 9.1355V16.7845C24 17.8535 23.1334 18.72 22.0645 18.72C20.9956 18.72 20.129 17.8535 20.129 16.7845V9.1355ZM17.0323 10.08C15.9633 10.08 15.0968 10.9465 15.0968 12.0155V19.6645C15.0968 20.7334 15.9633 21.6 17.0323 21.6C18.1012 21.6 18.9677 20.7334 18.9677 19.6645V12.0155C18.9677 10.9465 18.1012 10.08 17.0323 10.08Z" fill="url(#paint0_linear_79113634)"/>
<defs>
<linearGradient id="paint0_linear_79113634" x1="4.125" y1="-1.51718e-07" x2="26.4194" y2="13.5085" gradientUnits="userSpaceOnUse">
<stop stop-color="#A600FB"/>
<stop offset="0.260417" stop-color="#6F06FC"/>
<stop offset="0.625" stop-color="#4959F5"/>
<stop offset="0.828125" stop-color="#2E8DDF"/>
<stop offset="1" stop-color="#12C1C9"/>
</linearGradient>
</defs>
</svg>
