<svg width="72" height="72" viewBox="0 0 72 72" fill="none" xmlns="http://www.w3.org/2000/svg">
<path d="M36 54.2812C35.2237 54.2812 34.5938 54.9112 34.5938 55.6875C34.5938 56.4637 35.2237 57.0938 36 57.0938C36.7762 57.0938 37.4062 56.4637 37.4062 55.6875C37.4062 54.9112 36.7762 54.2812 36 54.2812Z" fill="black"/>
<path d="M65.9654 8.63016C62.5049 7.23642 58.0057 6.46875 53.2969 6.46875C48.588 6.46875 44.0889 7.23642 40.6284 8.63016C38.5834 9.4538 37.0221 10.4604 36 11.5899C34.9779 10.4604 33.4166 9.45394 31.3716 8.6303C27.9111 7.23642 23.412 6.46875 18.7031 6.46875C13.9943 6.46875 9.49514 7.23642 6.03464 8.63016C2.14312 10.1976 0 12.4265 0 14.9062V48.6562C0 51.136 2.14312 53.3649 6.03464 54.9323C9.25312 56.2286 13.3703 56.9824 17.7188 57.0817V57.0938C17.7188 61.904 25.578 65.5312 36 65.5312C46.422 65.5312 54.2812 61.904 54.2812 57.0938V57.0817C58.6297 56.9824 62.7469 56.2286 65.9654 54.9323C69.8569 53.3649 72 51.136 72 48.6562V14.9062C72 12.4265 69.8569 10.1976 65.9654 8.63016ZM69.1875 40.2188C69.1875 41.4193 67.5502 42.8244 64.9146 43.886C62.062 45.0349 58.2323 45.73 54.2812 45.8298V40.2188C54.2812 40.2147 54.281 40.2106 54.281 40.2067C58.6295 40.1075 62.7467 39.3538 65.9655 38.0573C67.2287 37.5486 68.3063 36.9697 69.1876 36.3355L69.1875 40.2188ZM34.5938 23.3438C34.5938 24.5443 32.9565 25.9494 30.3209 27.011C27.2318 28.2552 22.9972 28.9688 18.7031 28.9688C14.409 28.9688 10.1745 28.2552 7.08539 27.011C4.4498 25.9494 2.8125 24.5443 2.8125 23.3438V19.4605C3.6938 20.0948 4.77141 20.6736 6.03464 21.1823C9.49514 22.5761 13.9943 23.3438 18.7031 23.3438C23.412 23.3438 27.9111 22.5761 31.3716 21.1823C32.6348 20.6736 33.7125 20.0948 34.5938 19.4605V23.3438ZM6.03464 29.6198C9.49514 31.0136 13.9943 31.7812 18.7031 31.7812C23.412 31.7812 27.9111 31.0136 31.3716 29.6198C32.6348 29.1111 33.7125 28.5322 34.5938 27.898V31.8061C30.9558 31.9293 27.4669 32.5264 24.645 33.5202C21.8146 34.5171 19.7779 35.8464 18.6704 37.4058C14.3875 37.4022 10.1666 36.6895 7.08539 35.4485C4.4498 34.3869 2.8125 32.9818 2.8125 31.7812V27.898C3.6938 28.5322 4.77141 29.1111 6.03464 29.6198ZM2.8125 36.3355C3.6938 36.9697 4.77141 37.5486 6.03464 38.0573C9.25327 39.3536 13.3706 40.1074 17.7192 40.2067C17.7192 40.2107 17.7189 40.2148 17.7189 40.2188V45.8298C13.7677 45.73 9.93811 45.0349 7.08553 43.886C4.4498 42.8244 2.8125 41.4193 2.8125 40.2188V36.3355ZM20.68 39.5279C21.7222 37.1025 27.7374 34.5938 36 34.5938C44.2626 34.5938 50.2778 37.1025 51.3188 39.525C51.4198 39.7614 51.4688 39.9883 51.4688 40.2188C51.4688 41.4551 49.9445 42.8285 47.3913 43.8923C44.3713 45.1507 40.3258 45.8438 36 45.8438C31.6742 45.8438 27.6287 45.1507 24.6087 43.8923C22.0555 42.8285 20.5312 41.4551 20.5312 40.2188C20.5312 39.9883 20.5803 39.7614 20.68 39.5279ZM69.1875 31.7812C69.1875 32.9818 67.5502 34.3869 64.9146 35.4485C61.8335 36.6895 57.6128 37.4022 53.3301 37.4058C52.2233 35.8473 50.1864 34.5174 47.355 33.5202C44.5331 32.5263 41.0442 31.9293 37.4062 31.8061V27.898C38.2875 28.5322 39.3652 29.1111 40.6284 29.6198C44.0889 31.0136 48.588 31.7812 53.2969 31.7812C58.0057 31.7812 62.5049 31.0136 65.9654 29.6198C67.2286 29.1111 68.3062 28.5322 69.1875 27.898V31.7812ZM69.1875 23.3438C69.1875 24.5443 67.5502 25.9494 64.9146 27.011C61.8255 28.2552 57.591 28.9688 53.2969 28.9688C49.0028 28.9688 44.7682 28.2552 41.6791 27.011C39.0435 25.9494 37.4062 24.5443 37.4062 23.3438V19.4605C38.2875 20.0948 39.3652 20.6736 40.6284 21.1823C44.0889 22.5761 48.588 23.3438 53.2969 23.3438C58.0057 23.3438 62.5049 22.5761 65.9654 21.1823C67.2286 20.6736 68.3062 20.0948 69.1875 19.4605V23.3438ZM41.6791 11.239C44.7682 9.99478 49.0028 9.28125 53.2969 9.28125C57.591 9.28125 61.8255 9.99478 64.9146 11.239C67.5502 12.3006 69.1875 13.7057 69.1875 14.9062C69.1875 16.1068 67.5502 17.5119 64.9146 18.5735C61.8255 19.8177 57.591 20.5312 53.2969 20.5312C49.0028 20.5312 44.7682 19.8177 41.6791 18.5735C39.0435 17.5119 37.4062 16.1068 37.4062 14.9062C37.4062 13.7057 39.0435 12.3006 41.6791 11.239ZM7.08539 11.239C10.1745 9.99478 14.409 9.28125 18.7031 9.28125C22.9972 9.28125 27.2318 9.99478 30.3209 11.239C32.9565 12.3006 34.5938 13.7057 34.5938 14.9062C34.5938 16.1068 32.9565 17.5119 30.3209 18.5735C27.2318 19.8177 22.9972 20.5312 18.7031 20.5312C14.409 20.5312 10.1745 19.8177 7.08539 18.5735C4.4498 17.5119 2.8125 16.1068 2.8125 14.9062C2.8125 13.7057 4.4498 12.3006 7.08539 11.239ZM7.08539 52.3235C4.4498 51.2619 2.8125 49.8568 2.8125 48.6562V44.773C3.6938 45.4072 4.77141 45.9861 6.03464 46.4948C9.25312 47.7911 13.3703 48.5449 17.7188 48.6442V54.2675C13.7676 54.1675 9.93797 53.4725 7.08539 52.3235ZM47.3913 60.7673C44.3713 62.0257 40.3258 62.7188 36 62.7188C31.6742 62.7188 27.6287 62.0257 24.6087 60.7673C22.0555 59.7035 20.5312 58.3301 20.5312 57.0938V53.2925C20.8498 53.523 21.2018 53.7521 21.5921 53.9779C23.7759 55.2416 26.7472 56.1763 30.1849 56.6809C30.2542 56.691 30.3228 56.6959 30.3909 56.6959C31.0771 56.6959 31.6777 56.1929 31.7804 55.4937C31.8932 54.7253 31.3616 54.011 30.5934 53.8982C24.0578 52.9387 20.5312 50.4814 20.5312 48.6562V44.8425C23.7142 47.1715 29.3325 48.6562 36 48.6562C42.6675 48.6562 48.2858 47.1715 51.4688 44.8425V48.6562C51.4688 50.4814 47.9422 52.9387 41.4066 53.8982C40.6382 54.011 40.1067 54.7253 40.2196 55.4937C40.3223 56.193 40.9229 56.6959 41.6091 56.6959C41.677 56.6959 41.7459 56.691 41.8151 56.6809C45.2527 56.1763 48.224 55.2417 50.4079 53.9779C50.7981 53.7521 51.1502 53.523 51.4688 53.2925V57.0938C51.4688 58.3301 49.9445 59.7035 47.3913 60.7673ZM64.9146 52.3235C62.062 53.4724 58.2323 54.1675 54.2812 54.2673V48.644C58.6297 48.5447 62.7469 47.791 65.9654 46.4947C67.2286 45.9859 68.3062 45.4071 69.1875 44.7729V48.6562C69.1875 49.8568 67.5502 51.2619 64.9146 52.3235Z" fill="black"/>
</svg>
