<?xml version="1.0" encoding="UTF-8"?>
<!-- Generator: Adobe Illustrator 21.0.0, SVG Export Plug-In . SVG Version: 6.00 Build 0)  -->
<svg version="1.1" id="Layer_1" xmlns="http://www.w3.org/2000/svg" xmlns:xlink="http://www.w3.org/1999/xlink" x="0px" y="0px" viewBox="0 0 500 500" style="enable-background:new 0 0 500 500;" xml:space="preserve">
<style type="text/css">
	.st0{clip-path:url(#SVGID_8_);}
	.st1{clip-path:url(#SVGID_9_);}
	.st2{clip-path:url(#SVGID_10_);}
	.st3{clip-path:url(#SVGID_11_);}
</style>
<g>
	<g>
		<defs>
			<path id="SVGID_1_" d="M250,0c138.1,0,250,111.9,250,250S388.1,500,250,500S0,388.1,0,250S111.9,0,250,0L250,0z"/>
		</defs>
		<use xlink:href="#SVGID_1_" style="overflow:visible;fill-rule:evenodd;clip-rule:evenodd;fill:#16191B;"/>
		<clipPath id="SVGID_2_">
			<use xlink:href="#SVGID_1_" style="overflow:visible;"/>
		</clipPath>
	</g>
	<g>
		<defs>
			<polygon id="SVGID_3_" points="378.5,287.7 341,250.2 378.5,212.8 415.9,250.2 378.5,287.7    "/>
		</defs>
		<defs>
			<polygon id="SVGID_4_" points="250,158.8 185.5,223.2 148.1,185.8 249.5,84.3 250,83.7 250.5,84.3 351.9,185.8 314.5,223.2      250,158.8    "/>
		</defs>
		<defs>
			<polygon id="SVGID_5_" points="121.5,287.7 84,250.2 121.5,212.8 158.9,250.2 121.5,287.7    "/>
		</defs>
		<defs>
			<polygon id="SVGID_6_" points="250.5,212.8 287.9,250.2 250.5,287.7 213,250.2 250.5,212.8    "/>
		</defs>
		<defs>
			<polygon id="SVGID_7_" points="250,341.2 314.5,276.8 351.9,314.2 250.5,415.7 250,416.3 249.5,415.7 148.1,314.2 185.5,276.8      250,341.2    "/>
		</defs>
		<use xlink:href="#SVGID_3_" style="overflow:visible;fill-rule:evenodd;clip-rule:evenodd;fill:#F3BA2E;"/>
		<use xlink:href="#SVGID_4_" style="overflow:visible;fill-rule:evenodd;clip-rule:evenodd;fill:#F3BA2E;"/>
		<use xlink:href="#SVGID_5_" style="overflow:visible;fill-rule:evenodd;clip-rule:evenodd;fill:#F3BA2E;"/>
		<use xlink:href="#SVGID_6_" style="overflow:visible;fill-rule:evenodd;clip-rule:evenodd;fill:#F3BA2E;"/>
		<use xlink:href="#SVGID_7_" style="overflow:visible;fill-rule:evenodd;clip-rule:evenodd;fill:#F3BA2E;"/>
		<clipPath id="SVGID_8_">
			<use xlink:href="#SVGID_3_" style="overflow:visible;"/>
		</clipPath>
		<clipPath id="SVGID_9_" class="st0">
			<use xlink:href="#SVGID_4_" style="overflow:visible;"/>
		</clipPath>
		<clipPath id="SVGID_10_" class="st1">
			<use xlink:href="#SVGID_5_" style="overflow:visible;"/>
		</clipPath>
		<clipPath id="SVGID_11_" class="st2">
			<use xlink:href="#SVGID_6_" style="overflow:visible;"/>
		</clipPath>
		<clipPath id="SVGID_12_" class="st3">
			<use xlink:href="#SVGID_7_" style="overflow:visible;"/>
		</clipPath>
	</g>
</g>
</svg>