<svg xmlns="http://www.w3.org/2000/svg" width="16" height="16" viewBox="0 0 16 16">
    <g fill="none" fill-rule="evenodd" opacity=".7">
        <circle cx="7.986" cy="7.986" r="7.986" fill="#4D4D4D"/>
        <path fill="#F3BA2F" d="M5.485 6.958l2.501-2.501 2.502 2.504 1.455-1.456-3.957-3.96L4.03 5.504l1.456 1.455zm-3.94 1.028l1.456-1.455 1.456 1.455L3 9.442 1.546 7.986zm3.94 1.028l2.501 2.502 2.502-2.504 1.458 1.455-3.96 3.96L4.03 10.47l-.002-.003 1.458-1.453zm6.03-1.028l1.456-1.455 1.456 1.455-1.456 1.456-1.455-1.456z"/>
        <path fill="#F3BA2F" d="M9.609 7.986L9.609 7.986 7.986 6.358 6.786 7.561 6.786 7.561 6.647 7.7 6.361 7.986 6.358 7.989 6.361 7.991 7.984 9.614 9.609 7.989 9.609 7.989 9.609 7.989z"/>
    </g>
</svg>
