<svg xmlns="http://www.w3.org/2000/svg" width="40" height="40" viewBox="0 0 40 40">
    <g fill="none" fill-rule="evenodd">
        <circle cx="19.891" cy="19.891" r="19.891" fill="#3270C4"/>
        <path fill="#FFF" d="M16.426 19.89l7.347 7.322 4.639-4.62c.82-.815 2.149-.815 2.97 0 .822.815.822 2.143 0 2.958l-6.12 6.102c-.822.808-2.163.802-2.972 0l-8.835-8.803v5.229c0 1.148-.943 2.092-2.098 2.092-1.155 0-2.098-.937-2.098-2.092V11.703c0-1.155.943-2.091 2.098-2.091 1.161 0 2.098.936 2.098 2.091v5.23l8.835-8.804c.809-.802 2.15-.808 2.971 0l6.121 6.102c.822.815.822 2.143 0 2.958-.821.815-2.15.815-2.97 0l-4.64-4.62-7.346 7.322zm7.353-2.091c1.161 0 2.098.937 2.098 2.092s-.937 2.091-2.098 2.091c-1.161 0-2.105-.936-2.105-2.091 0-1.155.944-2.092 2.105-2.092z"/>
    </g>
</svg>
