<svg width="65" height="45" viewBox="0 0 65 45" fill="none" xmlns="http://www.w3.org/2000/svg">
<path d="M43.3421 6.28936L33.164 0.443474C32.6589 0.152959 32.0858 0 31.5023 0C30.9189 0 30.3457 0.152959 29.8406 0.443474L19.6625 6.28936C19.1573 6.57975 18.7377 6.99724 18.4459 7.49993C18.1541 8.00262 18.0003 8.57284 18 9.15334V20.8467C18.0003 21.4272 18.1541 21.9974 18.4459 22.5001C18.7377 23.0028 19.1573 23.4202 19.6625 23.7106L29.836 29.5565C30.3411 29.847 30.9142 30 31.4977 30C32.0811 30 32.6543 29.847 33.1594 29.5565L43.3375 23.7106C43.8427 23.4202 44.2623 23.0028 44.5541 22.5001C44.8459 21.9974 44.9997 21.4272 45 20.8467V9.15334C45.0001 8.57329 44.8471 8.00338 44.5561 7.50072C44.2651 6.99807 43.8465 6.58033 43.3421 6.28936ZM24.0157 9.18857C23.9805 9.12708 23.9639 9.05674 23.968 8.98607C23.9721 8.91539 23.9967 8.84741 24.0388 8.79037C24.0775 8.73259 24.1306 8.68582 24.193 8.65467C24.2553 8.62351 24.3247 8.60906 24.3944 8.61271H27.3561C27.4008 8.61054 27.4455 8.61727 27.4875 8.63253C27.5295 8.64778 27.5681 8.67125 27.6009 8.70154C27.6617 8.73596 27.7089 8.78998 27.7348 8.85469L30.5256 14.9962L28.6045 19.0211L24.0157 9.18857ZM38.935 9.18857L31.9433 24.0996C31.9132 24.1742 31.8606 24.2376 31.7928 24.2812C31.725 24.3248 31.6453 24.3464 31.5647 24.3432H31.3414C31.2776 24.3419 31.2149 24.3257 31.1585 24.2959C31.1021 24.2661 31.0535 24.2235 31.0166 24.1716C30.9975 24.1486 30.9795 24.1245 30.9628 24.0996L29.5697 21.107L31.5416 16.9428L35.2237 8.85623C35.2495 8.79151 35.2967 8.73749 35.3576 8.70307C35.3905 8.67292 35.429 8.64955 35.471 8.6343C35.513 8.61906 35.5577 8.61224 35.6023 8.61424H38.564C38.6333 8.61099 38.7022 8.62548 38.7642 8.65632C38.8261 8.68716 38.8791 8.73331 38.9181 8.79037C38.9596 8.84786 38.9834 8.91619 38.9864 8.98695C38.9894 9.0577 38.9715 9.12779 38.935 9.18857Z" fill="url(#paint1_linear)"/>
<defs>
<linearGradient id="paint0_linear" x1="-10.1827" y1="41.7872" x2="-9.35043" y2="49.8982" gradientUnits="userSpaceOnUse">
<stop stop-color="#29BDA0"/>
<stop offset="0.998456" stop-color="#167789"/>
</linearGradient>
<linearGradient id="paint1_linear" x1="18.0297" y1="7.19824" x2="40.0907" y2="31.4993" gradientUnits="userSpaceOnUse">
<stop offset="0.103047" stop-color="#29BDA0"/>
<stop offset="0.910923" stop-color="#167789"/>
</linearGradient>
</defs>
</svg>
