<svg xmlns="http://www.w3.org/2000/svg" width="16" height="16" viewBox="0 0 16 16">
    <defs>
        <linearGradient id="prefix__a" x1="4.476%" x2="95.896%" y1="10.683%" y2="100%">
            <stop offset="0%" stop-color="#191927"/>
            <stop offset="100%" stop-color="#1D1D2B"/>
        </linearGradient>
        <linearGradient id="prefix__b" x1="4.476%" x2="95.896%" y1="24.12%" y2="82.912%">
            <stop offset="0%" stop-color="#770FC8"/>
            <stop offset="100%" stop-color="#A25CD9"/>
        </linearGradient>
    </defs>
    <g fill="none" fill-rule="evenodd" opacity=".7">
        <circle cx="7.986" cy="7.986" r="7.986" fill="url(#prefix__a)"/>
        <path fill="url(#prefix__b)" d="M8.048 3.855c.453 0 .82.367.82.82v6.65c0 .453-.367.82-.82.82-.452 0-.82-.367-.82-.82v-6.65c0-.453.368-.82.82-.82zm2.024 3.374c.453 0 .82.367.82.82v2.409c0 .452-.367.82-.82.82-.452 0-.819-.368-.819-.82v-2.41c0-.452.367-.82.82-.82zm2.217-.964c.453 0 .82.367.82.82v2.409c0 .452-.367.82-.82.82-.452 0-.82-.368-.82-.82v-2.41c0-.452.368-.819.82-.819zm-8.578 0c.452 0 .82.367.82.82v2.409c0 .452-.368.82-.82.82-.453 0-.82-.368-.82-.82v-2.41c0-.452.367-.819.82-.819zm2.217-2.12c.452 0 .819.366.819.819v2.41c0 .452-.367.819-.82.819-.452 0-.819-.367-.819-.82v-2.41c0-.452.367-.818.82-.818z"/>
    </g>
</svg>
