<svg xmlns="http://www.w3.org/2000/svg" width="166" height="166" viewBox="0 0 166 166">
    <defs>
        <linearGradient id="prefix__a" x1="4.476%" x2="95.896%" y1="10.683%" y2="100%">
            <stop offset="0%" stop-color="#191927"/>
            <stop offset="100%" stop-color="#1D1D2B"/>
        </linearGradient>
        <linearGradient id="prefix__b" x1="4.476%" x2="95.896%" y1="24.12%" y2="82.912%">
            <stop offset="0%" stop-color="#770FC8"/>
            <stop offset="100%" stop-color="#A25CD9"/>
        </linearGradient>
    </defs>
    <g fill="none" fill-rule="evenodd">
        <circle cx="82.857" cy="82.857" r="82.857" fill="url(#prefix__a)"/>
        <path fill="url(#prefix__b)" d="M83.5 40c4.694 0 8.5 3.806 8.5 8.5v69c0 4.694-3.806 8.5-8.5 8.5s-8.5-3.806-8.5-8.5v-69c0-4.694 3.806-8.5 8.5-8.5zm21 35c4.694 0 8.5 3.806 8.5 8.5v25c0 4.694-3.806 8.5-8.5 8.5s-8.5-3.806-8.5-8.5v-25c0-4.694 3.806-8.5 8.5-8.5zm23-10c4.694 0 8.5 3.806 8.5 8.5v25c0 4.694-3.806 8.5-8.5 8.5s-8.5-3.806-8.5-8.5v-25c0-4.694 3.806-8.5 8.5-8.5zm-89 0c4.694 0 8.5 3.806 8.5 8.5v25c0 4.694-3.806 8.5-8.5 8.5s-8.5-3.806-8.5-8.5v-25c0-4.694 3.806-8.5 8.5-8.5zm23-22c4.694 0 8.5 3.806 8.5 8.5v25c0 4.694-3.806 8.5-8.5 8.5S53 81.194 53 76.5v-25c0-4.694 3.806-8.5 8.5-8.5z"/>
    </g>
</svg>
