<svg xmlns="http://www.w3.org/2000/svg" width="67.4" height="77.9" viewBox="0 0 67.4 77.9">
  <path id="binance-chain-logo-vector" d="M-93.3,240.9-114,252.8l7.6,4.4,13.1-7.5,13.1,7.5,7.6-4.4Zm13.1,22.6,7.6,4.4v8.8l-13.1,7.5v15l-7.6,4.4-7.6-4.4v-15l-13.1-7.5v-8.8l7.6-4.4,13.1,7.5,13.1-7.5Zm7.6,19.5v8.8l-7.6,4.4v-8.8l7.6-4.4Zm-7.7,19.4,13.1-7.5v-15l7.6-4.4v23.9l-20.7,11.9Zm13.1-37.6-7.6-4.4,7.6-4.4,7.6,4.4v8.8l-7.6,4.4v-8.8Zm-33.7,49.6v-8.8l7.6,4.4,7.6-4.4v8.8l-7.6,4.4-7.6-4.4Zm-5.5-18.2-7.6-4.4V283l7.6,4.4v8.8Zm13.1-31.4-7.6-4.4,7.6-4.4,7.6,4.4-7.6,4.4Zm-18.5-4.4-7.6,4.4v8.8l-7.6-4.4v-8.8l7.6-4.4Zm-15.2,15,7.6,4.4v15l13.1,7.5v8.8L-127,299.2V275.4Z" transform="translate(127 -240.9)" fill="#f0b90b"/>
</svg>
