<svg width="24" height="24" viewBox="0 0 24 24" fill="none" xmlns="http://www.w3.org/2000/svg">
<path d="M12 3C7.02979 3 3 7.03124 3 12C3 16.9717 7.02979 21 12 21C16.9702 21 21 16.9717 21 12C21 7.03124 16.9702 3 12 3ZM12 19.2581C7.98876 19.2581 4.74194 16.0126 4.74194 12C4.74194 7.9901 7.9889 4.74194 12 4.74194C16.0098 4.74194 19.2581 7.98887 19.2581 12C19.2581 16.0112 16.0126 19.2581 12 19.2581ZM12 6.99194C12.8418 6.99194 13.5242 7.67434 13.5242 8.51613C13.5242 9.35792 12.8418 10.0403 12 10.0403C11.1582 10.0403 10.4758 9.35792 10.4758 8.51613C10.4758 7.67434 11.1582 6.99194 12 6.99194ZM14.0323 16.2097C14.0323 16.4502 13.8373 16.6452 13.5968 16.6452H10.4032C10.1627 16.6452 9.96774 16.4502 9.96774 16.2097V15.3387C9.96774 15.0982 10.1627 14.9032 10.4032 14.9032H10.8387V12.5806H10.4032C10.1627 12.5806 9.96774 12.3857 9.96774 12.1452V11.2742C9.96774 11.0337 10.1627 10.8387 10.4032 10.8387H12.7258C12.9663 10.8387 13.1613 11.0337 13.1613 11.2742V14.9032H13.5968C13.8373 14.9032 14.0323 15.0982 14.0323 15.3387V16.2097Z" fill="#65647E"/>
</svg>
