<svg width="40" height="40" viewBox="0 0 40 40" fill="none" xmlns="http://www.w3.org/2000/svg">
<path d="M9.16675 25.8333C8.6723 25.8333 8.18895 25.98 7.77782 26.2547C7.3667 26.5294 7.04627 26.9198 6.85705 27.3766C6.66783 27.8334 6.61832 28.3361 6.71479 28.8211C6.81125 29.306 7.04935 29.7515 7.39898 30.1011C7.74861 30.4507 8.19407 30.6888 8.67902 30.7853C9.16398 30.8818 9.66664 30.8323 10.1235 30.643C10.5803 30.4538 10.9707 30.1334 11.2454 29.7223C11.5201 29.3111 11.6668 28.8278 11.6668 28.3333C11.6668 27.6703 11.4034 27.0344 10.9345 26.5656C10.4657 26.0967 9.82979 25.8333 9.16675 25.8333ZM9.16675 17.5C8.6723 17.5 8.18895 17.6466 7.77782 17.9213C7.3667 18.196 7.04627 18.5865 6.85705 19.0433C6.66783 19.5001 6.61832 20.0028 6.71479 20.4877C6.81125 20.9727 7.04935 21.4181 7.39898 21.7678C7.74861 22.1174 8.19407 22.3555 8.67902 22.452C9.16398 22.5484 9.66664 22.4989 10.1235 22.3097C10.5803 22.1205 10.9707 21.8 11.2454 21.3889C11.5201 20.9778 11.6668 20.4945 11.6668 20C11.6668 19.337 11.4034 18.7011 10.9345 18.2322C10.4657 17.7634 9.82979 17.5 9.16675 17.5ZM9.16675 9.16667C8.6723 9.16667 8.18895 9.31329 7.77782 9.58799C7.3667 9.8627 7.04627 10.2531 6.85705 10.71C6.66783 11.1668 6.61832 11.6694 6.71479 12.1544C6.81125 12.6393 7.04935 13.0848 7.39898 13.4344C7.74861 13.7841 8.19407 14.0222 8.67902 14.1186C9.16398 14.2151 9.66664 14.1656 10.1235 13.9764C10.5803 13.7871 10.9707 13.4667 11.2454 13.0556C11.5201 12.6445 11.6668 12.1611 11.6668 11.6667C11.6668 11.0036 11.4034 10.3677 10.9345 9.8989C10.4657 9.43006 9.82979 9.16667 9.16675 9.16667ZM32.5001 10.4167H15.8334C15.6124 10.4167 15.4004 10.5045 15.2442 10.6607C15.0879 10.817 15.0001 11.029 15.0001 11.25V12.0833C15.0001 12.3043 15.0879 12.5163 15.2442 12.6726C15.4004 12.8289 15.6124 12.9167 15.8334 12.9167H32.5001C32.7211 12.9167 32.9331 12.8289 33.0894 12.6726C33.2456 12.5163 33.3334 12.3043 33.3334 12.0833V11.25C33.3334 11.029 33.2456 10.817 33.0894 10.6607C32.9331 10.5045 32.7211 10.4167 32.5001 10.4167ZM32.5001 18.75H15.8334C15.6124 18.75 15.4004 18.8378 15.2442 18.9941C15.0879 19.1504 15.0001 19.3623 15.0001 19.5833V20.4167C15.0001 20.6377 15.0879 20.8496 15.2442 21.0059C15.4004 21.1622 15.6124 21.25 15.8334 21.25H32.5001C32.7211 21.25 32.9331 21.1622 33.0894 21.0059C33.2456 20.8496 33.3334 20.6377 33.3334 20.4167V19.5833C33.3334 19.3623 33.2456 19.1504 33.0894 18.9941C32.9331 18.8378 32.7211 18.75 32.5001 18.75ZM32.5001 27.0833H15.8334C15.6124 27.0833 15.4004 27.1711 15.2442 27.3274C15.0879 27.4837 15.0001 27.6957 15.0001 27.9167V28.75C15.0001 28.971 15.0879 29.183 15.2442 29.3393C15.4004 29.4955 15.6124 29.5833 15.8334 29.5833H32.5001C32.7211 29.5833 32.9331 29.4955 33.0894 29.3393C33.2456 29.183 33.3334 28.971 33.3334 28.75V27.9167C33.3334 27.6957 33.2456 27.4837 33.0894 27.3274C32.9331 27.1711 32.7211 27.0833 32.5001 27.0833Z" fill="url(#paint0_linear_173:6416)"/>
<defs>
<linearGradient id="paint0_linear_173:6416" x1="11.2501" y1="9.16667" x2="33.0131" y2="25.3962" gradientUnits="userSpaceOnUse">
<stop stop-color="#A600FB"/>
<stop offset="0.260417" stop-color="#6F06FC"/>
<stop offset="0.625" stop-color="#4959F5"/>
<stop offset="0.828125" stop-color="#2E8DDF"/>
<stop offset="1" stop-color="#12C1C9"/>
</linearGradient>
</defs>
</svg>
