<svg width="24" height="24" viewBox="0 0 24 24" fill="none" xmlns="http://www.w3.org/2000/svg">
<path d="M5.5 15.5C5.20333 15.5 4.91332 15.588 4.66665 15.7528C4.41997 15.9176 4.22771 16.1519 4.11418 16.426C4.00065 16.7001 3.97094 17.0017 4.02882 17.2926C4.0867 17.5836 4.22956 17.8509 4.43934 18.0607C4.64912 18.2704 4.91639 18.4133 5.20737 18.4712C5.49834 18.5291 5.79994 18.4994 6.07403 18.3858C6.34812 18.2723 6.58238 18.08 6.74721 17.8334C6.91203 17.5867 7 17.2967 7 17C7 16.6022 6.84197 16.2206 6.56066 15.9393C6.27936 15.658 5.89783 15.5 5.5 15.5ZM5.5 10.5C5.20333 10.5 4.91332 10.588 4.66665 10.7528C4.41997 10.9176 4.22771 11.1519 4.11418 11.426C4.00065 11.7001 3.97094 12.0017 4.02882 12.2926C4.0867 12.5836 4.22956 12.8509 4.43934 13.0607C4.64912 13.2704 4.91639 13.4133 5.20737 13.4712C5.49834 13.5291 5.79994 13.4994 6.07403 13.3858C6.34812 13.2723 6.58238 13.08 6.74721 12.8334C6.91203 12.5867 7 12.2967 7 12C7 11.6022 6.84197 11.2206 6.56066 10.9393C6.27936 10.658 5.89783 10.5 5.5 10.5ZM5.5 5.5C5.20333 5.5 4.91332 5.58797 4.66665 5.7528C4.41997 5.91762 4.22771 6.15189 4.11418 6.42597C4.00065 6.70006 3.97094 7.00166 4.02882 7.29264C4.0867 7.58361 4.22956 7.85088 4.43934 8.06066C4.64912 8.27044 4.91639 8.4133 5.20737 8.47118C5.49834 8.52906 5.79994 8.49935 6.07403 8.38582C6.34812 8.27229 6.58238 8.08003 6.74721 7.83336C6.91203 7.58668 7 7.29667 7 7C7 6.60218 6.84197 6.22064 6.56066 5.93934C6.27936 5.65804 5.89783 5.5 5.5 5.5ZM19.5 6.25H9.5C9.36739 6.25 9.24022 6.30268 9.14645 6.39645C9.05268 6.49021 9 6.61739 9 6.75V7.25C9 7.38261 9.05268 7.50979 9.14645 7.60355C9.24022 7.69732 9.36739 7.75 9.5 7.75H19.5C19.6326 7.75 19.7598 7.69732 19.8536 7.60355C19.9473 7.50979 20 7.38261 20 7.25V6.75C20 6.61739 19.9473 6.49021 19.8536 6.39645C19.7598 6.30268 19.6326 6.25 19.5 6.25ZM19.5 11.25H9.5C9.36739 11.25 9.24022 11.3027 9.14645 11.3964C9.05268 11.4902 9 11.6174 9 11.75V12.25C9 12.3826 9.05268 12.5098 9.14645 12.6036C9.24022 12.6973 9.36739 12.75 9.5 12.75H19.5C19.6326 12.75 19.7598 12.6973 19.8536 12.6036C19.9473 12.5098 20 12.3826 20 12.25V11.75C20 11.6174 19.9473 11.4902 19.8536 11.3964C19.7598 11.3027 19.6326 11.25 19.5 11.25ZM19.5 16.25H9.5C9.36739 16.25 9.24022 16.3027 9.14645 16.3964C9.05268 16.4902 9 16.6174 9 16.75V17.25C9 17.3826 9.05268 17.5098 9.14645 17.6036C9.24022 17.6973 9.36739 17.75 9.5 17.75H19.5C19.6326 17.75 19.7598 17.6973 19.8536 17.6036C19.9473 17.5098 20 17.3826 20 17.25V16.75C20 16.6174 19.9473 16.4902 19.8536 16.3964C19.7598 16.3027 19.6326 16.25 19.5 16.25Z" fill="#65647E"/>
</svg>
