<svg width="40" height="40" viewBox="0 0 40 40" fill="none" xmlns="http://www.w3.org/2000/svg">
<path d="M35.7409 18.125H34.0336C33.3912 16.6426 32.3727 15.377 31.1111 14.4102V10.625H30.1851C28.4316 10.625 26.8401 11.2168 25.4974 12.1602C25.5206 11.9609 25.5553 11.7676 25.5553 11.5625C25.5553 7.93555 22.6559 5 19.0735 5C15.4912 5 12.5918 7.93555 12.5918 11.5625C12.5918 12.1309 12.6786 12.6758 12.8117 13.1973C9.98176 14.3633 7.84626 16.9004 7.22123 20H6.57306C5.71654 20 5.03943 19.209 5.21305 18.3125C5.34037 17.6445 5.95961 17.1875 6.63093 17.1875H6.6888C6.87978 17.1875 7.03604 17.0293 7.03604 16.8359V15.6641C7.03604 15.4707 6.87978 15.3125 6.6888 15.3125C5.03943 15.3125 3.56947 16.5078 3.36113 18.1602C3.10649 20.1641 4.6459 21.875 6.57306 21.875H7.03604C7.03604 24.9336 8.506 27.623 10.7399 29.334V34.0625C10.7399 34.5781 11.1566 35 11.6659 35H18.1476C18.6569 35 19.0735 34.5781 19.0735 34.0625V31.25H22.7774V34.0625C22.7774 34.5781 23.1941 35 23.7034 35H30.1851C30.6944 35 31.1111 34.5781 31.1111 34.0625V29.3223C31.7882 28.7949 32.4074 28.1914 32.9225 27.5H35.7409C36.2501 27.5 36.6668 27.0781 36.6668 26.5625V19.0625C36.6668 18.5469 36.2501 18.125 35.7409 18.125ZM19.0735 7.8125C21.1164 7.8125 22.7774 9.49414 22.7774 11.5625C22.7774 11.8906 22.7253 12.2012 22.6443 12.5H16.2957C16.0352 12.5 15.7864 12.5586 15.526 12.5762C15.4334 12.2539 15.3697 11.9141 15.3697 11.5625C15.3697 9.49414 17.0306 7.8125 19.0735 7.8125ZM33.8889 24.6875H31.5393C30.1793 26.5098 30.4166 26.3223 28.3332 27.9336V32.1875H25.5553V28.4375H16.2957V32.1875H13.5178V27.9336C12.6728 27.2891 9.81393 25.6016 9.81393 21.875C9.81393 18.2539 12.7191 15.3125 16.2957 15.3125H25.9835C26.5333 14.8672 27.2683 14.1816 28.3332 13.7773V15.8105C30.9606 17.8262 30.8911 17.873 32.2164 20.9375H33.8889V24.6875ZM28.3332 20C27.8239 20 27.4072 20.4219 27.4072 20.9375C27.4072 21.4531 27.8239 21.875 28.3332 21.875C28.8424 21.875 29.2591 21.4531 29.2591 20.9375C29.2591 20.4219 28.8424 20 28.3332 20Z" fill="url(#paint0_linear_403_2548)"/>
<defs>
<linearGradient id="paint0_linear_403_2548" x1="9.06266" y1="5" x2="38.1923" y2="24.6111" gradientUnits="userSpaceOnUse">
<stop stop-color="#A600FB"/>
<stop offset="0.260417" stop-color="#6F06FC"/>
<stop offset="0.625" stop-color="#4959F5"/>
<stop offset="0.828125" stop-color="#2E8DDF"/>
<stop offset="1" stop-color="#12C1C9"/>
</linearGradient>
</defs>
</svg>
