<svg width="34" height="30" viewBox="0 0 34 30" fill="none" xmlns="http://www.w3.org/2000/svg">
<path id="Vector" d="M29.2871 5.35714V4.28571C29.2871 1.91853 27.3265 0 24.9075 0H6.90266C3.27446 0 0.333313 2.87812 0.333313 6.42857V23.5714C0.333313 27.1219 3.27446 30 6.90266 30H29.2871C31.7061 30 33.6666 28.0815 33.6666 25.7143V9.64286C33.6666 7.27567 31.7061 5.35714 29.2871 5.35714ZM30.382 25.7143C30.382 26.3049 29.8906 26.7857 29.2871 26.7857H6.90266C5.0913 26.7857 3.61798 25.344 3.61798 23.5714V6.42857C3.61798 4.65603 5.0913 3.21429 6.90266 3.21429H24.9075C25.5111 3.21429 26.0024 3.69509 26.0024 4.28571V6.42857H7.99755C7.39262 6.42857 6.90266 6.90804 6.90266 7.5C6.90266 8.09196 7.39262 8.57143 7.99755 8.57143H29.2871C29.8906 8.57143 30.382 9.05223 30.382 9.64286V25.7143ZM24.9075 15C23.6984 15 22.7177 15.9596 22.7177 17.1429C22.7177 18.3261 23.6984 19.2857 24.9075 19.2857C26.1167 19.2857 27.0973 18.3261 27.0973 17.1429C27.0973 15.9596 26.1167 15 24.9075 15Z" fill="url(#paint0_linear_411:3068)"/>
<defs>
<linearGradient id="paint0_linear_411:3068" x1="6.06248" y1="-1.89648e-07" x2="35.1921" y2="19.6111" gradientUnits="userSpaceOnUse">
<stop stop-color="#A600FB"/>
<stop offset="0.260417" stop-color="#6F06FC"/>
<stop offset="0.625" stop-color="#4959F5"/>
<stop offset="0.828125" stop-color="#2E8DDF"/>
<stop offset="1" stop-color="#12C1C9"/>
</linearGradient>
</defs>
</svg>
