<svg width="24" height="24" viewBox="0 0 24 24" fill="none" xmlns="http://www.w3.org/2000/svg">
<path d="M19.3723 6.21429V5.57143C19.3723 4.15112 18.1959 3 16.7445 3H5.94161C3.76469 3 2 4.72688 2 6.85714V17.1429C2 19.2731 3.76469 21 5.94161 21H19.3723C20.8237 21 22 19.8489 22 18.4286V8.78571C22 7.3654 20.8237 6.21429 19.3723 6.21429ZM20.0292 18.4286C20.0292 18.7829 19.7344 19.0714 19.3723 19.0714H5.94161C4.85479 19.0714 3.9708 18.2064 3.9708 17.1429V6.85714C3.9708 5.79362 4.85479 4.92857 5.94161 4.92857H16.7445C17.1067 4.92857 17.4015 5.21705 17.4015 5.57143V6.85714H6.59854C6.23558 6.85714 5.94161 7.14482 5.94161 7.5C5.94161 7.85518 6.23558 8.14286 6.59854 8.14286H19.3723C19.7344 8.14286 20.0292 8.43134 20.0292 8.78571V18.4286ZM16.7445 12C16.019 12 15.4307 12.5758 15.4307 13.2857C15.4307 13.9957 16.019 14.5714 16.7445 14.5714C17.47 14.5714 18.0584 13.9957 18.0584 13.2857C18.0584 12.5758 17.47 12 16.7445 12Z" fill="#65647E"/>
</svg>
