<svg width="24" height="24" viewBox="0 0 24 24" fill="none" xmlns="http://www.w3.org/2000/svg">
<path fill-rule="evenodd" clip-rule="evenodd" d="M12 2.32501C10.9311 2.32501 10.0645 3.19155 10.0645 4.26049V19.7444C10.0645 20.8133 10.9311 21.6799 12 21.6799C13.0689 21.6799 13.9355 20.8133 13.9355 19.7444V4.2605C13.9355 3.19156 13.0689 2.32501 12 2.32501ZM5.03226 5.03469C5.03226 3.96575 5.8988 3.09921 6.96774 3.09921C8.03668 3.09921 8.90323 3.96575 8.90323 5.03469V10.454C8.90323 11.523 8.03668 12.3895 6.96774 12.3895C5.8988 12.3895 5.03226 11.523 5.03226 10.454V5.03469ZM0 10.0669C0 8.99801 0.866546 8.13146 1.93548 8.13146C3.00442 8.13146 3.87097 8.99801 3.87097 10.0669V15.4863C3.87097 16.5552 3.00442 17.4218 1.93548 17.4218C0.866546 17.4218 0 16.5552 0 15.4863V10.0669ZM20.129 10.0669C20.129 8.99801 20.9956 8.13146 22.0645 8.13146C23.1335 8.13146 24 8.99801 24 10.0669V15.4863C24 16.5552 23.1335 17.4218 22.0645 17.4218C20.9956 17.4218 20.129 16.5552 20.129 15.4863V10.0669ZM17.0323 10.454C15.9633 10.454 15.0968 11.3206 15.0968 12.3895V17.8089C15.0968 18.8778 15.9633 19.7444 17.0323 19.7444C18.1012 19.7444 18.9677 18.8778 18.9677 17.8089V12.3895C18.9677 11.3206 18.1012 10.454 17.0323 10.454Z" fill="url(#paint0_linear_512:2)"/>
<defs>
<linearGradient id="paint0_linear_512:2" x1="20.8041" y1="17.5006" x2="5.04148" y2="3.48575" gradientUnits="userSpaceOnUse">
<stop offset="0.05" stop-color="#10CACC"/>
<stop offset="0.43" stop-color="#4053C1"/>
<stop offset="0.62" stop-color="#5E33CA"/>
<stop offset="0.78" stop-color="#953DD9"/>
<stop offset="0.92" stop-color="#D976B8"/>
<stop offset="1" stop-color="#E883B0"/>
</linearGradient>
</defs>
</svg>
