<svg width="48" height="48" viewBox="0 0 48 48" fill="none" xmlns="http://www.w3.org/2000/svg">
<g id="zignaly-coin">
<path id="bg" d="M24 44C35.0457 44 44 35.0457 44 24C44 12.9543 35.0457 4 24 4C12.9543 4 4 12.9543 4 24C4 35.0457 12.9543 44 24 44Z" fill="#F3F4F6"/>
<path id="New_bars_logo" fill-rule="evenodd" clip-rule="evenodd" d="M35.7087 18.5348C36.9976 18.5348 38 19.5829 38 20.9305V25.8717C38 27.2192 36.9976 28.2674 35.7087 28.2674C34.4199 28.2674 33.4175 27.2192 33.4175 25.8717V20.9305C33.4175 19.5829 34.4199 18.5348 35.7087 18.5348ZM29.9806 21.754C31.2694 21.754 32.2718 22.8021 32.2718 24.1497V32.6096C32.2718 33.9572 31.2694 35.0053 29.9806 35.0053C28.6917 35.0053 27.6893 33.9572 27.6893 32.6096V24.1497C27.6893 22.8021 28.6917 21.754 29.9806 21.754ZM23.966 12.0214C25.2548 12.0214 26.2573 13.0695 26.2573 14.4171V35.6043C26.2573 36.9519 25.2548 38 23.966 38C22.6772 38 21.6747 36.9519 21.6747 35.6043V14.4171C21.6747 13.0695 22.6772 12.0214 23.966 12.0214ZM18.2378 10C19.5267 10 20.5291 11.0481 20.5291 12.3957V24.0749C20.5291 25.4225 19.5267 26.4706 18.2378 26.4706C16.949 26.4706 15.9466 25.4225 15.9466 24.0749V12.3957C15.9466 11.123 16.949 10 18.2378 10ZM12.2233 18.3102C13.5121 18.3102 14.5145 19.3583 14.5145 20.7059V26.6952C14.5145 28.0428 13.5121 29.0909 12.2949 29.0909C11.006 29.0909 10.0036 28.0428 10.0036 26.7701V26.6952V20.7059C9.93201 19.3583 10.9344 18.3102 12.2233 18.3102Z" fill="url(#paint0_linear_19:3088)"/>
</g>
<defs>
<linearGradient id="paint0_linear_19:3088" x1="34.2382" y1="31.8872" x2="12.5382" y2="16.2481" gradientUnits="userSpaceOnUse">
<stop offset="0.04" stop-color="#11CED0"/>
<stop offset="0.43" stop-color="#4053C1"/>
<stop offset="0.69" stop-color="#7D33D6"/>
<stop offset="0.95" stop-color="#CF61DC"/>
</linearGradient>
</defs>
</svg>
